SplineFontDB: 3.0
FontName: Comfortaa-Regular
FullName: Comfortaa
FamilyName: Comfortaa
Weight: Book
Copyright: Copyright (c) 2011, Johan Aakerlund (aajohan@gmail.com), with Reserved Font Name "Comfortaa"
Version: 2.001
ItalicAngle: 0
UnderlinePosition: -142
UnderlineWidth: 150
Ascent: 1638
Descent: 410
InvalidEm: 0
sfntRevision: 0x00020042
LayerCount: 2
Layer: 0 1 "Back" 1
Layer: 1 1 "Fore" 0
XUID: [1021 591 -286901576 8928875]
FSType: 0
OS2Version: 3
OS2_WeightWidthSlopeOnly: 0
OS2_UseTypoMetrics: 1
CreationTime: 1221315180
ModificationTime: 1333517849
PfmFamily: 17
TTFWeight: 400
TTFWidth: 5
LineGap: 0
VLineGap: 0
Panose: 2 15 6 3 7 2 0 6 0 3
OS2TypoAscent: 2080
OS2TypoAOffset: 0
OS2TypoDescent: -480
OS2TypoDOffset: 0
OS2TypoLinegap: 0
OS2WinAscent: 2080
OS2WinAOffset: 0
OS2WinDescent: 480
OS2WinDOffset: 0
HheadAscent: 2080
HheadAOffset: 0
HheadDescent: -480
HheadDOffset: 0
OS2SubXSize: 1434
OS2SubYSize: 1331
OS2SubXOff: 0
OS2SubYOff: 283
OS2SupXSize: 1434
OS2SupYSize: 1331
OS2SupXOff: 0
OS2SupYOff: 977
OS2StrikeYSize: 102
OS2StrikeYPos: 530
OS2CapHeight: 0
OS2XHeight: 0
OS2FamilyClass: 2052
OS2Vendor: '    '
OS2CodePages: 2000009f.00000000
OS2UnicodeRanges: a00002bf.5000007b.00000000.00000000
Lookup: 258 0 0 "'kern' Horizontal Kerning in Latin lookup 0" { "'kern' Horizontal Kerning in Latin lookup 0 subtable"  } ['kern' ('latn' <'dflt' > ) ]
DEI: 91125
ShortTable: maxp 16
  1
  0
  598
  124
  7
  101
  5
  1
  0
  0
  0
  0
  0
  0
  3
  1
EndShort
LangName: 1033 "" "" "" "JohanAakerlund: Comfortaa: 2008" "" "Version 2.001" "" "" "Johan Aakerlund" "Johan Aakerlund" "" "" "" "This Font Software is licensed under the SIL Open Font License, Version 1.1." "http://scripts.sil.org/OFL" "" "" "" "Comfortaa" "Comfortaa"
GaspTable: 1 65535 3 0
Encoding: UnicodeBmp
UnicodeInterp: none
NameList: AGL For New Fonts
DisplaySize: -48
AntiAlias: 1
FitToEm: 1
WinInfo: 64 16 4
BeginChars: 65540 598

StartChar: .notdef
Encoding: 65536 -1 0
Width: 1280
Flags: W
LayerCount: 2
Back
Fore
SplineSet
400 1040 m 0,0,1
 400 1015 400 1015 382.5 997.5 c 128,-1,2
 365 980 365 980 340 980 c 256,3,4
 315 980 315 980 297.5 997.5 c 128,-1,5
 280 1015 280 1015 280 1040 c 0,6,7
 280 1189 280 1189 385.5 1294.5 c 128,-1,8
 491 1400 491 1400 640 1400 c 256,9,10
 789 1400 789 1400 894.5 1294.5 c 128,-1,11
 1000 1189 1000 1189 1000 1040 c 256,12,13
 1000 891 1000 891 894 785 c 1,14,-1
 771 670 l 2,15,16
 700 600 700 600 700 500 c 0,17,18
 700 475 700 475 682.5 457.5 c 128,-1,19
 665 440 665 440 640 440 c 256,20,21
 615 440 615 440 597.5 457.5 c 128,-1,22
 580 475 580 475 580 500 c 0,23,24
 580 649 580 649 686 755 c 1,25,-1
 810 870 l 2,26,27
 880 940 880 940 880 1040 c 256,28,29
 880 1140 880 1140 810 1210 c 128,-1,30
 740 1280 740 1280 640 1280 c 256,31,32
 540 1280 540 1280 470 1210 c 128,-1,33
 400 1140 400 1140 400 1040 c 0,0,1
730 290 m 0,34,35
 730 253 730 253 704 226.5 c 128,-1,36
 678 200 678 200 640 200 c 0,37,38
 603 200 603 200 576.5 226.5 c 128,-1,39
 550 253 550 253 550 290 c 0,40,41
 550 328 550 328 576.5 354 c 128,-1,42
 603 380 603 380 640 380 c 0,43,44
 678 380 678 380 704 354 c 128,-1,45
 730 328 730 328 730 290 c 0,34,35
200 120 m 1,46,-1
 1080 120 l 1,47,-1
 1080 1480 l 1,48,-1
 200 1480 l 1,49,-1
 200 120 l 1,46,-1
140 0 m 2,50,51
 115 0 115 0 97.5 17.5 c 128,-1,52
 80 35 80 35 80 60 c 2,53,-1
 80 1540 l 2,54,55
 80 1565 80 1565 97.5 1582.5 c 128,-1,56
 115 1600 115 1600 140 1600 c 2,57,-1
 1140 1600 l 2,58,59
 1165 1600 1165 1600 1182.5 1582.5 c 128,-1,60
 1200 1565 1200 1565 1200 1540 c 2,61,-1
 1200 60 l 2,62,63
 1200 35 1200 35 1182.5 17.5 c 128,-1,64
 1165 0 1165 0 1140 0 c 2,65,-1
 140 0 l 2,50,51
EndSplineSet
EndChar

StartChar: exclam
Encoding: 33 33 4
Width: 400
Flags: W
LayerCount: 2
Back
Fore
SplineSet
320 120 m 256,0,1
 320 70 320 70 285 35 c 128,-1,2
 250 0 250 0 200 0 c 256,3,4
 150 0 150 0 115 35 c 128,-1,5
 80 70 80 70 80 120 c 256,6,7
 80 170 80 170 115 205 c 128,-1,8
 150 240 150 240 200 240 c 256,9,10
 250 240 250 240 285 205 c 128,-1,11
 320 170 320 170 320 120 c 256,0,1
120 1520 m 2,12,13
 120 1553 120 1553 143.5 1576.5 c 128,-1,14
 167 1600 167 1600 200 1600 c 256,15,16
 233 1600 233 1600 256.5 1576.5 c 128,-1,17
 280 1553 280 1553 280 1520 c 2,18,-1
 280 399 l 2,19,20
 280 367 280 367 257 344 c 0,21,22
 233 320 233 320 200 320 c 256,23,24
 167 320 167 320 144 344 c 0,25,26
 120 367 120 367 120 399 c 2,27,-1
 120 1520 l 2,12,13
EndSplineSet
EndChar

StartChar: quotedbl
Encoding: 34 34 5
Width: 560
Flags: W
LayerCount: 2
Back
Fore
SplineSet
220 1220 m 2,0,1
 220 1195 220 1195 202.5 1177.5 c 128,-1,2
 185 1160 185 1160 160 1160 c 256,3,4
 135 1160 135 1160 117.5 1177.5 c 128,-1,5
 100 1195 100 1195 100 1220 c 2,6,-1
 80 1512 l 1,7,-1
 80 1520 l 2,8,9
 80 1553 80 1553 103.5 1576.5 c 128,-1,10
 127 1600 127 1600 160 1600 c 256,11,12
 193 1600 193 1600 216.5 1576.5 c 128,-1,13
 240 1553 240 1553 240 1520 c 2,14,-1
 240 1512 l 1,15,-1
 220 1220 l 2,0,1
460 1220 m 2,16,17
 460 1195 460 1195 442.5 1177.5 c 128,-1,18
 425 1160 425 1160 400 1160 c 256,19,20
 375 1160 375 1160 357.5 1177.5 c 128,-1,21
 340 1195 340 1195 340 1220 c 2,22,-1
 320 1512 l 1,23,-1
 320 1520 l 2,24,25
 320 1553 320 1553 343.5 1576.5 c 128,-1,26
 367 1600 367 1600 400 1600 c 256,27,28
 433 1600 433 1600 456.5 1576.5 c 128,-1,29
 480 1553 480 1553 480 1520 c 2,30,-1
 480 1512 l 1,31,-1
 460 1220 l 2,16,17
EndSplineSet
EndChar

StartChar: numbersign
Encoding: 35 35 6
Width: 1280
Flags: W
LayerCount: 2
Back
Fore
SplineSet
389 80 m 2,0,1
 383 47 383 47 355.5 23.5 c 128,-1,2
 328 0 328 0 295 0 c 256,3,4
 262 0 262 0 242.5 23.5 c 128,-1,5
 223 47 223 47 229 80 c 2,6,-1
 300 480 l 1,7,-1
 140 480 l 2,8,9
 107 480 107 480 88 504 c 0,10,11
 73 521 73 521 73 545 c 0,12,13
 73 552 73 552 74 560 c 0,14,15
 80 593 80 593 107.5 616.5 c 128,-1,16
 135 640 135 640 168 640 c 2,17,-1
 328 640 l 1,18,-1
 384 960 l 1,19,-1
 224 960 l 2,20,21
 191 960 191 960 172 983.5 c 128,-1,22
 153 1007 153 1007 158 1040 c 0,23,24
 164 1073 164 1073 192 1096.5 c 128,-1,25
 220 1120 220 1120 253 1120 c 2,26,-1
 413 1120 l 1,27,-1
 483 1520 l 2,28,29
 489 1553 489 1553 516.5 1576.5 c 128,-1,30
 544 1600 544 1600 577 1600 c 256,31,32
 610 1600 610 1600 629.5 1576.5 c 128,-1,33
 649 1553 649 1553 643 1520 c 2,34,-1
 573 1120 l 1,35,-1
 813 1120 l 1,36,-1
 883 1520 l 2,37,38
 889 1553 889 1553 916.5 1576.5 c 128,-1,39
 944 1600 944 1600 977 1600 c 256,40,41
 1010 1600 1010 1600 1029.5 1576.5 c 128,-1,42
 1049 1553 1049 1553 1043 1520 c 2,43,-1
 973 1120 l 1,44,-1
 1133 1120 l 2,45,46
 1166 1120 1166 1120 1185 1097 c 0,47,48
 1199 1079 1199 1079 1199 1055 c 0,49,50
 1199 1048 1199 1048 1198 1040 c 0,51,52
 1193 1007 1193 1007 1165 983.5 c 128,-1,53
 1137 960 1137 960 1104 960 c 2,54,-1
 944 960 l 1,55,-1
 888 640 l 1,56,-1
 1048 640 l 2,57,58
 1081 640 1081 640 1100.5 616.5 c 128,-1,59
 1120 593 1120 593 1114 560 c 256,60,61
 1108 527 1108 527 1080.5 503.5 c 128,-1,62
 1053 480 1053 480 1020 480 c 2,63,-1
 860 480 l 1,64,-1
 789 80 l 2,65,66
 783 47 783 47 755.5 23.5 c 128,-1,67
 728 0 728 0 695 0 c 256,68,69
 662 0 662 0 642.5 23.5 c 128,-1,70
 623 47 623 47 629 80 c 2,71,-1
 700 480 l 1,72,-1
 460 480 l 1,73,-1
 389 80 l 2,0,1
544 960 m 1,74,-1
 488 640 l 1,75,-1
 728 640 l 1,76,-1
 784 960 l 1,77,-1
 544 960 l 1,74,-1
EndSplineSet
EndChar

StartChar: dollar
Encoding: 36 36 7
Width: 1060
Flags: W
LayerCount: 2
Back
Fore
SplineSet
480 1 m 1,0,1
 470 1 470 1 460 2 c 0,2,3
 262 18 262 18 134 170 c 0,4,5
 113 193 113 193 96 219 c 0,6,7
 80 240 80 240 80 267 c 0,8,9
 80 300 80 300 103.5 323.5 c 128,-1,10
 127 347 127 347 160 347 c 0,11,12
 203 347 203 347 228 310 c 0,13,14
 240 291 240 291 256 274 c 0,15,16
 341 172 341 172 480 161 c 1,17,-1
 480 805 l 1,18,19
 346 831 346 831 254 939 c 0,20,21
 147 1065 147 1065 160 1231 c 0,22,23
 174 1396 174 1396 300 1503 c 0,24,25
 382 1572 382 1572 480 1591 c 1,26,-1
 480 1680 l 2,27,28
 480 1713 480 1713 503.5 1736.5 c 128,-1,29
 527 1760 527 1760 560 1760 c 256,30,31
 593 1760 593 1760 616.5 1736.5 c 128,-1,32
 640 1713 640 1713 640 1680 c 2,33,-1
 640 1590 l 1,34,35
 773 1564 773 1564 864 1457 c 0,36,37
 886 1431 886 1431 903 1403 c 0,38,39
 915 1384 915 1384 915 1360 c 0,40,41
 915 1327 915 1327 891.5 1303.5 c 128,-1,42
 868 1280 868 1280 835 1280 c 256,43,44
 802 1280 802 1280 779 1304 c 0,45,46
 770 1312 770 1312 765 1321 c 0,47,48
 755 1337 755 1337 742 1353 c 0,49,50
 698 1404 698 1404 640 1424 c 1,51,-1
 640 940 l 1,52,53
 772 902 772 902 867 791 c 0,54,55
 980 657 980 657 980 487 c 0,56,57
 980 464 980 464 978 441 c 0,58,59
 962 243 962 243 811 115 c 0,60,61
 732 48 732 48 640 20 c 1,62,-1
 640 -80 l 2,63,64
 640 -113 640 -113 616.5 -136.5 c 128,-1,65
 593 -160 593 -160 560 -160 c 256,66,67
 527 -160 527 -160 503.5 -136.5 c 128,-1,68
 480 -113 480 -113 480 -80 c 2,69,-1
 480 1 l 1,0,1
480 1425 m 1,70,71
 439 1411 439 1411 404 1381 c 0,72,73
 328 1316 328 1316 320 1218 c 0,74,75
 312 1119 312 1119 377 1043 c 0,76,77
 420 991 420 991 480 971 c 1,78,-1
 480 1425 l 1,70,71
640 192 m 1,79,80
 675 209 675 209 707 237 c 0,81,82
 808 322 808 322 819 454 c 0,83,84
 830 587 830 587 745 688 c 0,85,86
 699 741 699 741 640 769 c 1,87,-1
 640 192 l 1,79,80
EndSplineSet
EndChar

StartChar: percent
Encoding: 37 37 8
Width: 1760
Flags: W
LayerCount: 2
Back
Fore
SplineSet
880 1200 m 256,0,1
 880 1034 880 1034 763 917 c 128,-1,2
 646 800 646 800 480 800 c 256,3,4
 314 800 314 800 197 917 c 128,-1,5
 80 1034 80 1034 80 1200 c 256,6,7
 80 1366 80 1366 197 1483 c 128,-1,8
 314 1600 314 1600 480 1600 c 256,9,10
 646 1600 646 1600 763 1483 c 128,-1,11
 880 1366 880 1366 880 1200 c 256,0,1
880 400 m 256,12,13
 880 566 880 566 997 683 c 128,-1,14
 1114 800 1114 800 1280 800 c 256,15,16
 1446 800 1446 800 1563 683 c 128,-1,17
 1680 566 1680 566 1680 400 c 256,18,19
 1680 234 1680 234 1563 117 c 128,-1,20
 1446 0 1446 0 1280 0 c 256,21,22
 1114 0 1114 0 997 117 c 128,-1,23
 880 234 880 234 880 400 c 256,12,13
480 1440 m 256,24,25
 381 1440 381 1440 310.5 1369.5 c 128,-1,26
 240 1299 240 1299 240 1200 c 256,27,28
 240 1101 240 1101 310.5 1030.5 c 128,-1,29
 381 960 381 960 480 960 c 256,30,31
 579 960 579 960 649.5 1030.5 c 128,-1,32
 720 1101 720 1101 720 1200 c 256,33,34
 720 1299 720 1299 649.5 1369.5 c 128,-1,35
 579 1440 579 1440 480 1440 c 256,24,25
1280 640 m 256,36,37
 1181 640 1181 640 1110.5 569.5 c 128,-1,38
 1040 499 1040 499 1040 400 c 256,39,40
 1040 301 1040 301 1110.5 230.5 c 128,-1,41
 1181 160 1181 160 1280 160 c 256,42,43
 1379 160 1379 160 1449.5 230.5 c 128,-1,44
 1520 301 1520 301 1520 400 c 256,45,46
 1520 499 1520 499 1449.5 569.5 c 128,-1,47
 1379 640 1379 640 1280 640 c 256,36,37
320 0 m 256,48,49
 287 0 287 0 263.5 23.5 c 128,-1,50
 240 47 240 47 240 80 c 0,51,52
 240 111 240 111 260 134 c 2,53,-1
 1375 1567 l 2,54,55
 1403 1600 1403 1600 1440 1600 c 0,56,57
 1473 1600 1473 1600 1496.5 1576.5 c 128,-1,58
 1520 1553 1520 1553 1520 1520 c 0,59,60
 1520 1493 1520 1493 1504 1472 c 2,61,-1
 381 27 l 1,62,63
 353 0 353 0 320 0 c 256,48,49
EndSplineSet
EndChar

StartChar: ampersand
Encoding: 38 38 9
Width: 1440
Flags: W
LayerCount: 2
Back
Fore
SplineSet
378 1099 m 2,0,-1
 502 974 l 1,1,-1
 621 1068 l 2,2,3
 720 1147 720 1147 720 1240 c 0,4,5
 720 1323 720 1323 661.5 1381.5 c 128,-1,6
 603 1440 603 1440 520 1440 c 256,7,8
 437 1440 437 1440 378.5 1381.5 c 128,-1,9
 320 1323 320 1323 320 1240 c 256,10,11
 320 1157 320 1157 378 1099 c 2,0,-1
857 391 m 1,12,-1
 485 764 l 1,13,-1
 372 678 l 2,14,15
 240 576 240 576 240 460 c 0,16,17
 240 324 240 324 322 242 c 128,-1,18
 404 160 404 160 520 160 c 256,19,20
 636 160 636 160 718 242 c 1,21,-1
 857 391 l 1,12,-1
613 863 m 1,22,-1
 967 508 l 1,23,-1
 1144 697 l 2,24,25
 1167 720 1167 720 1200 720 c 256,26,27
 1233 720 1233 720 1256.5 696.5 c 128,-1,28
 1280 673 1280 673 1280 640 c 0,29,30
 1280 609 1280 609 1260 586 c 2,31,-1
 1080 395 l 1,32,-1
 1338 134 l 2,33,34
 1360 112 1360 112 1360 80 c 0,35,36
 1360 47 1360 47 1336.5 23.5 c 128,-1,37
 1313 0 1313 0 1280 0 c 0,38,39
 1248 0 1248 0 1224 22 c 2,40,-1
 970 277 l 1,41,-1
 831 129 l 1,42,43
 702 0 702 0 520 0 c 256,44,45
 338 0 338 0 209 129 c 128,-1,46
 80 258 80 258 80 460 c 0,47,48
 80 642 80 642 269 791 c 2,49,-1
 375 874 l 1,50,-1
 265 985 l 2,51,52
 160 1091 160 1091 160 1240 c 256,53,54
 160 1389 160 1389 265.5 1494.5 c 128,-1,55
 371 1600 371 1600 520 1600 c 256,56,57
 669 1600 669 1600 774.5 1494.5 c 128,-1,58
 880 1389 880 1389 880 1240 c 0,59,60
 880 1081 880 1081 734 955 c 1,61,-1
 613 863 l 1,22,-1
EndSplineSet
EndChar

StartChar: quotesingle
Encoding: 39 39 10
Width: 320
Flags: W
LayerCount: 2
Back
Fore
SplineSet
220 1220 m 2,0,1
 220 1195 220 1195 202.5 1177.5 c 128,-1,2
 185 1160 185 1160 160 1160 c 256,3,4
 135 1160 135 1160 117.5 1177.5 c 128,-1,5
 100 1195 100 1195 100 1220 c 2,6,-1
 80 1512 l 1,7,-1
 80 1520 l 2,8,9
 80 1553 80 1553 103.5 1576.5 c 128,-1,10
 127 1600 127 1600 160 1600 c 256,11,12
 193 1600 193 1600 216.5 1576.5 c 128,-1,13
 240 1553 240 1553 240 1520 c 2,14,-1
 240 1512 l 1,15,-1
 220 1220 l 2,0,1
EndSplineSet
EndChar

StartChar: parenleft
Encoding: 40 40 11
Width: 560
Flags: W
LayerCount: 2
Back
Fore
SplineSet
323 1547 m 0,0,1
 329 1563 329 1563 342 1577 c 0,2,3
 366 1600 366 1600 399 1600 c 256,4,5
 432 1600 432 1600 455.5 1576.5 c 128,-1,6
 479 1553 479 1553 479 1520 c 0,7,8
 477 1496 477 1496 466 1477 c 0,9,10
 238 1019 238 1019 238 561 c 0,11,12
 238 101 238 101 468 -359 c 0,13,14
 479 -377 479 -377 479 -400 c 0,15,16
 479 -433 479 -433 455.5 -456.5 c 128,-1,17
 432 -480 432 -480 399 -480 c 256,18,19
 366 -480 366 -480 342 -456 c 0,20,21
 330 -442 330 -442 323 -426 c 0,22,23
 80 69 80 69 80 562 c 256,24,25
 80 1055 80 1055 323 1547 c 0,0,1
EndSplineSet
EndChar

StartChar: parenright
Encoding: 41 41 12
Width: 560
Flags: W
LayerCount: 2
Back
Fore
SplineSet
236 1547 m 0,0,1
 480 1055 480 1055 480 562 c 256,2,3
 480 69 480 69 236 -426 c 0,4,5
 228 -442 228 -442 217 -456 c 0,6,7
 193 -480 193 -480 160 -480 c 256,8,9
 127 -480 127 -480 103.5 -456.5 c 128,-1,10
 80 -433 80 -433 80 -400 c 0,11,12
 80 -377 80 -377 91 -359 c 0,13,14
 321 101 321 101 321 561 c 0,15,16
 321 1019 321 1019 93 1477 c 0,17,18
 82 1496 82 1496 80 1520 c 0,19,20
 80 1553 80 1553 103.5 1576.5 c 128,-1,21
 127 1600 127 1600 160 1600 c 256,22,23
 193 1600 193 1600 217 1577 c 0,24,25
 230 1563 230 1563 236 1547 c 0,0,1
EndSplineSet
EndChar

StartChar: asterisk
Encoding: 42 42 13
Width: 780
Flags: W
LayerCount: 2
Back
Fore
SplineSet
361 1271 m 1,0,-1
 166 1279 l 2,1,2
 152 1280 152 1280 139 1284 c 0,3,4
 108 1295 108 1295 94 1325 c 0,5,6
 85 1342 85 1342 85 1360 c 0,7,8
 85 1373 85 1373 90 1386 c 0,9,10
 101 1418 101 1418 131 1432 c 128,-1,11
 161 1446 161 1446 192 1435 c 0,12,13
 206 1430 206 1430 216 1422 c 2,14,-1
 373 1305 l 1,15,-1
 315 1493 l 2,16,17
 311 1506 311 1506 311 1520 c 0,18,19
 311 1553 311 1553 334.5 1576.5 c 128,-1,20
 358 1600 358 1600 391 1600 c 256,21,22
 424 1600 424 1600 447.5 1576.5 c 128,-1,23
 471 1553 471 1553 471 1520 c 0,24,25
 471 1506 471 1506 467 1493 c 2,26,-1
 409 1304 l 1,27,-1
 567 1422 l 2,28,29
 578 1430 578 1430 591 1435 c 0,30,31
 622 1446 622 1446 652 1432 c 128,-1,32
 682 1418 682 1418 693 1386 c 0,33,34
 698 1372 698 1372 698 1359 c 0,35,36
 698 1342 698 1342 690 1325 c 0,37,38
 676 1295 676 1295 645 1284 c 0,39,40
 631 1280 631 1280 618 1279 c 2,41,-1
 422 1271 l 1,42,-1
 583 1159 l 2,43,44
 594 1152 594 1152 603 1140 c 0,45,46
 623 1114 623 1114 619 1081 c 128,-1,47
 615 1048 615 1048 589 1028 c 0,48,49
 567 1011 567 1011 530 1012 c 0,50,51
 497 1016 497 1016 477 1042 c 0,52,53
 468 1053 468 1053 464 1066 c 2,54,-1
 392 1247 l 1,55,-1
 319 1066 l 2,56,57
 315 1053 315 1053 306 1042 c 0,58,59
 286 1011 286 1011 242 1011 c 0,60,61
 216 1011 216 1011 194 1028 c 0,62,63
 168 1048 168 1048 164 1081 c 128,-1,64
 160 1114 160 1114 180 1140 c 0,65,66
 189 1152 189 1152 200 1159 c 2,67,-1
 361 1271 l 1,0,-1
EndSplineSet
EndChar

StartChar: plus
Encoding: 43 43 14
Width: 1120
Flags: W
LayerCount: 2
Back
Fore
SplineSet
480 1200 m 2,0,1
 480 1233 480 1233 503.5 1256.5 c 128,-1,2
 527 1280 527 1280 560 1280 c 256,3,4
 593 1280 593 1280 616.5 1256.5 c 128,-1,5
 640 1233 640 1233 640 1200 c 2,6,-1
 640 880 l 1,7,-1
 960 880 l 2,8,9
 993 880 993 880 1016.5 856.5 c 128,-1,10
 1040 833 1040 833 1040 800 c 256,11,12
 1040 767 1040 767 1016.5 743.5 c 128,-1,13
 993 720 993 720 960 720 c 2,14,-1
 640 720 l 1,15,-1
 640 400 l 2,16,17
 640 367 640 367 616.5 343.5 c 128,-1,18
 593 320 593 320 560 320 c 256,19,20
 527 320 527 320 503.5 343.5 c 128,-1,21
 480 367 480 367 480 400 c 2,22,-1
 480 720 l 1,23,-1
 160 720 l 2,24,25
 127 720 127 720 103.5 743.5 c 128,-1,26
 80 767 80 767 80 800 c 256,27,28
 80 833 80 833 103.5 856.5 c 128,-1,29
 127 880 127 880 160 880 c 2,30,-1
 480 880 l 1,31,-1
 480 1200 l 2,0,1
EndSplineSet
EndChar

StartChar: comma
Encoding: 44 44 15
Width: 400
Flags: W
LayerCount: 2
Back
Fore
SplineSet
115 35 m 0,0,1
 80 70 80 70 80 120 c 256,2,3
 80 170 80 170 115 205 c 128,-1,4
 150 240 150 240 200 240 c 256,5,6
 250 240 250 240 285 205 c 128,-1,7
 320 170 320 170 320 120 c 0,8,9
 320 -76 320 -76 233 -208 c 0,10,11
 215 -240 215 -240 180 -240 c 0,12,13
 155 -240 155 -240 137.5 -222.5 c 128,-1,14
 120 -205 120 -205 120 -180 c 256,15,16
 120 -155 120 -155 137 -138 c 0,17,18
 207 -60 207 -60 115 35 c 0,0,1
EndSplineSet
EndChar

StartChar: hyphen
Encoding: 45 45 16
AltUni2: 0000ad.ffffffff.0
Width: 800
Flags: W
LayerCount: 2
Back
Fore
SplineSet
160 480 m 2,0,1
 127 480 127 480 103.5 503.5 c 128,-1,2
 80 527 80 527 80 560 c 256,3,4
 80 593 80 593 103.5 616.5 c 128,-1,5
 127 640 127 640 160 640 c 2,6,-1
 640 640 l 2,7,8
 673 640 673 640 696.5 616.5 c 128,-1,9
 720 593 720 593 720 560 c 256,10,11
 720 527 720 527 696.5 503.5 c 128,-1,12
 673 480 673 480 640 480 c 2,13,-1
 160 480 l 2,0,1
EndSplineSet
EndChar

StartChar: period
Encoding: 46 46 17
Width: 400
Flags: W
LayerCount: 2
Back
Fore
SplineSet
320 120 m 256,0,1
 320 70 320 70 285 35 c 128,-1,2
 250 0 250 0 200 0 c 256,3,4
 150 0 150 0 115 35 c 128,-1,5
 80 70 80 70 80 120 c 256,6,7
 80 170 80 170 115 205 c 128,-1,8
 150 240 150 240 200 240 c 256,9,10
 250 240 250 240 285 205 c 128,-1,11
 320 170 320 170 320 120 c 256,0,1
EndSplineSet
EndChar

StartChar: slash
Encoding: 47 47 18
Width: 960
Flags: W
LayerCount: 2
Back
Fore
SplineSet
744 1577 m 0,0,1
 767 1600 767 1600 800 1600 c 256,2,3
 833 1600 833 1600 856.5 1576.5 c 128,-1,4
 880 1553 880 1553 880 1520 c 0,5,6
 880 1502 880 1502 873 1486 c 2,7,-1
 233 -114 l 2,8,9
 227 -126 227 -126 217 -136 c 0,10,11
 193 -160 193 -160 160 -160 c 256,12,13
 127 -160 127 -160 103.5 -136.5 c 128,-1,14
 80 -113 80 -113 80 -80 c 0,15,16
 80 -62 80 -62 87 -46 c 2,17,-1
 727 1554 l 2,18,19
 733 1566 733 1566 744 1577 c 0,0,1
EndSplineSet
EndChar

StartChar: zero
Encoding: 48 48 19
Width: 1120
Flags: W
LayerCount: 2
Back
Fore
SplineSet
80 800 m 256,0,1
 80 1280 80 1280 277 1483 c 0,2,3
 394 1600 394 1600 560 1600 c 256,4,5
 726 1600 726 1600 843 1483 c 0,6,7
 1040 1280 1040 1280 1040 800 c 256,8,9
 1040 320 1040 320 843 117 c 0,10,11
 726 0 726 0 560 0 c 256,12,13
 394 0 394 0 277 117 c 0,14,15
 80 320 80 320 80 800 c 256,0,1
560 1440 m 256,16,17
 461 1440 461 1440 390 1369 c 1,18,19
 240 1200 240 1200 240 800 c 256,20,21
 240 400 240 400 390 231 c 1,22,23
 461 160 461 160 560 160 c 256,24,25
 659 160 659 160 730 231 c 1,26,27
 880 400 880 400 880 800 c 256,28,29
 880 1200 880 1200 730 1369 c 1,30,31
 659 1440 659 1440 560 1440 c 256,16,17
EndSplineSet
EndChar

StartChar: one
Encoding: 49 49 20
Width: 560
Flags: W
LayerCount: 2
Back
Fore
SplineSet
480 80 m 2,0,1
 480 47 480 47 456.5 23.5 c 128,-1,2
 433 0 433 0 400 0 c 256,3,4
 367 0 367 0 343.5 23.5 c 128,-1,5
 320 47 320 47 320 80 c 2,6,-1
 320 1409 l 1,7,-1
 191 1366 l 2,8,9
 176 1360 176 1360 160 1360 c 0,10,11
 127 1360 127 1360 103.5 1383.5 c 128,-1,12
 80 1407 80 1407 80 1440 c 256,13,14
 80 1473 80 1473 104 1497 c 0,15,16
 116 1509 116 1509 131 1515 c 2,17,-1
 371 1595 l 2,18,19
 384 1600 384 1600 400 1600 c 0,20,21
 433 1600 433 1600 456.5 1576.5 c 128,-1,22
 480 1553 480 1553 480 1520 c 2,23,-1
 480 80 l 2,0,1
EndSplineSet
EndChar

StartChar: two
Encoding: 50 50 21
Width: 1120
Flags: W
LayerCount: 2
Back
Fore
SplineSet
960 160 m 2,0,1
 993 160 993 160 1016.5 136.5 c 128,-1,2
 1040 113 1040 113 1040 80 c 256,3,4
 1040 47 1040 47 1016.5 23.5 c 128,-1,5
 993 0 993 0 960 0 c 2,6,-1
 160 0 l 2,7,8
 127 0 127 0 103.5 23.5 c 128,-1,9
 80 47 80 47 80 80 c 256,10,11
 80 113 80 113 103 137 c 2,12,-1
 786 893 l 1,13,14
 880 987 880 987 880 1120 c 256,15,16
 880 1253 880 1253 786.5 1346.5 c 128,-1,17
 693 1440 693 1440 560 1440 c 256,18,19
 427 1440 427 1440 333.5 1346.5 c 128,-1,20
 240 1253 240 1253 240 1120 c 0,21,22
 240 1087 240 1087 216.5 1063.5 c 128,-1,23
 193 1040 193 1040 160 1040 c 256,24,25
 127 1040 127 1040 103.5 1063.5 c 128,-1,26
 80 1087 80 1087 80 1120 c 0,27,28
 80 1319 80 1319 220.5 1459.5 c 128,-1,29
 361 1600 361 1600 560 1600 c 256,30,31
 759 1600 759 1600 899.5 1459.5 c 128,-1,32
 1040 1319 1040 1319 1040 1120 c 256,33,34
 1040 921 1040 921 899 780 c 1,35,-1
 341 160 l 1,36,-1
 960 160 l 2,0,1
EndSplineSet
EndChar

StartChar: three
Encoding: 51 51 22
Width: 1120
Flags: W
LayerCount: 2
Back
Fore
SplineSet
560 800 m 0,0,1
 527 800 527 800 503.5 823.5 c 128,-1,2
 480 847 480 847 480 880 c 256,3,4
 480 913 480 913 503.5 936.5 c 128,-1,5
 527 960 527 960 560 960 c 0,6,7
 659 960 659 960 729.5 1030.5 c 128,-1,8
 800 1101 800 1101 800 1200 c 256,9,10
 800 1299 800 1299 729.5 1369.5 c 128,-1,11
 659 1440 659 1440 560 1440 c 256,12,13
 461 1440 461 1440 390.5 1369.5 c 128,-1,14
 320 1299 320 1299 320 1200 c 0,15,16
 320 1167 320 1167 296.5 1143.5 c 128,-1,17
 273 1120 273 1120 240 1120 c 256,18,19
 207 1120 207 1120 183.5 1143.5 c 128,-1,20
 160 1167 160 1167 160 1200 c 0,21,22
 160 1366 160 1366 277 1483 c 128,-1,23
 394 1600 394 1600 560 1600 c 256,24,25
 726 1600 726 1600 843 1483 c 128,-1,26
 960 1366 960 1366 960 1200 c 0,27,28
 960 1024 960 1024 813 889 c 1,29,30
 859 860 859 860 900 820 c 0,31,32
 1040 679 1040 679 1040 480 c 256,33,34
 1040 281 1040 281 899.5 140.5 c 128,-1,35
 759 0 759 0 560 0 c 256,36,37
 361 0 361 0 220.5 140.5 c 128,-1,38
 80 281 80 281 80 480 c 0,39,40
 80 513 80 513 103.5 536.5 c 128,-1,41
 127 560 127 560 160 560 c 256,42,43
 193 560 193 560 216.5 536.5 c 128,-1,44
 240 513 240 513 240 480 c 0,45,46
 240 347 240 347 333.5 253.5 c 128,-1,47
 427 160 427 160 560 160 c 256,48,49
 693 160 693 160 786.5 253.5 c 128,-1,50
 880 347 880 347 880 480 c 256,51,52
 880 613 880 613 786.5 706.5 c 128,-1,53
 693 800 693 800 560 800 c 0,0,1
EndSplineSet
EndChar

StartChar: four
Encoding: 52 52 23
Width: 1280
Flags: W
LayerCount: 2
Back
Fore
SplineSet
800 560 m 1,0,-1
 800 1264 l 1,1,-1
 313 560 l 1,2,-1
 800 560 l 1,0,-1
160 400 m 2,3,4
 127 400 127 400 103.5 423.5 c 128,-1,5
 80 447 80 447 80 480 c 0,6,7
 80 506 80 506 95 527 c 2,8,-1
 815 1567 l 2,9,10
 837 1600 837 1600 880 1600 c 0,11,12
 913 1600 913 1600 936.5 1576.5 c 128,-1,13
 960 1553 960 1553 960 1520 c 2,14,-1
 960 560 l 1,15,-1
 1120 560 l 2,16,17
 1153 560 1153 560 1176.5 536.5 c 128,-1,18
 1200 513 1200 513 1200 480 c 256,19,20
 1200 447 1200 447 1176.5 423.5 c 128,-1,21
 1153 400 1153 400 1120 400 c 2,22,-1
 960 400 l 1,23,-1
 960 80 l 2,24,25
 960 47 960 47 936.5 23.5 c 128,-1,26
 913 0 913 0 880 0 c 256,27,28
 847 0 847 0 823.5 23.5 c 128,-1,29
 800 47 800 47 800 80 c 2,30,-1
 800 400 l 1,31,-1
 160 400 l 2,3,4
EndSplineSet
EndChar

StartChar: five
Encoding: 53 53 24
Width: 1200
Flags: W
LayerCount: 2
Back
Fore
SplineSet
960 1600 m 2,0,1
 993 1600 993 1600 1016.5 1576.5 c 128,-1,2
 1040 1553 1040 1553 1040 1520 c 256,3,4
 1040 1487 1040 1487 1016.5 1463.5 c 128,-1,5
 993 1440 993 1440 960 1440 c 2,6,-1
 320 1440 l 1,7,-1
 320 1040 l 1,8,-1
 600 1040 l 2,9,10
 815 1040 815 1040 967.5 887.5 c 128,-1,11
 1120 735 1120 735 1120 520 c 256,12,13
 1120 305 1120 305 967.5 152.5 c 128,-1,14
 815 0 815 0 600 0 c 256,15,16
 385 0 385 0 232.5 152.5 c 128,-1,17
 80 305 80 305 80 520 c 0,18,19
 80 553 80 553 103.5 576.5 c 128,-1,20
 127 600 127 600 160 600 c 256,21,22
 193 600 193 600 216.5 576.5 c 128,-1,23
 240 553 240 553 240 520 c 0,24,25
 240 371 240 371 345.5 265.5 c 128,-1,26
 451 160 451 160 600 160 c 256,27,28
 749 160 749 160 854.5 265.5 c 128,-1,29
 960 371 960 371 960 520 c 256,30,31
 960 669 960 669 854.5 774.5 c 128,-1,32
 749 880 749 880 600 880 c 2,33,-1
 240 880 l 2,34,35
 207 880 207 880 183.5 903.5 c 128,-1,36
 160 927 160 927 160 960 c 2,37,-1
 160 1520 l 2,38,39
 160 1553 160 1553 183.5 1576.5 c 128,-1,40
 207 1600 207 1600 240 1600 c 2,41,-1
 960 1600 l 2,0,1
EndSplineSet
EndChar

StartChar: six
Encoding: 54 54 25
Width: 1120
Flags: W
LayerCount: 2
Back
Fore
SplineSet
471 952 m 1,0,1
 514 960 514 960 560 960 c 0,2,3
 759 960 759 960 899.5 819.5 c 128,-1,4
 1040 679 1040 679 1040 480 c 256,5,6
 1040 281 1040 281 899.5 140.5 c 128,-1,7
 759 0 759 0 560 0 c 256,8,9
 361 0 361 0 220.5 140.5 c 128,-1,10
 80 281 80 281 80 480 c 0,11,12
 80 627 80 627 157 742 c 1,13,-1
 648 1556 l 2,14,15
 654 1567 654 1567 664 1577 c 0,16,17
 687 1600 687 1600 720 1600 c 256,18,19
 753 1600 753 1600 776.5 1576.5 c 128,-1,20
 800 1553 800 1553 800 1520 c 0,21,22
 800 1497 800 1497 789 1479 c 2,23,-1
 471 952 l 1,0,1
880 480 m 256,24,25
 880 613 880 613 786.5 706.5 c 128,-1,26
 693 800 693 800 560 800 c 256,27,28
 427 800 427 800 333.5 706.5 c 128,-1,29
 240 613 240 613 240 480 c 256,30,31
 240 347 240 347 333.5 253.5 c 128,-1,32
 427 160 427 160 560 160 c 256,33,34
 693 160 693 160 786.5 253.5 c 128,-1,35
 880 347 880 347 880 480 c 256,24,25
EndSplineSet
EndChar

StartChar: seven
Encoding: 55 55 26
Width: 1120
Flags: W
LayerCount: 2
Back
Fore
SplineSet
217 24 m 0,0,1
 193 0 193 0 160 0 c 256,2,3
 127 0 127 0 103.5 23.5 c 128,-1,4
 80 47 80 47 80 80 c 0,5,6
 80 104 80 104 96 128 c 2,7,-1
 825 1440 l 1,8,-1
 160 1440 l 2,9,10
 127 1440 127 1440 103.5 1463.5 c 128,-1,11
 80 1487 80 1487 80 1520 c 256,12,13
 80 1553 80 1553 103.5 1576.5 c 128,-1,14
 127 1600 127 1600 160 1600 c 2,15,-1
 960 1600 l 2,16,17
 993 1600 993 1600 1016.5 1576.5 c 128,-1,18
 1040 1553 1040 1553 1040 1520 c 0,19,20
 1040 1496 1040 1496 1028 1477 c 2,21,-1
 232 45 l 2,22,23
 225 32 225 32 217 24 c 0,0,1
EndSplineSet
EndChar

StartChar: eight
Encoding: 56 56 27
Width: 1120
Flags: W
LayerCount: 2
Back
Fore
SplineSet
560 1440 m 256,0,1
 461 1440 461 1440 390.5 1369.5 c 128,-1,2
 320 1299 320 1299 320 1200 c 256,3,4
 320 1101 320 1101 390.5 1030.5 c 128,-1,5
 461 960 461 960 560 960 c 256,6,7
 659 960 659 960 729.5 1030.5 c 128,-1,8
 800 1101 800 1101 800 1200 c 256,9,10
 800 1299 800 1299 729.5 1369.5 c 128,-1,11
 659 1440 659 1440 560 1440 c 256,0,1
560 800 m 256,12,13
 427 800 427 800 333.5 706.5 c 128,-1,14
 240 613 240 613 240 480 c 256,15,16
 240 347 240 347 333.5 253.5 c 128,-1,17
 427 160 427 160 560 160 c 256,18,19
 693 160 693 160 786.5 253.5 c 128,-1,20
 880 347 880 347 880 480 c 256,21,22
 880 613 880 613 786.5 706.5 c 128,-1,23
 693 800 693 800 560 800 c 256,12,13
307 889 m 1,24,25
 292 902 292 902 277 917 c 0,26,27
 160 1034 160 1034 160 1200 c 256,28,29
 160 1366 160 1366 277 1483 c 128,-1,30
 394 1600 394 1600 560 1600 c 256,31,32
 726 1600 726 1600 843 1483 c 128,-1,33
 960 1366 960 1366 960 1200 c 256,34,35
 960 1034 960 1034 843 917 c 0,36,37
 828 902 828 902 813 889 c 1,38,39
 859 860 859 860 900 820 c 0,40,41
 1040 679 1040 679 1040 480 c 256,42,43
 1040 281 1040 281 899.5 140.5 c 128,-1,44
 759 0 759 0 560 0 c 256,45,46
 361 0 361 0 220.5 140.5 c 128,-1,47
 80 281 80 281 80 480 c 256,48,49
 80 679 80 679 221 820 c 0,50,51
 261 860 261 860 307 889 c 1,24,25
EndSplineSet
EndChar

StartChar: nine
Encoding: 57 57 28
Width: 1120
Flags: W
LayerCount: 2
Back
Fore
SplineSet
649 648 m 1,0,1
 606 640 606 640 560 640 c 0,2,3
 361 640 361 640 220.5 780.5 c 128,-1,4
 80 921 80 921 80 1120 c 256,5,6
 80 1319 80 1319 220.5 1459.5 c 128,-1,7
 361 1600 361 1600 560 1600 c 256,8,9
 759 1600 759 1600 899.5 1459.5 c 128,-1,10
 1040 1319 1040 1319 1040 1120 c 0,11,12
 1040 973 1040 973 963 858 c 1,13,-1
 472 44 l 2,14,15
 466 33 466 33 457 24 c 0,16,17
 433 0 433 0 400 0 c 256,18,19
 367 0 367 0 343.5 23.5 c 128,-1,20
 320 47 320 47 320 80 c 0,21,22
 320 103 320 103 331 121 c 2,23,-1
 649 648 l 1,0,1
240 1120 m 256,24,25
 240 987 240 987 333.5 893.5 c 128,-1,26
 427 800 427 800 560 800 c 256,27,28
 693 800 693 800 786.5 893.5 c 128,-1,29
 880 987 880 987 880 1120 c 256,30,31
 880 1253 880 1253 786.5 1346.5 c 128,-1,32
 693 1440 693 1440 560 1440 c 256,33,34
 427 1440 427 1440 333.5 1346.5 c 128,-1,35
 240 1253 240 1253 240 1120 c 256,24,25
EndSplineSet
EndChar

StartChar: colon
Encoding: 58 58 29
Width: 400
Flags: W
LayerCount: 2
Back
Fore
SplineSet
320 120 m 256,0,1
 320 70 320 70 285 35 c 128,-1,2
 250 0 250 0 200 0 c 256,3,4
 150 0 150 0 115 35 c 128,-1,5
 80 70 80 70 80 120 c 256,6,7
 80 170 80 170 115 205 c 128,-1,8
 150 240 150 240 200 240 c 256,9,10
 250 240 250 240 285 205 c 128,-1,11
 320 170 320 170 320 120 c 256,0,1
320 1001 m 256,12,13
 320 951 320 951 285 916 c 128,-1,14
 250 881 250 881 200 881 c 256,15,16
 150 881 150 881 115 916 c 128,-1,17
 80 951 80 951 80 1001 c 256,18,19
 80 1051 80 1051 115 1086 c 128,-1,20
 150 1121 150 1121 200 1121 c 256,21,22
 250 1121 250 1121 285 1086 c 128,-1,23
 320 1051 320 1051 320 1001 c 256,12,13
EndSplineSet
EndChar

StartChar: semicolon
Encoding: 59 59 30
AltUni2: 00037e.ffffffff.0
Width: 400
Flags: W
LayerCount: 2
Back
Fore
SplineSet
320 1001 m 256,0,1
 320 951 320 951 285 916 c 128,-1,2
 250 881 250 881 200 881 c 256,3,4
 150 881 150 881 115 916 c 128,-1,5
 80 951 80 951 80 1001 c 256,6,7
 80 1051 80 1051 115 1086 c 128,-1,8
 150 1121 150 1121 200 1121 c 256,9,10
 250 1121 250 1121 285 1086 c 128,-1,11
 320 1051 320 1051 320 1001 c 256,0,1
115 35 m 0,12,13
 80 70 80 70 80 120 c 256,14,15
 80 170 80 170 115 205 c 128,-1,16
 150 240 150 240 200 240 c 256,17,18
 250 240 250 240 285 205 c 128,-1,19
 320 170 320 170 320 120 c 0,20,21
 320 -76 320 -76 233 -208 c 0,22,23
 211 -240 211 -240 180 -240 c 0,24,25
 155 -240 155 -240 137.5 -222.5 c 128,-1,26
 120 -205 120 -205 120 -180 c 256,27,28
 120 -155 120 -155 137 -138 c 0,29,30
 207 -60 207 -60 115 35 c 0,12,13
EndSplineSet
EndChar

StartChar: less
Encoding: 60 60 31
Width: 1120
Flags: W
LayerCount: 2
Back
Fore
SplineSet
124 792 m 2,0,-1
 920 1270 l 2,1,2
 938 1280 938 1280 960 1280 c 0,3,4
 993 1280 993 1280 1016.5 1256.5 c 128,-1,5
 1040 1233 1040 1233 1040 1200 c 0,6,7
 1040 1157 1040 1157 999 1130 c 2,8,-1
 315 720 l 1,9,-1
 999 310 l 2,10,11
 1040 283 1040 283 1040 240 c 0,12,13
 1040 207 1040 207 1016.5 183.5 c 128,-1,14
 993 160 993 160 960 160 c 0,15,16
 938 160 938 160 920 170 c 2,17,-1
 124 648 l 2,18,19
 80 676 80 676 80 720 c 256,20,21
 80 764 80 764 124 792 c 2,0,-1
EndSplineSet
EndChar

StartChar: equal
Encoding: 61 61 32
Width: 1040
Flags: W
LayerCount: 2
Back
Fore
SplineSet
160 880 m 2,0,1
 127 880 127 880 103.5 903.5 c 128,-1,2
 80 927 80 927 80 960 c 256,3,4
 80 993 80 993 103.5 1016.5 c 128,-1,5
 127 1040 127 1040 160 1040 c 2,6,-1
 880 1040 l 2,7,8
 913 1040 913 1040 936.5 1016.5 c 128,-1,9
 960 993 960 993 960 960 c 256,10,11
 960 927 960 927 936.5 903.5 c 128,-1,12
 913 880 913 880 880 880 c 2,13,-1
 160 880 l 2,0,1
880 560 m 2,14,15
 913 560 913 560 936.5 536.5 c 128,-1,16
 960 513 960 513 960 480 c 256,17,18
 960 447 960 447 936.5 423.5 c 128,-1,19
 913 400 913 400 880 399 c 2,20,-1
 160 399 l 2,21,22
 127 400 127 400 103.5 423.5 c 128,-1,23
 80 447 80 447 80 480 c 256,24,25
 80 513 80 513 103.5 536.5 c 128,-1,26
 127 560 127 560 160 560 c 2,27,-1
 880 560 l 2,14,15
EndSplineSet
EndChar

StartChar: greater
Encoding: 62 62 33
Width: 1120
Flags: W
LayerCount: 2
Back
Fore
SplineSet
1040 720 m 256,0,1
 1040 676 1040 676 996 648 c 2,2,-1
 200 170 l 2,3,4
 182 160 182 160 160 160 c 0,5,6
 127 160 127 160 103.5 183.5 c 128,-1,7
 80 207 80 207 80 240 c 0,8,9
 80 283 80 283 121 310 c 2,10,-1
 805 720 l 1,11,-1
 121 1130 l 2,12,13
 80 1157 80 1157 80 1200 c 0,14,15
 80 1233 80 1233 103.5 1256.5 c 128,-1,16
 127 1280 127 1280 160 1280 c 0,17,18
 182 1280 182 1280 200 1270 c 2,19,-1
 996 792 l 2,20,21
 1040 764 1040 764 1040 720 c 256,0,1
EndSplineSet
EndChar

StartChar: question
Encoding: 63 63 34
Width: 1120
Flags: W
LayerCount: 2
Back
Fore
SplineSet
240 1120 m 0,0,1
 240 1087 240 1087 216.5 1063.5 c 128,-1,2
 193 1040 193 1040 160 1040 c 256,3,4
 127 1040 127 1040 103.5 1063.5 c 128,-1,5
 80 1087 80 1087 80 1120 c 0,6,7
 80 1319 80 1319 220.5 1459.5 c 128,-1,8
 361 1600 361 1600 560 1600 c 256,9,10
 759 1600 759 1600 899.5 1459.5 c 128,-1,11
 1040 1319 1040 1319 1040 1120 c 256,12,13
 1040 921 1040 921 899 780 c 1,14,-1
 734 627 l 1,15,16
 640 533 640 533 640 400 c 0,17,18
 640 367 640 367 616.5 343.5 c 128,-1,19
 593 320 593 320 560 320 c 256,20,21
 527 320 527 320 503.5 343.5 c 128,-1,22
 480 367 480 367 480 400 c 0,23,24
 480 599 480 599 621 740 c 1,25,-1
 786 893 l 1,26,27
 880 987 880 987 880 1120 c 256,28,29
 880 1253 880 1253 786.5 1346.5 c 128,-1,30
 693 1440 693 1440 560 1440 c 256,31,32
 427 1440 427 1440 333.5 1346.5 c 128,-1,33
 240 1253 240 1253 240 1120 c 0,0,1
680 120 m 256,34,35
 680 70 680 70 645 35 c 128,-1,36
 610 0 610 0 560 0 c 256,37,38
 510 0 510 0 475 35 c 128,-1,39
 440 70 440 70 440 120 c 256,40,41
 440 170 440 170 475 205 c 128,-1,42
 510 240 510 240 560 240 c 256,43,44
 610 240 610 240 645 205 c 128,-1,45
 680 170 680 170 680 120 c 256,34,35
EndSplineSet
EndChar

StartChar: at
Encoding: 64 64 35
Width: 2240
Flags: W
LayerCount: 2
Back
Fore
SplineSet
1120 960 m 256,0,1
 954 960 954 960 837 843 c 128,-1,2
 720 726 720 726 720 560 c 256,3,4
 720 394 720 394 837 277 c 128,-1,5
 954 160 954 160 1120 160 c 256,6,7
 1286 160 1286 160 1403 277 c 128,-1,8
 1520 394 1520 394 1520 560 c 256,9,10
 1520 726 1520 726 1403 843 c 128,-1,11
 1286 960 1286 960 1120 960 c 256,0,1
1520 167 m 1,12,13
 1352 0 1352 0 1120 0 c 256,14,15
 888 0 888 0 724 164 c 128,-1,16
 560 328 560 328 560 560 c 256,17,18
 560 792 560 792 724 956 c 128,-1,19
 888 1120 888 1120 1120 1120 c 256,20,21
 1352 1120 1352 1120 1516 956 c 128,-1,22
 1680 792 1680 792 1680 560 c 2,23,-1
 1680 160 l 2,24,25
 1680 80 1680 80 1760 80 c 0,26,27
 2000 80 2000 80 2000 560 c 0,28,29
 2000 925 2000 925 1742.5 1182.5 c 128,-1,30
 1485 1440 1485 1440 1120 1440 c 256,31,32
 755 1440 755 1440 497.5 1182.5 c 128,-1,33
 240 925 240 925 240 560 c 256,34,35
 240 195 240 195 497.5 -62.5 c 128,-1,36
 755 -320 755 -320 1120 -320 c 0,37,38
 1316 -320 1316 -320 1482 -246 c 0,39,40
 1500 -235 1500 -235 1522 -235 c 0,41,42
 1555 -235 1555 -235 1578.5 -258.5 c 128,-1,43
 1602 -282 1602 -282 1602 -315 c 256,44,45
 1602 -348 1602 -348 1579 -371 c 0,46,47
 1566 -384 1566 -384 1551 -390 c 0,48,49
 1354 -480 1354 -480 1120 -480 c 0,50,51
 689 -480 689 -480 384.5 -175.5 c 128,-1,52
 80 129 80 129 80 560 c 256,53,54
 80 991 80 991 384.5 1295.5 c 128,-1,55
 689 1600 689 1600 1120 1600 c 256,56,57
 1551 1600 1551 1600 1855.5 1295.5 c 128,-1,58
 2160 991 2160 991 2160 560 c 0,59,60
 2160 -80 2160 -80 1760 -80 c 0,61,62
 1520 -80 1520 -80 1520 167 c 1,12,13
EndSplineSet
EndChar

StartChar: A
Encoding: 65 65 36
Width: 1440
Flags: W
LayerCount: 2
Back
Fore
SplineSet
433 560 m 1,0,-1
 234 49 l 2,1,2
 228 35 228 35 217 23 c 0,3,4
 193 0 193 0 160 0 c 256,5,6
 127 0 127 0 103.5 23.5 c 128,-1,7
 80 47 80 47 80 80 c 0,8,9
 80 99 80 99 87 114 c 2,10,-1
 643 1544 l 2,11,12
 649 1562 649 1562 664 1577 c 0,13,14
 687 1600 687 1600 720 1600 c 256,15,16
 753 1600 753 1600 777 1577 c 0,17,18
 791 1562 791 1562 797 1544 c 2,19,-1
 1353 114 l 2,20,21
 1360 99 1360 99 1360 80 c 0,22,23
 1360 47 1360 47 1336.5 23.5 c 128,-1,24
 1313 0 1313 0 1280 0 c 256,25,26
 1247 0 1247 0 1224 23 c 0,27,28
 1212 35 1212 35 1206 49 c 2,29,-1
 1007 560 l 1,30,-1
 433 560 l 1,0,-1
945 720 m 1,31,-1
 720 1299 l 1,32,-1
 495 720 l 1,33,-1
 945 720 l 1,31,-1
EndSplineSet
EndChar

StartChar: B
Encoding: 66 66 37
Width: 1120
Flags: W
LayerCount: 2
Back
Fore
SplineSet
240 1440 m 1,0,-1
 240 960 l 1,1,-1
 480 960 l 2,2,3
 579 960 579 960 649.5 1030.5 c 128,-1,4
 720 1101 720 1101 720 1200 c 256,5,6
 720 1299 720 1299 649.5 1369.5 c 128,-1,7
 579 1440 579 1440 480 1440 c 2,8,-1
 240 1440 l 1,0,-1
240 800 m 1,9,-1
 240 160 l 1,10,-1
 560 160 l 2,11,12
 693 160 693 160 786.5 253.5 c 128,-1,13
 880 347 880 347 880 480 c 256,14,15
 880 613 880 613 786.5 706.5 c 128,-1,16
 693 800 693 800 560 800 c 2,17,-1
 240 800 l 1,9,-1
160 1600 m 2,18,-1
 480 1600 l 2,19,20
 646 1600 646 1600 763 1483 c 128,-1,21
 880 1366 880 1366 880 1200 c 256,22,23
 880 1034 880 1034 763 917 c 1,24,25
 837 882 837 882 900 820 c 0,26,27
 1040 679 1040 679 1040 480 c 256,28,29
 1040 281 1040 281 899.5 140.5 c 128,-1,30
 759 0 759 0 560 0 c 2,31,-1
 160 0 l 2,32,33
 127 0 127 0 103.5 23.5 c 128,-1,34
 80 47 80 47 80 80 c 2,35,-1
 80 1520 l 2,36,37
 80 1553 80 1553 103.5 1576.5 c 128,-1,38
 127 1600 127 1600 160 1600 c 2,18,-1
EndSplineSet
EndChar

StartChar: C
Encoding: 67 67 38
Width: 1480
Flags: W
LayerCount: 2
Back
Fore
SplineSet
1326 314 m 0,0,1
 1359 314 1359 314 1382.5 290.5 c 128,-1,2
 1406 267 1406 267 1406 234 c 256,3,4
 1406 201 1406 201 1383 178 c 0,5,6
 1160 0 1160 0 880 0 c 0,7,8
 549 0 549 0 314.5 234.5 c 128,-1,9
 80 469 80 469 80 800 c 256,10,11
 80 1131 80 1131 314.5 1365.5 c 128,-1,12
 549 1600 549 1600 880 1600 c 0,13,14
 1166 1600 1166 1600 1389 1417 c 0,15,16
 1412 1393 1412 1393 1412 1360 c 256,17,18
 1412 1327 1412 1327 1388.5 1303.5 c 128,-1,19
 1365 1280 1365 1280 1332 1280 c 256,20,21
 1299 1280 1299 1280 1275 1304 c 0,22,23
 1106 1440 1106 1440 880 1440 c 0,24,25
 615 1440 615 1440 427.5 1252.5 c 128,-1,26
 240 1065 240 1065 240 800 c 256,27,28
 240 535 240 535 427.5 347.5 c 128,-1,29
 615 160 615 160 880 160 c 0,30,31
 1109 160 1109 160 1280 300 c 0,32,33
 1300 314 1300 314 1326 314 c 0,0,1
EndSplineSet
EndChar

StartChar: D
Encoding: 68 68 39
Width: 1360
Flags: W
LayerCount: 2
Back
Fore
SplineSet
480 160 m 2,0,1
 745 160 745 160 932.5 347.5 c 128,-1,2
 1120 535 1120 535 1120 800 c 256,3,4
 1120 1065 1120 1065 932.5 1252.5 c 128,-1,5
 745 1440 745 1440 480 1440 c 2,6,-1
 240 1440 l 1,7,-1
 240 160 l 1,8,-1
 480 160 l 2,0,1
480 1600 m 2,9,10
 811 1600 811 1600 1045.5 1365.5 c 128,-1,11
 1280 1131 1280 1131 1280 800 c 256,12,13
 1280 469 1280 469 1045.5 234.5 c 128,-1,14
 811 0 811 0 480 0 c 2,15,-1
 160 0 l 2,16,17
 127 0 127 0 103.5 23.5 c 128,-1,18
 80 47 80 47 80 80 c 2,19,-1
 80 1520 l 2,20,21
 80 1553 80 1553 103.5 1576.5 c 128,-1,22
 127 1600 127 1600 160 1600 c 2,23,-1
 480 1600 l 2,9,10
EndSplineSet
EndChar

StartChar: E
Encoding: 69 69 40
Width: 1280
Flags: W
LayerCount: 2
Back
Fore
SplineSet
160 1600 m 2,0,-1
 1120 1600 l 2,1,2
 1153 1600 1153 1600 1176.5 1576.5 c 128,-1,3
 1200 1553 1200 1553 1200 1520 c 256,4,5
 1200 1487 1200 1487 1176.5 1463.5 c 128,-1,6
 1153 1440 1153 1440 1120 1440 c 2,7,-1
 240 1440 l 1,8,-1
 240 880 l 1,9,-1
 880 880 l 2,10,11
 913 880 913 880 936.5 856.5 c 128,-1,12
 960 833 960 833 960 800 c 256,13,14
 960 767 960 767 936.5 743.5 c 128,-1,15
 913 720 913 720 880 720 c 2,16,-1
 240 720 l 1,17,-1
 240 160 l 1,18,-1
 1120 160 l 2,19,20
 1153 160 1153 160 1176.5 136.5 c 128,-1,21
 1200 113 1200 113 1200 80 c 256,22,23
 1200 47 1200 47 1176.5 23.5 c 128,-1,24
 1153 0 1153 0 1120 0 c 2,25,-1
 160 0 l 2,26,27
 127 0 127 0 103.5 23.5 c 128,-1,28
 80 47 80 47 80 80 c 2,29,-1
 80 1520 l 2,30,31
 80 1553 80 1553 103.5 1576.5 c 128,-1,32
 127 1600 127 1600 160 1600 c 2,0,-1
EndSplineSet
EndChar

StartChar: F
Encoding: 70 70 41
Width: 1280
Flags: W
LayerCount: 2
Back
Fore
SplineSet
160 1600 m 2,0,-1
 1120 1600 l 2,1,2
 1153 1600 1153 1600 1176.5 1576.5 c 128,-1,3
 1200 1553 1200 1553 1200 1520 c 256,4,5
 1200 1487 1200 1487 1176.5 1463.5 c 128,-1,6
 1153 1440 1153 1440 1120 1440 c 2,7,-1
 240 1440 l 1,8,-1
 240 880 l 1,9,-1
 880 880 l 2,10,11
 913 880 913 880 936.5 856.5 c 128,-1,12
 960 833 960 833 960 800 c 256,13,14
 960 767 960 767 936.5 743.5 c 128,-1,15
 913 720 913 720 880 720 c 2,16,-1
 240 720 l 1,17,-1
 240 80 l 2,18,19
 240 47 240 47 216.5 23.5 c 128,-1,20
 193 0 193 0 160 0 c 256,21,22
 127 0 127 0 103.5 23.5 c 128,-1,23
 80 47 80 47 80 80 c 2,24,-1
 80 1520 l 2,25,26
 80 1553 80 1553 103.5 1576.5 c 128,-1,27
 127 1600 127 1600 160 1600 c 2,0,-1
EndSplineSet
EndChar

StartChar: G
Encoding: 71 71 42
Width: 1500
Flags: W
LayerCount: 2
Back
Fore
SplineSet
1406 234 m 2,0,1
 1406 201 1406 201 1383 178 c 0,2,3
 1160 0 1160 0 880 0 c 0,4,5
 549 0 549 0 314.5 234.5 c 128,-1,6
 80 469 80 469 80 800 c 256,7,8
 80 1131 80 1131 314.5 1365.5 c 128,-1,9
 549 1600 549 1600 880 1600 c 0,10,11
 1166 1600 1166 1600 1389 1417 c 0,12,13
 1412 1393 1412 1393 1412 1360 c 256,14,15
 1412 1327 1412 1327 1388.5 1303.5 c 128,-1,16
 1365 1280 1365 1280 1332 1280 c 256,17,18
 1299 1280 1299 1280 1275 1304 c 0,19,20
 1106 1440 1106 1440 880 1440 c 0,21,22
 615 1440 615 1440 427.5 1252.5 c 128,-1,23
 240 1065 240 1065 240 800 c 256,24,25
 240 535 240 535 427.5 347.5 c 128,-1,26
 615 160 615 160 880 160 c 0,27,28
 1087 160 1087 160 1246 274 c 1,29,-1
 1246 640 l 1,30,-1
 930 640 l 2,31,32
 897 640 897 640 873.5 663.5 c 128,-1,33
 850 687 850 687 850 720 c 256,34,35
 850 753 850 753 873.5 776.5 c 128,-1,36
 897 800 897 800 930 800 c 2,37,-1
 1327 800 l 2,38,39
 1359 800 1359 800 1383 777 c 0,40,41
 1406 753 1406 753 1406 720 c 2,42,-1
 1406 234 l 2,0,1
EndSplineSet
EndChar

StartChar: H
Encoding: 72 72 43
Width: 1280
Flags: W
LayerCount: 2
Back
Fore
SplineSet
80 1520 m 2,0,1
 80 1553 80 1553 103.5 1576.5 c 128,-1,2
 127 1600 127 1600 160 1600 c 256,3,4
 193 1600 193 1600 216.5 1576.5 c 128,-1,5
 240 1553 240 1553 240 1520 c 2,6,-1
 240 880 l 1,7,-1
 1040 880 l 1,8,-1
 1040 1520 l 2,9,10
 1040 1553 1040 1553 1063.5 1576.5 c 128,-1,11
 1087 1600 1087 1600 1120 1600 c 256,12,13
 1153 1600 1153 1600 1176.5 1576.5 c 128,-1,14
 1200 1553 1200 1553 1200 1520 c 2,15,-1
 1200 80 l 2,16,17
 1200 47 1200 47 1176.5 23.5 c 128,-1,18
 1153 0 1153 0 1120 0 c 256,19,20
 1087 0 1087 0 1063.5 23.5 c 128,-1,21
 1040 47 1040 47 1040 80 c 2,22,-1
 1040 720 l 1,23,-1
 240 720 l 1,24,-1
 240 80 l 2,25,26
 240 47 240 47 216.5 23.5 c 128,-1,27
 193 0 193 0 160 0 c 256,28,29
 127 0 127 0 103.5 23.5 c 128,-1,30
 80 47 80 47 80 80 c 2,31,-1
 80 1520 l 2,0,1
EndSplineSet
EndChar

StartChar: I
Encoding: 73 73 44
Width: 480
Flags: W
LayerCount: 2
Back
Fore
SplineSet
160 1520 m 2,0,1
 160 1553 160 1553 183.5 1576.5 c 128,-1,2
 207 1600 207 1600 240 1600 c 256,3,4
 273 1600 273 1600 296.5 1576.5 c 128,-1,5
 320 1553 320 1553 320 1520 c 2,6,-1
 320 80 l 2,7,8
 320 47 320 47 296.5 23.5 c 128,-1,9
 273 0 273 0 240 0 c 256,10,11
 207 0 207 0 183.5 23.5 c 128,-1,12
 160 47 160 47 160 80 c 2,13,-1
 160 1520 l 2,0,1
EndSplineSet
EndChar

StartChar: J
Encoding: 74 74 45
Width: 1120
Flags: W
LayerCount: 2
Back
Fore
SplineSet
80 480 m 0,0,1
 80 513 80 513 103.5 536.5 c 128,-1,2
 127 560 127 560 160 560 c 256,3,4
 193 560 193 560 216.5 536.5 c 128,-1,5
 240 513 240 513 240 480 c 0,6,7
 240 347 240 347 333.5 253.5 c 128,-1,8
 427 160 427 160 560 160 c 256,9,10
 693 160 693 160 786.5 253.5 c 128,-1,11
 880 347 880 347 880 480 c 2,12,-1
 880 1520 l 2,13,14
 880 1553 880 1553 903.5 1576.5 c 128,-1,15
 927 1600 927 1600 960 1600 c 256,16,17
 993 1600 993 1600 1016.5 1576.5 c 128,-1,18
 1040 1553 1040 1553 1040 1520 c 2,19,-1
 1040 480 l 2,20,21
 1040 281 1040 281 899.5 140.5 c 128,-1,22
 759 0 759 0 560 0 c 256,23,24
 361 0 361 0 220.5 140.5 c 128,-1,25
 80 281 80 281 80 480 c 0,0,1
EndSplineSet
EndChar

StartChar: K
Encoding: 75 75 46
Width: 1200
Flags: W
LayerCount: 2
Back
Fore
SplineSet
80 1520 m 2,0,1
 80 1553 80 1553 103.5 1576.5 c 128,-1,2
 127 1600 127 1600 160 1600 c 256,3,4
 193 1600 193 1600 216.5 1576.5 c 128,-1,5
 240 1553 240 1553 240 1520 c 2,6,-1
 240 834 l 1,7,-1
 981 1575 l 2,8,9
 1007 1600 1007 1600 1040 1600 c 256,10,11
 1073 1600 1073 1600 1096.5 1576.5 c 128,-1,12
 1120 1553 1120 1553 1120 1520 c 256,13,14
 1120 1487 1120 1487 1097 1463 c 2,15,-1
 535 901 l 1,16,-1
 1105 128 l 2,17,18
 1120 107 1120 107 1120 83 c 0,19,20
 1120 41 1120 41 1088 16 c 0,21,22
 1066 0 1066 0 1042 0 c 0,23,24
 998 0 998 0 974 34 c 2,25,-1
 420 786 l 1,26,-1
 240 606 l 1,27,-1
 240 80 l 2,28,29
 240 47 240 47 216.5 23.5 c 128,-1,30
 193 0 193 0 160 0 c 256,31,32
 127 0 127 0 103.5 23.5 c 128,-1,33
 80 47 80 47 80 80 c 2,34,-1
 80 1520 l 2,0,1
EndSplineSet
EndChar

StartChar: L
Encoding: 76 76 47
Width: 1200
Flags: W
LayerCount: 2
Back
Fore
SplineSet
80 1520 m 2,0,1
 80 1553 80 1553 103.5 1576.5 c 128,-1,2
 127 1600 127 1600 160 1600 c 256,3,4
 193 1600 193 1600 216.5 1576.5 c 128,-1,5
 240 1553 240 1553 240 1520 c 2,6,-1
 240 160 l 1,7,-1
 1040 160 l 2,8,9
 1073 160 1073 160 1096.5 136.5 c 128,-1,10
 1120 113 1120 113 1120 80 c 256,11,12
 1120 47 1120 47 1096.5 23.5 c 128,-1,13
 1073 0 1073 0 1040 0 c 2,14,-1
 160 0 l 2,15,16
 127 0 127 0 103.5 23.5 c 128,-1,17
 80 47 80 47 80 80 c 2,18,-1
 80 1520 l 2,0,1
EndSplineSet
EndChar

StartChar: M
Encoding: 77 77 48
Width: 1760
Flags: W
LayerCount: 2
Back
Fore
SplineSet
806 49 m 2,0,-1
 240 1181 l 1,1,-1
 240 80 l 2,2,3
 240 47 240 47 216.5 23.5 c 128,-1,4
 193 0 193 0 160 0 c 256,5,6
 127 0 127 0 103.5 23.5 c 128,-1,7
 80 47 80 47 80 80 c 2,8,-1
 80 1520 l 2,9,10
 80 1553 80 1553 103.5 1576.5 c 128,-1,11
 127 1600 127 1600 160 1600 c 0,12,13
 208 1600 208 1600 231 1558 c 2,14,-1
 880 259 l 1,15,-1
 1529 1558 l 2,16,17
 1552 1600 1552 1600 1600 1600 c 0,18,19
 1633 1600 1633 1600 1656.5 1576.5 c 128,-1,20
 1680 1553 1680 1553 1680 1520 c 2,21,-1
 1680 80 l 2,22,23
 1680 47 1680 47 1656.5 23.5 c 128,-1,24
 1633 0 1633 0 1600 0 c 256,25,26
 1567 0 1567 0 1543.5 23.5 c 128,-1,27
 1520 47 1520 47 1520 80 c 2,28,-1
 1520 1181 l 1,29,-1
 949 39 l 2,30,31
 928 0 928 0 880 0 c 0,32,33
 830 0 830 0 806 49 c 2,0,-1
EndSplineSet
EndChar

StartChar: N
Encoding: 78 78 49
Width: 1440
Flags: W
LayerCount: 2
Back
Fore
SplineSet
240 80 m 2,0,1
 240 47 240 47 216.5 23.5 c 128,-1,2
 193 0 193 0 160 0 c 256,3,4
 127 0 127 0 103.5 23.5 c 128,-1,5
 80 47 80 47 80 80 c 2,6,-1
 80 1520 l 2,7,8
 80 1553 80 1553 103.5 1576.5 c 128,-1,9
 127 1600 127 1600 160 1600 c 0,10,11
 196 1600 196 1600 222 1571 c 2,12,-1
 1200 313 l 1,13,-1
 1200 1520 l 2,14,15
 1200 1553 1200 1553 1223.5 1576.5 c 128,-1,16
 1247 1600 1247 1600 1280 1600 c 256,17,18
 1313 1600 1313 1600 1336.5 1576.5 c 128,-1,19
 1360 1553 1360 1553 1360 1520 c 2,20,-1
 1360 80 l 2,21,22
 1360 47 1360 47 1336.5 23.5 c 128,-1,23
 1313 0 1313 0 1280 0 c 0,24,25
 1245 0 1245 0 1220 26 c 2,26,-1
 240 1286 l 1,27,-1
 240 80 l 2,0,1
EndSplineSet
EndChar

StartChar: O
Encoding: 79 79 50
Width: 1760
Flags: W
LayerCount: 2
Back
Fore
SplineSet
880 1440 m 256,0,1
 615 1440 615 1440 427.5 1252.5 c 128,-1,2
 240 1065 240 1065 240 800 c 256,3,4
 240 535 240 535 427.5 347.5 c 128,-1,5
 615 160 615 160 880 160 c 256,6,7
 1145 160 1145 160 1332.5 347.5 c 128,-1,8
 1520 535 1520 535 1520 800 c 256,9,10
 1520 1065 1520 1065 1332.5 1252.5 c 128,-1,11
 1145 1440 1145 1440 880 1440 c 256,0,1
1680 800 m 256,12,13
 1680 469 1680 469 1445.5 234.5 c 128,-1,14
 1211 0 1211 0 880 0 c 256,15,16
 549 0 549 0 314.5 234.5 c 128,-1,17
 80 469 80 469 80 800 c 256,18,19
 80 1131 80 1131 314.5 1365.5 c 128,-1,20
 549 1600 549 1600 880 1600 c 256,21,22
 1211 1600 1211 1600 1445.5 1365.5 c 128,-1,23
 1680 1131 1680 1131 1680 800 c 256,12,13
EndSplineSet
EndChar

StartChar: P
Encoding: 80 80 51
Width: 1080
Flags: W
LayerCount: 2
Back
Fore
SplineSet
240 1440 m 1,0,-1
 240 720 l 1,1,-1
 480 720 l 2,2,3
 629 720 629 720 734.5 825.5 c 128,-1,4
 840 931 840 931 840 1080 c 256,5,6
 840 1229 840 1229 734.5 1334.5 c 128,-1,7
 629 1440 629 1440 480 1440 c 2,8,-1
 240 1440 l 1,0,-1
160 1600 m 2,9,-1
 480 1600 l 2,10,11
 695 1600 695 1600 847.5 1447.5 c 128,-1,12
 1000 1295 1000 1295 1000 1080 c 256,13,14
 1000 865 1000 865 847.5 712.5 c 128,-1,15
 695 560 695 560 480 560 c 2,16,-1
 240 560 l 1,17,-1
 240 80 l 2,18,19
 240 47 240 47 216.5 23.5 c 128,-1,20
 193 0 193 0 160 0 c 256,21,22
 127 0 127 0 103.5 23.5 c 128,-1,23
 80 47 80 47 80 80 c 2,24,-1
 80 1520 l 2,25,26
 80 1553 80 1553 103.5 1576.5 c 128,-1,27
 127 1600 127 1600 160 1600 c 2,9,-1
EndSplineSet
EndChar

StartChar: Q
Encoding: 81 81 52
Width: 1760
Flags: W
LayerCount: 2
Back
Fore
SplineSet
1386 180 m 1,0,1
 1170 0 1170 0 880 0 c 0,2,3
 549 0 549 0 314.5 234.5 c 128,-1,4
 80 469 80 469 80 800 c 256,5,6
 80 1131 80 1131 314.5 1365.5 c 128,-1,7
 549 1600 549 1600 880 1600 c 256,8,9
 1211 1600 1211 1600 1445.5 1365.5 c 128,-1,10
 1680 1131 1680 1131 1680 800 c 0,11,12
 1680 510 1680 510 1500 294 c 1,13,-1
 1658 136 l 2,14,15
 1680 112 1680 112 1680 80 c 0,16,17
 1680 47 1680 47 1656.5 23.5 c 128,-1,18
 1633 0 1633 0 1600 0 c 256,19,20
 1567 0 1567 0 1542 24 c 2,21,-1
 1386 180 l 1,0,1
1272 294 m 1,22,-1
 1103 463 l 2,23,24
 1080 487 1080 487 1080 520 c 256,25,26
 1080 553 1080 553 1103.5 576.5 c 128,-1,27
 1127 600 1127 600 1160 600 c 256,28,29
 1193 600 1193 600 1217 577 c 2,30,-1
 1386 408 l 1,31,32
 1520 576 1520 576 1520 800 c 0,33,34
 1520 1065 1520 1065 1332.5 1252.5 c 128,-1,35
 1145 1440 1145 1440 880 1440 c 256,36,37
 615 1440 615 1440 427.5 1252.5 c 128,-1,38
 240 1065 240 1065 240 800 c 256,39,40
 240 535 240 535 427.5 347.5 c 128,-1,41
 615 160 615 160 880 160 c 0,42,43
 1104 160 1104 160 1272 294 c 1,22,-1
EndSplineSet
EndChar

StartChar: R
Encoding: 82 82 53
Width: 1200
Flags: W
LayerCount: 2
Back
Fore
SplineSet
240 1440 m 1,0,-1
 240 800 l 1,1,-1
 560 800 l 2,2,3
 693 800 693 800 786.5 893.5 c 128,-1,4
 880 987 880 987 880 1120 c 256,5,6
 880 1253 880 1253 786.5 1346.5 c 128,-1,7
 693 1440 693 1440 560 1440 c 2,8,-1
 240 1440 l 1,0,-1
160 1600 m 2,9,-1
 560 1600 l 2,10,11
 759 1600 759 1600 899.5 1459.5 c 128,-1,12
 1040 1319 1040 1319 1040 1120 c 256,13,14
 1040 921 1040 921 900 781 c 0,15,16
 835 716 835 716 759 682 c 1,17,-1
 1107 124 l 2,18,19
 1120 105 1120 105 1120 80 c 0,20,21
 1120 47 1120 47 1096.5 23.5 c 128,-1,22
 1073 0 1073 0 1040 0 c 0,23,24
 997 0 997 0 970 41 c 2,25,-1
 595 641 l 1,26,27
 578 640 578 640 560 640 c 2,28,-1
 240 640 l 1,29,-1
 240 80 l 2,30,31
 240 47 240 47 216.5 23.5 c 128,-1,32
 193 0 193 0 160 0 c 256,33,34
 127 0 127 0 103.5 23.5 c 128,-1,35
 80 47 80 47 80 80 c 2,36,-1
 80 1520 l 2,37,38
 80 1553 80 1553 103.5 1576.5 c 128,-1,39
 127 1600 127 1600 160 1600 c 2,9,-1
EndSplineSet
EndChar

StartChar: S
Encoding: 83 83 54
Width: 1060
Flags: W
LayerCount: 2
Back
Fore
SplineSet
96 219 m 0,0,1
 80 240 80 240 80 267 c 0,2,3
 80 300 80 300 103.5 323.5 c 128,-1,4
 127 347 127 347 160 347 c 0,5,6
 203 347 203 347 228 310 c 0,7,8
 240 291 240 291 256 274 c 0,9,10
 341 172 341 172 474 161 c 0,11,12
 606 151 606 151 707 236.5 c 128,-1,13
 808 322 808 322 819 454 c 0,14,15
 830 587 830 587 744.5 687.5 c 128,-1,16
 659 788 659 788 526 799 c 0,17,18
 361 813 361 813 254 939 c 128,-1,19
 147 1065 147 1065 160 1231 c 0,20,21
 174 1396 174 1396 300 1503 c 0,22,23
 413 1600 413 1600 560 1600 c 0,24,25
 734 1600 734 1600 864 1457 c 0,26,27
 886 1431 886 1431 903 1403 c 0,28,29
 915 1384 915 1384 915 1360 c 0,30,31
 915 1327 915 1327 891.5 1303.5 c 128,-1,32
 868 1280 868 1280 835 1280 c 0,33,34
 797 1280 797 1280 779 1304 c 256,35,36
 761 1328 761 1328 742 1353 c 0,37,38
 677 1429 677 1429 579 1437 c 0,39,40
 480 1445 480 1445 404 1380.5 c 128,-1,41
 328 1316 328 1316 320 1218 c 0,42,43
 312 1119 312 1119 376.5 1043 c 128,-1,44
 441 967 441 967 539 959 c 0,45,46
 738 942 738 942 867 791 c 0,47,48
 980 657 980 657 980 487 c 0,49,50
 980 464 980 464 978 441 c 0,51,52
 962 243 962 243 811 115 c 0,53,54
 676 0 676 0 504 0 c 0,55,56
 289 0 289 0 134 170 c 0,57,58
 113 193 113 193 96 219 c 0,0,1
EndSplineSet
EndChar

StartChar: T
Encoding: 84 84 55
Width: 1360
Flags: W
LayerCount: 2
Back
Fore
SplineSet
160 1440 m 2,0,1
 127 1440 127 1440 103.5 1463.5 c 128,-1,2
 80 1487 80 1487 80 1520 c 256,3,4
 80 1553 80 1553 103.5 1576.5 c 128,-1,5
 127 1600 127 1600 160 1600 c 2,6,-1
 1200 1600 l 2,7,8
 1233 1600 1233 1600 1256.5 1576.5 c 128,-1,9
 1280 1553 1280 1553 1280 1520 c 256,10,11
 1280 1487 1280 1487 1256.5 1463.5 c 128,-1,12
 1233 1440 1233 1440 1200 1440 c 2,13,-1
 760 1440 l 1,14,-1
 760 80 l 2,15,16
 760 47 760 47 736.5 23.5 c 128,-1,17
 713 0 713 0 680 0 c 256,18,19
 647 0 647 0 623.5 23.5 c 128,-1,20
 600 47 600 47 600 80 c 2,21,-1
 600 1440 l 1,22,-1
 160 1440 l 2,0,1
EndSplineSet
EndChar

StartChar: U
Encoding: 85 85 56
Width: 1280
Flags: W
LayerCount: 2
Back
Fore
SplineSet
80 1520 m 2,0,1
 80 1553 80 1553 103.5 1576.5 c 128,-1,2
 127 1600 127 1600 160 1600 c 256,3,4
 193 1600 193 1600 216.5 1576.5 c 128,-1,5
 240 1553 240 1553 240 1520 c 2,6,-1
 240 560 l 2,7,8
 240 394 240 394 357 277 c 128,-1,9
 474 160 474 160 640 160 c 256,10,11
 806 160 806 160 923 277 c 128,-1,12
 1040 394 1040 394 1040 560 c 2,13,-1
 1040 1520 l 2,14,15
 1040 1553 1040 1553 1063.5 1576.5 c 128,-1,16
 1087 1600 1087 1600 1120 1600 c 256,17,18
 1153 1600 1153 1600 1176.5 1576.5 c 128,-1,19
 1200 1553 1200 1553 1200 1520 c 2,20,-1
 1200 560 l 2,21,22
 1200 328 1200 328 1036 164 c 128,-1,23
 872 0 872 0 640 0 c 256,24,25
 408 0 408 0 244 164 c 128,-1,26
 80 328 80 328 80 560 c 2,27,-1
 80 1520 l 2,0,1
EndSplineSet
EndChar

StartChar: V
Encoding: 86 86 57
Width: 1440
Flags: W
LayerCount: 2
Back
Fore
SplineSet
777 24 m 0,0,1
 753 0 753 0 720 0 c 256,2,3
 687 0 687 0 664 24 c 0,4,5
 653 34 653 34 647 50 c 2,6,-1
 90 1475 l 2,7,8
 80 1498 80 1498 80 1520 c 0,9,10
 80 1553 80 1553 103.5 1576.5 c 128,-1,11
 127 1600 127 1600 160 1600 c 0,12,13
 213 1600 213 1600 233 1554 c 2,14,-1
 720 301 l 1,15,-1
 1207 1554 l 2,16,17
 1227 1600 1227 1600 1280 1600 c 0,18,19
 1313 1600 1313 1600 1336.5 1576.5 c 128,-1,20
 1360 1553 1360 1553 1360 1520 c 0,21,22
 1360 1498 1360 1498 1350 1475 c 2,23,-1
 793 50 l 2,24,25
 787 34 787 34 777 24 c 0,0,1
EndSplineSet
EndChar

StartChar: W
Encoding: 87 87 58
Width: 1920
Flags: W
LayerCount: 2
Back
Fore
SplineSet
904 1577 m 0,0,1
 927 1600 927 1600 960 1600 c 256,2,3
 993 1600 993 1600 1017 1577 c 0,4,5
 1030 1563 1030 1563 1036 1547 c 2,6,-1
 1360 379 l 1,7,-1
 1684 1547 l 2,8,9
 1690 1563 1690 1563 1704 1577 c 0,10,11
 1727 1600 1727 1600 1760 1600 c 256,12,13
 1793 1600 1793 1600 1816.5 1576.5 c 128,-1,14
 1840 1553 1840 1553 1840 1520 c 0,15,16
 1840 1503 1840 1503 1834 1485 c 2,17,-1
 1442 67 l 2,18,19
 1434 42 1434 42 1417 24 c 0,20,21
 1393 0 1393 0 1360 0 c 256,22,23
 1327 0 1327 0 1304 24 c 0,24,25
 1286 42 1286 42 1279 66 c 2,26,-1
 960 1218 l 1,27,-1
 642 67 l 2,28,29
 634 42 634 42 617 24 c 0,30,31
 593 0 593 0 560 0 c 256,32,33
 527 0 527 0 504 24 c 0,34,35
 486 42 486 42 479 66 c 2,36,-1
 86 1485 l 2,37,38
 80 1503 80 1503 80 1520 c 0,39,40
 80 1553 80 1553 103.5 1576.5 c 128,-1,41
 127 1600 127 1600 160 1600 c 256,42,43
 193 1600 193 1600 217 1577 c 0,44,45
 230 1563 230 1563 236 1547 c 2,46,-1
 560 379 l 1,47,-1
 884 1547 l 2,48,49
 888 1562 888 1562 904 1577 c 0,0,1
EndSplineSet
EndChar

StartChar: X
Encoding: 88 88 59
Width: 1440
Flags: W
LayerCount: 2
Back
Fore
SplineSet
720 931 m 1,0,-1
 1214 1566 l 2,1,2
 1242 1600 1242 1600 1280 1600 c 0,3,4
 1313 1600 1313 1600 1336.5 1576.5 c 128,-1,5
 1360 1553 1360 1553 1360 1520 c 0,6,7
 1360 1494 1360 1494 1346 1474 c 2,8,-1
 822 800 l 1,9,-1
 1343 130 l 2,10,11
 1360 108 1360 108 1360 80 c 0,12,13
 1360 47 1360 47 1336.5 23.5 c 128,-1,14
 1313 0 1313 0 1280 0 c 0,15,16
 1242 0 1242 0 1219 28 c 2,17,-1
 720 669 l 1,18,-1
 221 28 l 2,19,20
 198 0 198 0 160 0 c 0,21,22
 127 0 127 0 103.5 23.5 c 128,-1,23
 80 47 80 47 80 80 c 0,24,25
 80 108 80 108 97 130 c 2,26,-1
 618 800 l 1,27,-1
 94 1474 l 2,28,29
 80 1494 80 1494 80 1520 c 0,30,31
 80 1553 80 1553 103.5 1576.5 c 128,-1,32
 127 1600 127 1600 160 1600 c 0,33,34
 198 1600 198 1600 226 1566 c 2,35,-1
 720 931 l 1,0,-1
EndSplineSet
EndChar

StartChar: Y
Encoding: 89 89 60
Width: 1280
Flags: W
LayerCount: 2
Back
Fore
SplineSet
720 80 m 2,0,1
 720 47 720 47 696.5 23.5 c 128,-1,2
 673 0 673 0 640 0 c 256,3,4
 607 0 607 0 583.5 23.5 c 128,-1,5
 560 47 560 47 560 80 c 2,6,-1
 560 776 l 1,7,-1
 93 1475 l 2,8,9
 80 1495 80 1495 80 1520 c 0,10,11
 80 1553 80 1553 103.5 1576.5 c 128,-1,12
 127 1600 127 1600 160 1600 c 0,13,14
 201 1600 201 1600 225 1567 c 2,15,-1
 640 945 l 1,16,-1
 1055 1567 l 2,17,18
 1079 1600 1079 1600 1120 1600 c 0,19,20
 1153 1600 1153 1600 1176.5 1576.5 c 128,-1,21
 1200 1553 1200 1553 1200 1520 c 0,22,23
 1200 1495 1200 1495 1187 1475 c 2,24,-1
 720 776 l 1,25,-1
 720 80 l 2,0,1
EndSplineSet
EndChar

StartChar: Z
Encoding: 90 90 61
Width: 1440
Flags: W
LayerCount: 2
Back
Fore
SplineSet
160 1440 m 2,0,1
 127 1440 127 1440 103.5 1463.5 c 128,-1,2
 80 1487 80 1487 80 1520 c 256,3,4
 80 1553 80 1553 103.5 1576.5 c 128,-1,5
 127 1600 127 1600 160 1600 c 2,6,-1
 1280 1600 l 2,7,8
 1313 1600 1313 1600 1336.5 1576.5 c 128,-1,9
 1360 1553 1360 1553 1360 1520 c 0,10,11
 1360 1494 1360 1494 1346 1474 c 2,12,-1
 324 160 l 1,13,-1
 1280 160 l 2,14,15
 1313 160 1313 160 1336.5 136.5 c 128,-1,16
 1360 113 1360 113 1360 80 c 256,17,18
 1360 47 1360 47 1336.5 23.5 c 128,-1,19
 1313 0 1313 0 1280 0 c 2,20,-1
 160 0 l 2,21,22
 127 0 127 0 103.5 23.5 c 128,-1,23
 80 47 80 47 80 80 c 0,24,25
 80 108 80 108 97 130 c 2,26,-1
 1116 1440 l 1,27,-1
 160 1440 l 2,0,1
EndSplineSet
EndChar

StartChar: bracketleft
Encoding: 91 91 62
Width: 640
Flags: W
LayerCount: 2
Back
Fore
SplineSet
160 1600 m 2,0,-1
 480 1600 l 2,1,2
 513 1600 513 1600 536.5 1576.5 c 128,-1,3
 560 1553 560 1553 560 1520 c 256,4,5
 560 1487 560 1487 536.5 1463.5 c 128,-1,6
 513 1440 513 1440 480 1440 c 2,7,-1
 240 1440 l 1,8,-1
 240 -320 l 1,9,-1
 480 -320 l 2,10,11
 513 -320 513 -320 536.5 -343.5 c 128,-1,12
 560 -367 560 -367 560 -400 c 256,13,14
 560 -433 560 -433 536.5 -456.5 c 128,-1,15
 513 -480 513 -480 480 -480 c 2,16,-1
 160 -480 l 2,17,18
 127 -480 127 -480 103.5 -456.5 c 128,-1,19
 80 -433 80 -433 80 -400 c 2,20,-1
 80 1520 l 2,21,22
 80 1553 80 1553 103.5 1576.5 c 128,-1,23
 127 1600 127 1600 160 1600 c 2,0,-1
EndSplineSet
EndChar

StartChar: backslash
Encoding: 92 92 63
Width: 960
Flags: W
LayerCount: 2
Back
Fore
SplineSet
233 1554 m 2,0,-1
 873 -46 l 2,1,2
 880 -62 880 -62 880 -80 c 0,3,4
 880 -113 880 -113 856.5 -136.5 c 128,-1,5
 833 -160 833 -160 800 -160 c 256,6,7
 767 -160 767 -160 743 -136 c 0,8,9
 733 -126 733 -126 727 -114 c 2,10,-1
 87 1486 l 2,11,12
 80 1502 80 1502 80 1520 c 0,13,14
 80 1553 80 1553 103.5 1576.5 c 128,-1,15
 127 1600 127 1600 160 1600 c 256,16,17
 193 1600 193 1600 217 1577 c 0,18,19
 227 1566 227 1566 233 1554 c 2,0,-1
EndSplineSet
EndChar

StartChar: bracketright
Encoding: 93 93 64
Width: 640
Flags: W
LayerCount: 2
Back
Fore
SplineSet
560 1520 m 2,0,-1
 560 -400 l 2,1,2
 560 -433 560 -433 536.5 -456.5 c 128,-1,3
 513 -480 513 -480 480 -480 c 2,4,-1
 160 -480 l 2,5,6
 127 -480 127 -480 103.5 -456.5 c 128,-1,7
 80 -433 80 -433 80 -400 c 256,8,9
 80 -367 80 -367 103.5 -343.5 c 128,-1,10
 127 -320 127 -320 160 -320 c 2,11,-1
 400 -320 l 1,12,-1
 400 1440 l 1,13,-1
 160 1440 l 2,14,15
 127 1440 127 1440 103.5 1463.5 c 128,-1,16
 80 1487 80 1487 80 1520 c 256,17,18
 80 1553 80 1553 103.5 1576.5 c 128,-1,19
 127 1600 127 1600 160 1600 c 2,20,-1
 480 1600 l 2,21,22
 513 1600 513 1600 536.5 1576.5 c 128,-1,23
 560 1553 560 1553 560 1520 c 2,0,-1
EndSplineSet
EndChar

StartChar: asciicircum
Encoding: 94 94 65
Width: 960
Flags: W
LayerCount: 2
Back
Fore
SplineSet
480 1375 m 1,0,-1
 224 991 l 2,1,2
 200 960 200 960 160 960 c 0,3,4
 127 960 127 960 103.5 983.5 c 128,-1,5
 80 1007 80 1007 80 1040 c 0,6,7
 80 1063 80 1063 91 1081 c 2,8,-1
 415 1567 l 2,9,10
 437 1600 437 1600 480 1600 c 256,11,12
 523 1600 523 1600 545 1567 c 2,13,-1
 869 1081 l 2,14,15
 880 1063 880 1063 880 1040 c 0,16,17
 880 1007 880 1007 856.5 983.5 c 128,-1,18
 833 960 833 960 800 960 c 0,19,20
 760 960 760 960 736 991 c 2,21,-1
 480 1375 l 1,0,-1
EndSplineSet
EndChar

StartChar: underscore
Encoding: 95 95 66
Width: 960
Flags: W
LayerCount: 2
Back
Fore
SplineSet
0 -160 m 2,0,1
 -33 -160 -33 -160 -56.5 -136.5 c 128,-1,2
 -80 -113 -80 -113 -80 -80 c 256,3,4
 -80 -47 -80 -47 -56.5 -23.5 c 128,-1,5
 -33 0 -33 0 0 0 c 2,6,-1
 960 0 l 2,7,8
 993 0 993 0 1016.5 -23.5 c 128,-1,9
 1040 -47 1040 -47 1040 -80 c 256,10,11
 1040 -113 1040 -113 1016.5 -136.5 c 128,-1,12
 993 -160 993 -160 960 -160 c 2,13,-1
 0 -160 l 2,0,1
EndSplineSet
EndChar

StartChar: grave
Encoding: 96 96 67
Width: 560
Flags: W
LayerCount: 2
Back
Fore
SplineSet
80 1520 m 0,0,1
 80 1553 80 1553 103.5 1576.5 c 128,-1,2
 127 1600 127 1600 160 1600 c 256,3,4
 193 1600 193 1600 217 1577 c 2,5,-1
 460 1334 l 2,6,7
 480 1311 480 1311 480 1280 c 0,8,9
 480 1247 480 1247 456.5 1223.5 c 128,-1,10
 433 1200 433 1200 400 1200 c 0,11,12
 368 1200 368 1200 345 1221 c 2,13,-1
 102 1464 l 2,14,15
 80 1488 80 1488 80 1520 c 0,0,1
EndSplineSet
EndChar

StartChar: a
Encoding: 97 97 68
Width: 1280
Flags: W
LayerCount: 2
Back
Fore
SplineSet
640 960 m 256,0,1
 474 960 474 960 357 843 c 128,-1,2
 240 726 240 726 240 560 c 256,3,4
 240 394 240 394 357 277 c 128,-1,5
 474 160 474 160 640 160 c 256,6,7
 806 160 806 160 923 277 c 128,-1,8
 1040 394 1040 394 1040 560 c 256,9,10
 1040 726 1040 726 923 843 c 128,-1,11
 806 960 806 960 640 960 c 256,0,1
1040 168 m 1,12,13
 872 0 872 0 640 0 c 256,14,15
 408 0 408 0 244 164 c 128,-1,16
 80 328 80 328 80 560 c 256,17,18
 80 792 80 792 244 956 c 128,-1,19
 408 1120 408 1120 640 1120 c 256,20,21
 872 1120 872 1120 1036 956 c 128,-1,22
 1200 792 1200 792 1200 560 c 2,23,-1
 1200 80 l 2,24,25
 1200 47 1200 47 1176.5 23.5 c 128,-1,26
 1153 0 1153 0 1120 0 c 256,27,28
 1087 0 1087 0 1063.5 23.5 c 128,-1,29
 1040 47 1040 47 1040 80 c 2,30,-1
 1040 168 l 1,12,13
EndSplineSet
EndChar

StartChar: b
Encoding: 98 98 69
Width: 1280
Flags: W
LayerCount: 2
Back
Fore
SplineSet
640 160 m 256,0,1
 806 160 806 160 923 277 c 128,-1,2
 1040 394 1040 394 1040 560 c 256,3,4
 1040 726 1040 726 923 843 c 128,-1,5
 806 960 806 960 640 960 c 256,6,7
 474 960 474 960 357 843 c 128,-1,8
 240 726 240 726 240 560 c 256,9,10
 240 394 240 394 357 277 c 128,-1,11
 474 160 474 160 640 160 c 256,0,1
240 952 m 2,12,13
 242 954 242 954 244 956 c 0,14,15
 408 1120 408 1120 640 1120 c 256,16,17
 872 1120 872 1120 1036 956 c 128,-1,18
 1200 792 1200 792 1200 560 c 256,19,20
 1200 328 1200 328 1036 164 c 128,-1,21
 872 0 872 0 640 0 c 256,22,23
 408 0 408 0 244 164 c 128,-1,24
 80 328 80 328 80 560 c 2,25,-1
 80 1522 l 2,26,27
 80 1555 80 1555 103.5 1578.5 c 128,-1,28
 127 1602 127 1602 160 1602 c 256,29,30
 193 1602 193 1602 216.5 1578.5 c 128,-1,31
 240 1555 240 1555 240 1522 c 2,32,-1
 240 952 l 2,12,13
EndSplineSet
EndChar

StartChar: c
Encoding: 99 99 70
Width: 1120
Flags: W
LayerCount: 2
Back
Fore
SplineSet
950 274 m 0,0,1
 983 274 983 274 1006.5 250.5 c 128,-1,2
 1030 227 1030 227 1030 194 c 256,3,4
 1030 161 1030 161 1005 135 c 0,5,6
 850 0 850 0 640 0 c 0,7,8
 408 0 408 0 244 164 c 128,-1,9
 80 328 80 328 80 560 c 256,10,11
 80 792 80 792 244 956 c 128,-1,12
 408 1120 408 1120 640 1120 c 0,13,14
 850 1120 850 1120 1005 985 c 0,15,16
 1033 960 1033 960 1033 923 c 0,17,18
 1033 890 1033 890 1009.5 866.5 c 128,-1,19
 986 843 986 843 953 843 c 0,20,21
 924 843 924 843 902 861 c 0,22,23
 790 960 790 960 640 960 c 0,24,25
 474 960 474 960 357 843 c 128,-1,26
 240 726 240 726 240 560 c 256,27,28
 240 394 240 394 357 277 c 128,-1,29
 474 160 474 160 640 160 c 0,30,31
 790 160 790 160 901 258 c 0,32,33
 922 274 922 274 950 274 c 0,0,1
EndSplineSet
EndChar

StartChar: d
Encoding: 100 100 71
Width: 1280
Flags: W
LayerCount: 2
Back
Fore
SplineSet
1040 560 m 256,0,1
 1040 726 1040 726 923 843 c 128,-1,2
 806 960 806 960 640 960 c 256,3,4
 474 960 474 960 357 843 c 128,-1,5
 240 726 240 726 240 560 c 256,6,7
 240 394 240 394 357 277 c 128,-1,8
 474 160 474 160 640 160 c 256,9,10
 806 160 806 160 923 277 c 128,-1,11
 1040 394 1040 394 1040 560 c 256,0,1
1040 1522 m 2,12,13
 1040 1555 1040 1555 1063.5 1578.5 c 128,-1,14
 1087 1602 1087 1602 1120 1602 c 256,15,16
 1153 1602 1153 1602 1176.5 1578.5 c 128,-1,17
 1200 1555 1200 1555 1200 1522 c 2,18,-1
 1200 560 l 2,19,20
 1200 328 1200 328 1036 164 c 128,-1,21
 872 0 872 0 640 0 c 256,22,23
 408 0 408 0 244 164 c 128,-1,24
 80 328 80 328 80 560 c 256,25,26
 80 792 80 792 244 956 c 128,-1,27
 408 1120 408 1120 640 1120 c 256,28,29
 872 1120 872 1120 1036 956 c 0,30,31
 1038 954 1038 954 1040 952 c 2,32,-1
 1040 1522 l 2,12,13
EndSplineSet
EndChar

StartChar: e
Encoding: 101 101 72
Width: 1280
Flags: W
LayerCount: 2
Back
Fore
SplineSet
1033 640 m 1,0,1
 1011 755 1011 755 923 843 c 0,2,3
 806 960 806 960 640 960 c 256,4,5
 474 960 474 960 357 843 c 0,6,7
 269 755 269 755 247 640 c 1,8,-1
 1033 640 l 1,0,1
948 272 m 0,9,10
 981 272 981 272 1004.5 248.5 c 128,-1,11
 1028 225 1028 225 1028 192 c 256,12,13
 1028 159 1028 159 1005 135 c 0,14,15
 850 0 850 0 640 0 c 0,16,17
 408 0 408 0 244 164 c 128,-1,18
 80 328 80 328 80 560 c 256,19,20
 80 792 80 792 244 956 c 128,-1,21
 408 1120 408 1120 640 1120 c 256,22,23
 872 1120 872 1120 1036 956 c 128,-1,24
 1200 792 1200 792 1200 560 c 0,25,26
 1200 527 1200 527 1176.5 503.5 c 128,-1,27
 1153 480 1153 480 1120 480 c 2,28,-1
 247 480 l 1,29,30
 269 365 269 365 357 277 c 0,31,32
 474 160 474 160 640 160 c 0,33,34
 790 160 790 160 898 255 c 0,35,36
 920 272 920 272 948 272 c 0,9,10
EndSplineSet
EndChar

StartChar: f
Encoding: 102 102 73
Width: 800
Flags: W
LayerCount: 2
Back
Fore
SplineSet
720 1600 m 0,0,1
 753 1600 753 1600 776.5 1576.5 c 128,-1,2
 800 1553 800 1553 800 1520 c 256,3,4
 800 1487 800 1487 776.5 1463.5 c 128,-1,5
 753 1440 753 1440 720 1440 c 0,6,7
 400 1440 400 1440 400 1120 c 2,8,-1
 400 1060 l 1,9,-1
 641 1060 l 2,10,11
 674 1060 674 1060 697.5 1036.5 c 128,-1,12
 721 1013 721 1013 721 980 c 256,13,14
 721 947 721 947 697.5 923.5 c 128,-1,15
 674 900 674 900 641 900 c 2,16,-1
 400 900 l 1,17,-1
 400 80 l 2,18,19
 400 47 400 47 376.5 23.5 c 128,-1,20
 353 0 353 0 320 0 c 256,21,22
 287 0 287 0 263.5 23.5 c 128,-1,23
 240 47 240 47 240 80 c 2,24,-1
 240 900 l 1,25,-1
 160 900 l 2,26,27
 127 900 127 900 103.5 923.5 c 128,-1,28
 80 947 80 947 80 980 c 256,29,30
 80 1013 80 1013 103.5 1036.5 c 128,-1,31
 127 1060 127 1060 160 1060 c 2,32,-1
 240 1060 l 1,33,-1
 240 1120 l 2,34,35
 240 1600 240 1600 720 1600 c 0,0,1
EndSplineSet
EndChar

StartChar: g
Encoding: 103 103 74
Width: 1280
Flags: W
LayerCount: 2
Back
Fore
SplineSet
640 960 m 256,0,1
 474 960 474 960 357 843 c 128,-1,2
 240 726 240 726 240 560 c 256,3,4
 240 394 240 394 357 277 c 128,-1,5
 474 160 474 160 640 160 c 256,6,7
 806 160 806 160 923 277 c 128,-1,8
 1040 394 1040 394 1040 560 c 256,9,10
 1040 726 1040 726 923 843 c 128,-1,11
 806 960 806 960 640 960 c 256,0,1
1040 168 m 2,12,13
 1038 166 1038 166 1036 164 c 0,14,15
 872 0 872 0 640 0 c 256,16,17
 408 0 408 0 244 164 c 128,-1,18
 80 328 80 328 80 560 c 256,19,20
 80 792 80 792 244 956 c 128,-1,21
 408 1120 408 1120 640 1120 c 256,22,23
 872 1120 872 1120 1036 956 c 128,-1,24
 1200 792 1200 792 1200 560 c 2,25,-1
 1200 0 l 2,26,27
 1200 -175 1200 -175 1074 -304 c 0,28,29
 898 -480 898 -480 649 -480 c 256,30,31
 400 -480 400 -480 225 -304 c 0,32,33
 160 -240 160 -240 119 -165 c 0,34,35
 107 -147 107 -147 107 -123 c 0,36,37
 107 -90 107 -90 130.5 -66.5 c 128,-1,38
 154 -43 154 -43 187 -43 c 256,39,40
 220 -43 220 -43 244 -66 c 0,41,42
 254 -77 254 -77 261 -90 c 0,43,44
 291 -144 291 -144 338 -191 c 0,45,46
 467 -320 467 -320 649 -320 c 256,47,48
 831 -320 831 -320 960 -191 c 1,49,50
 1040 -95 1040 -95 1040 0 c 2,51,-1
 1040 168 l 2,12,13
EndSplineSet
EndChar

StartChar: h
Encoding: 104 104 75
Width: 1200
Flags: W
LayerCount: 2
Back
Fore
SplineSet
80 1520 m 2,0,1
 80 1553 80 1553 103.5 1576.5 c 128,-1,2
 127 1600 127 1600 160 1600 c 256,3,4
 193 1600 193 1600 216.5 1576.5 c 128,-1,5
 240 1553 240 1553 240 1520 c 2,6,-1
 240 975 l 1,7,8
 390 1120 390 1120 600 1120 c 0,9,10
 815 1120 815 1120 967.5 967.5 c 128,-1,11
 1120 815 1120 815 1120 600 c 2,12,-1
 1120 80 l 2,13,14
 1120 47 1120 47 1096.5 23.5 c 128,-1,15
 1073 0 1073 0 1040 0 c 256,16,17
 1007 0 1007 0 983.5 23.5 c 128,-1,18
 960 47 960 47 960 80 c 2,19,-1
 960 600 l 2,20,21
 960 749 960 749 854.5 854.5 c 128,-1,22
 749 960 749 960 600 960 c 256,23,24
 451 960 451 960 345.5 854.5 c 128,-1,25
 240 749 240 749 240 600 c 2,26,-1
 240 80 l 2,27,28
 240 47 240 47 216.5 23.5 c 128,-1,29
 193 0 193 0 160 0 c 256,30,31
 127 0 127 0 103.5 23.5 c 128,-1,32
 80 47 80 47 80 80 c 2,33,-1
 80 1520 l 2,0,1
EndSplineSet
EndChar

StartChar: i
Encoding: 105 105 76
Width: 480
Flags: W
LayerCount: 2
Back
Fore
SplineSet
340 1360 m 256,0,1
 340 1319 340 1319 310.5 1289.5 c 128,-1,2
 281 1260 281 1260 240 1260 c 256,3,4
 199 1260 199 1260 169.5 1289.5 c 128,-1,5
 140 1319 140 1319 140 1360 c 256,6,7
 140 1401 140 1401 169.5 1430.5 c 128,-1,8
 199 1460 199 1460 240 1460 c 256,9,10
 281 1460 281 1460 310.5 1430.5 c 128,-1,11
 340 1401 340 1401 340 1360 c 256,0,1
160 1040 m 2,12,13
 160 1073 160 1073 183.5 1096.5 c 128,-1,14
 207 1120 207 1120 240 1120 c 256,15,16
 273 1120 273 1120 296.5 1096.5 c 128,-1,17
 320 1073 320 1073 320 1040 c 2,18,-1
 320 80 l 2,19,20
 320 47 320 47 296.5 23.5 c 128,-1,21
 273 0 273 0 240 0 c 256,22,23
 207 0 207 0 183.5 23.5 c 128,-1,24
 160 47 160 47 160 80 c 2,25,-1
 160 1040 l 2,12,13
EndSplineSet
EndChar

StartChar: j
Encoding: 106 106 77
Width: 656
Flags: W
LayerCount: 2
Back
Fore
SplineSet
580 1360 m 256,0,1
 580 1319 580 1319 550.5 1289.5 c 128,-1,2
 521 1260 521 1260 480 1260 c 256,3,4
 439 1260 439 1260 409.5 1289.5 c 128,-1,5
 380 1319 380 1319 380 1360 c 256,6,7
 380 1401 380 1401 409.5 1430.5 c 128,-1,8
 439 1460 439 1460 480 1460 c 256,9,10
 521 1460 521 1460 550.5 1430.5 c 128,-1,11
 580 1401 580 1401 580 1360 c 256,0,1
400 0 m 2,12,-1
 400 1040 l 2,13,14
 400 1073 400 1073 423.5 1096.5 c 128,-1,15
 447 1120 447 1120 480 1120 c 256,16,17
 513 1120 513 1120 536.5 1096.5 c 128,-1,18
 560 1073 560 1073 560 1040 c 2,19,-1
 560 0 l 2,20,21
 560 -199 560 -199 419.5 -339.5 c 128,-1,22
 279 -480 279 -480 80 -480 c 0,23,24
 47 -480 47 -480 23.5 -456.5 c 128,-1,25
 0 -433 0 -433 0 -400 c 256,26,27
 0 -367 0 -367 23.5 -343.5 c 128,-1,28
 47 -320 47 -320 80 -320 c 0,29,30
 213 -320 213 -320 306.5 -226.5 c 128,-1,31
 400 -133 400 -133 400 0 c 2,12,-1
EndSplineSet
EndChar

StartChar: k
Encoding: 107 107 78
Width: 1120
Flags: W
LayerCount: 2
Back
Fore
SplineSet
240 668 m 1,0,-1
 917 1108 l 2,1,2
 936 1120 936 1120 960 1120 c 0,3,4
 993 1120 993 1120 1016.5 1096.5 c 128,-1,5
 1040 1073 1040 1073 1040 1040 c 256,6,7
 1040 1007 1040 1007 1017 984 c 0,8,9
 1011 978 1011 978 1006 974 c 2,10,-1
 542 672 l 1,11,-1
 1018 136 l 2,12,13
 1040 112 1040 112 1040 80 c 0,14,15
 1040 47 1040 47 1016.5 23.5 c 128,-1,16
 993 0 993 0 960 0 c 256,17,18
 927 0 927 0 902 24 c 2,19,-1
 405 584 l 1,20,-1
 240 477 l 1,21,-1
 240 80 l 2,22,23
 240 47 240 47 216.5 23.5 c 128,-1,24
 193 0 193 0 160 0 c 256,25,26
 127 0 127 0 103.5 23.5 c 128,-1,27
 80 47 80 47 80 80 c 2,28,-1
 80 1520 l 2,29,30
 80 1553 80 1553 103.5 1576.5 c 128,-1,31
 127 1600 127 1600 160 1600 c 256,32,33
 193 1600 193 1600 216.5 1576.5 c 128,-1,34
 240 1553 240 1553 240 1520 c 2,35,-1
 240 668 l 1,0,-1
EndSplineSet
EndChar

StartChar: l
Encoding: 108 108 79
Width: 480
Flags: W
LayerCount: 2
Back
Fore
SplineSet
80 1520 m 2,0,1
 80 1553 80 1553 103.5 1576.5 c 128,-1,2
 127 1600 127 1600 160 1600 c 256,3,4
 193 1600 193 1600 216.5 1576.5 c 128,-1,5
 240 1553 240 1553 240 1520 c 2,6,-1
 240 160 l 1,7,-1
 320 160 l 2,8,9
 353 160 353 160 376.5 136.5 c 128,-1,10
 400 113 400 113 400 80 c 256,11,12
 400 47 400 47 376.5 23.5 c 128,-1,13
 353 0 353 0 320 0 c 2,14,-1
 160 0 l 2,15,16
 127 0 127 0 103.5 23.5 c 128,-1,17
 80 47 80 47 80 80 c 2,18,-1
 80 1520 l 2,0,1
EndSplineSet
EndChar

StartChar: m
Encoding: 109 109 80
Width: 1760
Flags: W
LayerCount: 2
Back
Fore
SplineSet
240 80 m 2,0,1
 240 47 240 47 216.5 23.5 c 128,-1,2
 193 0 193 0 160 0 c 256,3,4
 127 0 127 0 103.5 23.5 c 128,-1,5
 80 47 80 47 80 80 c 2,6,-1
 80 1040 l 2,7,8
 80 1073 80 1073 103.5 1096.5 c 128,-1,9
 127 1120 127 1120 160 1120 c 256,10,11
 193 1120 193 1120 216.5 1096.5 c 128,-1,12
 240 1073 240 1073 240 1040 c 2,13,-1
 240 1019 l 1,14,15
 359 1120 359 1120 520 1120 c 0,16,17
 702 1120 702 1120 831 991 c 0,18,19
 858 964 858 964 880 934 c 1,20,21
 902 964 902 964 929 991 c 0,22,23
 1058 1120 1058 1120 1240 1120 c 256,24,25
 1422 1120 1422 1120 1551 991 c 128,-1,26
 1680 862 1680 862 1680 680 c 2,27,-1
 1680 80 l 2,28,29
 1680 47 1680 47 1656.5 23.5 c 128,-1,30
 1633 0 1633 0 1600 0 c 256,31,32
 1567 0 1567 0 1543.5 23.5 c 128,-1,33
 1520 47 1520 47 1520 80 c 2,34,-1
 1520 680 l 2,35,36
 1520 796 1520 796 1438 878 c 128,-1,37
 1356 960 1356 960 1240 960 c 256,38,39
 1124 960 1124 960 1042 878 c 128,-1,40
 960 796 960 796 960 680 c 2,41,-1
 960 80 l 2,42,43
 960 47 960 47 936.5 23.5 c 128,-1,44
 913 0 913 0 880 0 c 256,45,46
 847 0 847 0 823.5 23.5 c 128,-1,47
 800 47 800 47 800 80 c 2,48,-1
 800 680 l 2,49,50
 800 796 800 796 718 878 c 128,-1,51
 636 960 636 960 520 960 c 256,52,53
 404 960 404 960 322 878 c 128,-1,54
 240 796 240 796 240 680 c 2,55,-1
 240 80 l 2,0,1
EndSplineSet
EndChar

StartChar: n
Encoding: 110 110 81
Width: 1200
Flags: W
LayerCount: 2
Back
Fore
SplineSet
80 1040 m 2,0,1
 80 1073 80 1073 103.5 1096.5 c 128,-1,2
 127 1120 127 1120 160 1120 c 256,3,4
 193 1120 193 1120 216.5 1096.5 c 128,-1,5
 240 1073 240 1073 240 1040 c 2,6,-1
 240 975 l 1,7,8
 390 1120 390 1120 600 1120 c 0,9,10
 815 1120 815 1120 967.5 967.5 c 128,-1,11
 1120 815 1120 815 1120 600 c 2,12,-1
 1120 80 l 2,13,14
 1120 47 1120 47 1096.5 23.5 c 128,-1,15
 1073 0 1073 0 1040 0 c 256,16,17
 1007 0 1007 0 983.5 23.5 c 128,-1,18
 960 47 960 47 960 80 c 2,19,-1
 960 600 l 2,20,21
 960 749 960 749 854.5 854.5 c 128,-1,22
 749 960 749 960 600 960 c 256,23,24
 451 960 451 960 345.5 854.5 c 128,-1,25
 240 749 240 749 240 600 c 2,26,-1
 240 80 l 2,27,28
 240 47 240 47 216.5 23.5 c 128,-1,29
 193 0 193 0 160 0 c 256,30,31
 127 0 127 0 103.5 23.5 c 128,-1,32
 80 47 80 47 80 80 c 2,33,-1
 80 1040 l 2,0,1
EndSplineSet
EndChar

StartChar: o
Encoding: 111 111 82
Width: 1280
Flags: W
LayerCount: 2
Back
Fore
SplineSet
1200 560 m 256,0,1
 1200 328 1200 328 1036 164 c 128,-1,2
 872 0 872 0 640 0 c 256,3,4
 408 0 408 0 244 164 c 128,-1,5
 80 328 80 328 80 560 c 256,6,7
 80 792 80 792 244 956 c 128,-1,8
 408 1120 408 1120 640 1120 c 256,9,10
 872 1120 872 1120 1036 956 c 128,-1,11
 1200 792 1200 792 1200 560 c 256,0,1
640 960 m 256,12,13
 474 960 474 960 357 843 c 128,-1,14
 240 726 240 726 240 560 c 256,15,16
 240 394 240 394 357 277 c 128,-1,17
 474 160 474 160 640 160 c 256,18,19
 806 160 806 160 923 277 c 128,-1,20
 1040 394 1040 394 1040 560 c 256,21,22
 1040 726 1040 726 923 843 c 128,-1,23
 806 960 806 960 640 960 c 256,12,13
EndSplineSet
EndChar

StartChar: p
Encoding: 112 112 83
Width: 1280
Flags: W
LayerCount: 2
Back
Fore
SplineSet
240 560 m 256,0,1
 240 394 240 394 357 277 c 128,-1,2
 474 160 474 160 640 160 c 256,3,4
 806 160 806 160 923 277 c 128,-1,5
 1040 394 1040 394 1040 560 c 256,6,7
 1040 726 1040 726 923 843 c 128,-1,8
 806 960 806 960 640 960 c 256,9,10
 474 960 474 960 357 843 c 128,-1,11
 240 726 240 726 240 560 c 256,0,1
240 -400 m 2,12,13
 240 -433 240 -433 216.5 -456.5 c 128,-1,14
 193 -480 193 -480 160 -480 c 256,15,16
 127 -480 127 -480 103.5 -456.5 c 128,-1,17
 80 -433 80 -433 80 -400 c 2,18,-1
 80 560 l 2,19,20
 80 792 80 792 244 956 c 128,-1,21
 408 1120 408 1120 640 1120 c 256,22,23
 872 1120 872 1120 1036 956 c 128,-1,24
 1200 792 1200 792 1200 560 c 256,25,26
 1200 328 1200 328 1036 164 c 128,-1,27
 872 0 872 0 640 0 c 256,28,29
 408 0 408 0 244 164 c 0,30,31
 242 166 242 166 240 168 c 2,32,-1
 240 -400 l 2,12,13
EndSplineSet
EndChar

StartChar: q
Encoding: 113 113 84
Width: 1280
Flags: W
LayerCount: 2
Back
Fore
SplineSet
640 960 m 256,0,1
 474 960 474 960 357 843 c 128,-1,2
 240 726 240 726 240 560 c 256,3,4
 240 394 240 394 357 277 c 128,-1,5
 474 160 474 160 640 160 c 256,6,7
 806 160 806 160 923 277 c 128,-1,8
 1040 394 1040 394 1040 560 c 256,9,10
 1040 726 1040 726 923 843 c 128,-1,11
 806 960 806 960 640 960 c 256,0,1
1040 168 m 2,12,13
 1038 166 1038 166 1036 164 c 0,14,15
 872 0 872 0 640 0 c 256,16,17
 408 0 408 0 244 164 c 128,-1,18
 80 328 80 328 80 560 c 256,19,20
 80 792 80 792 244 956 c 128,-1,21
 408 1120 408 1120 640 1120 c 256,22,23
 872 1120 872 1120 1036 956 c 128,-1,24
 1200 792 1200 792 1200 560 c 2,25,-1
 1200 -400 l 2,26,27
 1200 -433 1200 -433 1176.5 -456.5 c 128,-1,28
 1153 -480 1153 -480 1120 -480 c 256,29,30
 1087 -480 1087 -480 1063.5 -456.5 c 128,-1,31
 1040 -433 1040 -433 1040 -400 c 2,32,-1
 1040 168 l 2,12,13
EndSplineSet
EndChar

StartChar: r
Encoding: 114 114 85
Width: 960
Flags: W
LayerCount: 2
Back
Fore
SplineSet
80 1040 m 2,0,1
 80 1073 80 1073 103.5 1096.5 c 128,-1,2
 127 1120 127 1120 160 1120 c 256,3,4
 193 1120 193 1120 216.5 1096.5 c 128,-1,5
 240 1073 240 1073 240 1040 c 2,6,-1
 240 952 l 1,7,8
 408 1120 408 1120 640 1120 c 0,9,10
 757 1120 757 1120 855 1080 c 0,11,12
 873 1073 873 1073 888 1059 c 0,13,14
 911 1035 911 1035 911 1002 c 256,15,16
 911 969 911 969 887.5 945.5 c 128,-1,17
 864 922 864 922 831 922 c 0,18,19
 812 922 812 922 796 930 c 0,20,21
 725 960 725 960 640 960 c 0,22,23
 474 960 474 960 357 843 c 128,-1,24
 240 726 240 726 240 560 c 2,25,-1
 240 80 l 2,26,27
 240 47 240 47 216.5 23.5 c 128,-1,28
 193 0 193 0 160 0 c 256,29,30
 127 0 127 0 103.5 23.5 c 128,-1,31
 80 47 80 47 80 80 c 2,32,-1
 80 1040 l 2,0,1
EndSplineSet
EndChar

StartChar: s
Encoding: 115 115 86
Width: 1060
Flags: W
LayerCount: 2
Back
Fore
SplineSet
278 560 m 2,0,1
 187 594 187 594 151 631 c 0,2,3
 80 701 80 701 80 800 c 256,4,5
 80 899 80 899 154 973 c 0,6,7
 298 1120 298 1120 530 1120 c 0,8,9
 781 1120 781 1120 960 919 c 0,10,11
 976 900 976 900 975 872 c 0,12,13
 975 839 975 839 951.5 815.5 c 128,-1,14
 928 792 928 792 895 792 c 256,15,16
 862 792 862 792 842 813 c 128,-1,17
 822 834 822 834 813 843 c 0,18,19
 696 960 696 960 530 960 c 256,20,21
 364 960 364 960 265 856 c 0,22,23
 241 827 241 827 241 787 c 0,24,25
 244 740 244 740 290 723 c 2,26,-1
 782 560 l 2,27,28
 873 526 873 526 909 489 c 0,29,30
 980 419 980 419 980 320 c 256,31,32
 980 221 980 221 906 147 c 0,33,34
 762 0 762 0 530 0 c 0,35,36
 278 0 278 0 100 201 c 0,37,38
 85 222 85 222 85 248 c 0,39,40
 85 281 85 281 108.5 304.5 c 128,-1,41
 132 328 132 328 165 328 c 256,42,43
 198 328 198 328 218 307 c 128,-1,44
 238 286 238 286 247 277 c 0,45,46
 364 160 364 160 530 160 c 256,47,48
 696 160 696 160 795 264 c 0,49,50
 819 293 819 293 819 333 c 0,51,52
 816 380 816 380 770 397 c 2,53,-1
 278 560 l 2,0,1
EndSplineSet
EndChar

StartChar: t
Encoding: 116 116 87
Width: 800
Flags: W
LayerCount: 2
Back
Fore
SplineSet
640 160 m 0,0,1
 673 160 673 160 696.5 136.5 c 128,-1,2
 720 113 720 113 720 80 c 256,3,4
 720 47 720 47 696.5 23.5 c 128,-1,5
 673 0 673 0 640 0 c 0,6,7
 240 0 240 0 240 400 c 2,8,-1
 240 960 l 1,9,-1
 160 960 l 2,10,11
 127 960 127 960 103.5 983.5 c 128,-1,12
 80 1007 80 1007 80 1040 c 256,13,14
 80 1073 80 1073 103.5 1096.5 c 128,-1,15
 127 1120 127 1120 160 1120 c 2,16,-1
 240 1120 l 1,17,-1
 240 1520 l 2,18,19
 240 1553 240 1553 263.5 1576.5 c 128,-1,20
 287 1600 287 1600 320 1600 c 256,21,22
 353 1600 353 1600 376.5 1576.5 c 128,-1,23
 400 1553 400 1553 400 1520 c 2,24,-1
 400 1120 l 1,25,-1
 561 1120 l 2,26,27
 594 1120 594 1120 617.5 1096.5 c 128,-1,28
 641 1073 641 1073 641 1040 c 256,29,30
 641 1007 641 1007 617.5 983.5 c 128,-1,31
 594 960 594 960 561 960 c 2,32,-1
 400 960 l 1,33,-1
 400 400 l 2,34,35
 400 160 400 160 640 160 c 0,0,1
EndSplineSet
EndChar

StartChar: u
Encoding: 117 117 88
Width: 1200
Flags: W
LayerCount: 2
Back
Fore
SplineSet
1120 80 m 2,0,1
 1120 47 1120 47 1096.5 23.5 c 128,-1,2
 1073 0 1073 0 1040 0 c 256,3,4
 1007 0 1007 0 983.5 23.5 c 128,-1,5
 960 47 960 47 960 80 c 2,6,-1
 960 145 l 1,7,8
 810 0 810 0 600 0 c 0,9,10
 385 0 385 0 232.5 152.5 c 128,-1,11
 80 305 80 305 80 520 c 2,12,-1
 80 1040 l 2,13,14
 80 1073 80 1073 103.5 1096.5 c 128,-1,15
 127 1120 127 1120 160 1120 c 256,16,17
 193 1120 193 1120 216.5 1096.5 c 128,-1,18
 240 1073 240 1073 240 1040 c 2,19,-1
 240 520 l 2,20,21
 240 371 240 371 345.5 265.5 c 128,-1,22
 451 160 451 160 600 160 c 256,23,24
 749 160 749 160 854.5 265.5 c 128,-1,25
 960 371 960 371 960 520 c 2,26,-1
 960 1040 l 2,27,28
 960 1073 960 1073 983.5 1096.5 c 128,-1,29
 1007 1120 1007 1120 1040 1120 c 256,30,31
 1073 1120 1073 1120 1096.5 1096.5 c 128,-1,32
 1120 1073 1120 1073 1120 1040 c 2,33,-1
 1120 80 l 2,0,1
EndSplineSet
EndChar

StartChar: v
Encoding: 118 118 89
Width: 1200
Flags: W
LayerCount: 2
Back
Fore
SplineSet
657 22 m 0,0,1
 635 0 635 0 600 0 c 256,2,3
 565 0 565 0 543 23 c 0,4,5
 536 29 536 29 530 42 c 2,6,-1
 86 1009 l 2,7,8
 80 1023 80 1023 80 1040 c 0,9,10
 80 1073 80 1073 103.5 1096.5 c 128,-1,11
 127 1120 127 1120 160 1120 c 256,12,13
 193 1120 193 1120 217 1097 c 0,14,15
 225 1089 225 1089 232 1076 c 2,16,-1
 600 272 l 1,17,-1
 968 1076 l 2,18,19
 975 1089 975 1089 984 1097 c 0,20,21
 1007 1120 1007 1120 1040 1120 c 256,22,23
 1073 1120 1073 1120 1096.5 1096.5 c 128,-1,24
 1120 1073 1120 1073 1120 1040 c 0,25,26
 1120 1023 1120 1023 1114 1009 c 2,27,-1
 670 42 l 2,28,29
 664 29 664 29 657 22 c 0,0,1
EndSplineSet
EndChar

StartChar: w
Encoding: 119 119 90
Width: 1600
Flags: W
LayerCount: 2
Back
Fore
SplineSet
744 1097 m 0,0,1
 767 1120 767 1120 800 1120 c 256,2,3
 833 1120 833 1120 857 1097 c 0,4,5
 872 1081 872 1081 878 1060 c 2,6,-1
 1120 333 l 1,7,-1
 1367 1074 l 2,8,9
 1373 1086 1373 1086 1384 1097 c 0,10,11
 1407 1120 1407 1120 1440 1120 c 256,12,13
 1473 1120 1473 1120 1496.5 1096.5 c 128,-1,14
 1520 1073 1520 1073 1520 1040 c 0,15,16
 1520 1024 1520 1024 1514 1009 c 2,17,-1
 1195 51 l 2,18,19
 1189 36 1189 36 1177 22 c 0,20,21
 1153 0 1153 0 1120 0 c 256,22,23
 1087 0 1087 0 1064 22 c 0,24,25
 1051 36 1051 36 1045 51 c 2,26,-1
 800 787 l 1,27,-1
 555 51 l 2,28,29
 549 36 549 36 537 22 c 0,30,31
 513 0 513 0 480 0 c 256,32,33
 447 0 447 0 424 22 c 0,34,35
 411 36 411 36 405 51 c 2,36,-1
 86 1009 l 2,37,38
 80 1024 80 1024 80 1040 c 0,39,40
 80 1073 80 1073 103.5 1096.5 c 128,-1,41
 127 1120 127 1120 160 1120 c 256,42,43
 193 1120 193 1120 217 1097 c 0,44,45
 227 1086 227 1086 233 1074 c 2,46,-1
 480 333 l 1,47,-1
 722 1060 l 2,48,49
 729 1081 729 1081 744 1097 c 0,0,1
EndSplineSet
EndChar

StartChar: x
Encoding: 120 120 91
Width: 1120
Flags: W
LayerCount: 2
Back
Fore
SplineSet
456 561 m 1,0,-1
 99 988 l 2,1,2
 80 1010 80 1010 80 1040 c 0,3,4
 80 1073 80 1073 103.5 1096.5 c 128,-1,5
 127 1120 127 1120 160 1120 c 256,6,7
 193 1120 193 1120 219 1095 c 2,8,-1
 560 686 l 1,9,-1
 901 1095 l 2,10,11
 927 1120 927 1120 960 1120 c 256,12,13
 993 1120 993 1120 1016.5 1096.5 c 128,-1,14
 1040 1073 1040 1073 1040 1040 c 0,15,16
 1040 1010 1040 1010 1021 988 c 2,17,-1
 664 561 l 1,18,-1
 1024 129 l 2,19,20
 1040 108 1040 108 1040 80 c 0,21,22
 1040 47 1040 47 1016.5 23.5 c 128,-1,23
 993 0 993 0 960 0 c 256,24,25
 927 0 927 0 904 24 c 2,26,-1
 560 436 l 1,27,-1
 216 24 l 2,28,29
 193 0 193 0 160 0 c 256,30,31
 127 0 127 0 103.5 23.5 c 128,-1,32
 80 47 80 47 80 80 c 0,33,34
 80 108 80 108 96 129 c 2,35,-1
 456 561 l 1,0,-1
EndSplineSet
EndChar

StartChar: y
Encoding: 121 121 92
Width: 1120
Flags: W
LayerCount: 2
Back
Fore
SplineSet
473 81 m 1,0,-1
 89 1003 l 2,1,2
 80 1020 80 1020 80 1040 c 0,3,4
 80 1073 80 1073 103.5 1096.5 c 128,-1,5
 127 1120 127 1120 160 1120 c 256,6,7
 193 1120 193 1120 217 1097 c 0,8,9
 230 1083 230 1083 236 1067 c 2,10,-1
 560 290 l 1,11,-1
 884 1067 l 2,12,13
 890 1083 890 1083 904 1097 c 0,14,15
 927 1120 927 1120 960 1120 c 256,16,17
 993 1120 993 1120 1016.5 1096.5 c 128,-1,18
 1040 1073 1040 1073 1040 1040 c 0,19,20
 1040 1020 1040 1020 1031 1003 c 2,21,-1
 435 -427 l 2,22,23
 429 -443 429 -443 416 -456 c 0,24,25
 392 -480 392 -480 359 -480 c 256,26,27
 326 -480 326 -480 302.5 -456.5 c 128,-1,28
 279 -433 279 -433 279 -400 c 0,29,30
 279 -380 279 -380 288 -363 c 2,31,-1
 473 81 l 1,0,-1
EndSplineSet
EndChar

StartChar: z
Encoding: 122 122 93
Width: 1120
Flags: W
LayerCount: 2
Back
Fore
SplineSet
960 160 m 2,0,1
 993 160 993 160 1016.5 136.5 c 128,-1,2
 1040 113 1040 113 1040 80 c 256,3,4
 1040 47 1040 47 1016.5 23.5 c 128,-1,5
 993 0 993 0 960 0 c 2,6,-1
 160 0 l 2,7,8
 127 0 127 0 103.5 23.5 c 128,-1,9
 80 47 80 47 80 80 c 0,10,11
 80 108 80 108 96 129 c 2,12,-1
 789 960 l 1,13,-1
 160 960 l 2,14,15
 127 960 127 960 103.5 983.5 c 128,-1,16
 80 1007 80 1007 80 1040 c 256,17,18
 80 1073 80 1073 103.5 1096.5 c 128,-1,19
 127 1120 127 1120 160 1120 c 2,20,-1
 960 1120 l 2,21,22
 993 1120 993 1120 1016.5 1096.5 c 128,-1,23
 1040 1073 1040 1073 1040 1040 c 0,24,25
 1040 1010 1040 1010 1021 988 c 2,26,-1
 330 160 l 1,27,-1
 960 160 l 2,0,1
EndSplineSet
EndChar

StartChar: braceleft
Encoding: 123 123 94
Width: 800
Flags: W
LayerCount: 2
Back
Fore
SplineSet
640 1600 m 0,0,1
 673 1600 673 1600 696.5 1576.5 c 128,-1,2
 720 1553 720 1553 720 1520 c 256,3,4
 720 1487 720 1487 696.5 1463.5 c 128,-1,5
 673 1440 673 1440 640 1440 c 0,6,7
 480 1440 480 1440 480 1280 c 2,8,-1
 480 800 l 2,9,10
 480 640 480 640 400 560 c 1,11,12
 480 480 480 480 480 320 c 2,13,-1
 480 -160 l 2,14,15
 480 -320 480 -320 640 -320 c 0,16,17
 673 -320 673 -320 696.5 -343.5 c 128,-1,18
 720 -367 720 -367 720 -400 c 256,19,20
 720 -433 720 -433 696.5 -456.5 c 128,-1,21
 673 -480 673 -480 640 -480 c 0,22,23
 320 -480 320 -480 320 -160 c 2,24,-1
 320 320 l 2,25,26
 320 480 320 480 160 480 c 0,27,28
 127 480 127 480 103.5 503.5 c 128,-1,29
 80 527 80 527 80 560 c 256,30,31
 80 593 80 593 103.5 616.5 c 128,-1,32
 127 640 127 640 160 640 c 0,33,34
 320 640 320 640 320 800 c 2,35,-1
 320 1280 l 2,36,37
 320 1600 320 1600 640 1600 c 0,0,1
EndSplineSet
EndChar

StartChar: bar
Encoding: 124 124 95
Width: 800
Flags: W
LayerCount: 2
Back
Fore
SplineSet
320 1520 m 2,0,1
 320 1553 320 1553 343.5 1576.5 c 128,-1,2
 367 1600 367 1600 400 1600 c 256,3,4
 433 1600 433 1600 456.5 1576.5 c 128,-1,5
 480 1553 480 1553 480 1520 c 2,6,-1
 480 -400 l 2,7,8
 480 -433 480 -433 456.5 -456.5 c 128,-1,9
 433 -480 433 -480 400 -480 c 256,10,11
 367 -480 367 -480 343.5 -456.5 c 128,-1,12
 320 -433 320 -433 320 -400 c 2,13,-1
 320 1520 l 2,0,1
EndSplineSet
EndChar

StartChar: braceright
Encoding: 125 125 96
Width: 800
Flags: W
LayerCount: 2
Back
Fore
SplineSet
480 1280 m 2,0,-1
 480 800 l 2,1,2
 480 640 480 640 640 640 c 0,3,4
 673 640 673 640 696.5 616.5 c 128,-1,5
 720 593 720 593 720 560 c 256,6,7
 720 527 720 527 696.5 503.5 c 128,-1,8
 673 480 673 480 640 480 c 0,9,10
 480 480 480 480 480 320 c 2,11,-1
 480 -160 l 2,12,13
 480 -480 480 -480 160 -480 c 0,14,15
 127 -480 127 -480 103.5 -456.5 c 128,-1,16
 80 -433 80 -433 80 -400 c 256,17,18
 80 -367 80 -367 103.5 -343.5 c 128,-1,19
 127 -320 127 -320 160 -320 c 0,20,21
 320 -320 320 -320 320 -160 c 2,22,-1
 320 320 l 2,23,24
 320 480 320 480 400 560 c 1,25,26
 320 640 320 640 320 800 c 2,27,-1
 320 1280 l 2,28,29
 320 1440 320 1440 160 1440 c 0,30,31
 127 1440 127 1440 103.5 1463.5 c 128,-1,32
 80 1487 80 1487 80 1520 c 256,33,34
 80 1553 80 1553 103.5 1576.5 c 128,-1,35
 127 1600 127 1600 160 1600 c 0,36,37
 480 1600 480 1600 480 1280 c 2,0,-1
EndSplineSet
EndChar

StartChar: asciitilde
Encoding: 126 126 97
Width: 960
Flags: W
LayerCount: 2
Back
Fore
SplineSet
532 687 m 0,0,1
 442 607 442 607 320 607 c 0,2,3
 187 607 187 607 93 701 c 0,4,5
 71 725 71 725 71 757 c 0,6,7
 71 790 71 790 94.5 813.5 c 128,-1,8
 118 837 118 837 151 837 c 0,9,10
 183 837 183 837 207 815 c 0,11,12
 254 767 254 767 320 767 c 0,13,14
 376 767 376 767 420 802 c 0,15,16
 509 882 509 882 632 882 c 0,17,18
 765 882 765 882 859 788 c 0,19,20
 881 764 881 764 881 732 c 0,21,22
 881 699 881 699 857.5 675.5 c 128,-1,23
 834 652 834 652 801 652 c 0,24,25
 769 652 769 652 745 674 c 0,26,27
 698 722 698 722 632 722 c 0,28,29
 575 722 575 722 532 687 c 0,0,1
EndSplineSet
EndChar

StartChar: exclamdown
Encoding: 161 161 98
Width: 400
Flags: W
LayerCount: 2
Back
Fore
SplineSet
200 879 m 256,0,1
 150 879 150 879 115 914 c 128,-1,2
 80 949 80 949 80 999 c 256,3,4
 80 1049 80 1049 115 1084 c 128,-1,5
 150 1119 150 1119 200 1119 c 256,6,7
 250 1119 250 1119 285 1084 c 128,-1,8
 320 1049 320 1049 320 999 c 256,9,10
 320 949 320 949 285 914 c 128,-1,11
 250 879 250 879 200 879 c 256,0,1
120 720 m 2,12,13
 120 752 120 752 144 775 c 0,14,15
 167 799 167 799 200 799 c 256,16,17
 233 799 233 799 257 775 c 0,18,19
 280 752 280 752 280 720 c 2,20,-1
 280 -400 l 2,21,22
 280 -433 280 -433 256.5 -456.5 c 128,-1,23
 233 -480 233 -480 200 -480 c 256,24,25
 167 -480 167 -480 143.5 -456.5 c 128,-1,26
 120 -433 120 -433 120 -400 c 2,27,-1
 120 720 l 2,12,13
EndSplineSet
EndChar

StartChar: cent
Encoding: 162 162 99
Width: 1120
Flags: W
LayerCount: 2
Back
Fore
SplineSet
361 280 m 1,0,-1
 633 960 l 1,1,2
 476 955 476 955 364 843 c 0,3,4
 247 726 247 726 247 560 c 0,5,6
 247 396 247 396 361 280 c 1,0,-1
497 188 m 1,7,8
 566 160 566 160 647 160 c 0,9,10
 797 160 797 160 908 258 c 0,11,12
 929 274 929 274 957 274 c 0,13,14
 990 274 990 274 1013.5 250.5 c 128,-1,15
 1037 227 1037 227 1037 194 c 256,16,17
 1037 161 1037 161 1012 135 c 0,18,19
 857 0 857 0 647 0 c 0,20,21
 534 0 534 0 438 39 c 1,22,-1
 315 -269 l 2,23,24
 303 -300 303 -300 273 -313 c 0,25,26
 257 -320 257 -320 241 -320 c 0,27,28
 226 -320 226 -320 211 -314 c 0,29,30
 180 -302 180 -302 167 -271.5 c 128,-1,31
 154 -241 154 -241 166 -210 c 2,32,-1
 298 121 l 1,33,34
 274 141 274 141 251 164 c 0,35,36
 87 328 87 328 87 560 c 256,37,38
 87 792 87 792 251 956 c 128,-1,39
 415 1120 415 1120 647 1120 c 0,40,41
 672 1120 672 1120 696 1118 c 1,42,-1
 805 1390 l 2,43,44
 818 1421 818 1421 849 1434 c 0,45,46
 862 1440 862 1440 880 1440 c 0,47,48
 895 1440 895 1440 909 1435 c 0,49,50
 940 1423 940 1423 953 1392.5 c 128,-1,51
 966 1362 966 1362 954 1331 c 2,52,-1
 855 1082 l 1,53,54
 939 1048 939 1048 1012 985 c 0,55,56
 1040 960 1040 960 1040 923 c 0,57,58
 1040 890 1040 890 1016.5 866.5 c 128,-1,59
 993 843 993 843 960 843 c 0,60,61
 931 843 931 843 909 861 c 0,62,63
 856 908 856 908 795 932 c 1,64,-1
 497 188 l 1,7,8
EndSplineSet
EndChar

StartChar: sterling
Encoding: 163 163 100
Width: 1040
Flags: W
LayerCount: 2
Back
Fore
SplineSet
240 0 m 2,0,1
 207 0 207 0 183.5 23.5 c 128,-1,2
 160 47 160 47 160 80 c 0,3,4
 160 97 160 97 166 112 c 0,5,6
 283 385 283 385 279 640 c 1,7,-1
 160 640 l 2,8,9
 127 640 127 640 103.5 663.5 c 128,-1,10
 80 687 80 687 80 720 c 256,11,12
 80 753 80 753 103.5 776.5 c 128,-1,13
 127 800 127 800 160 800 c 2,14,-1
 265 800 l 1,15,16
 243 927 243 927 190 1050 c 1,17,-1
 191 1050 l 1,18,19
 160 1125 160 1125 160 1200 c 0,20,21
 160 1366 160 1366 277 1483 c 128,-1,22
 394 1600 394 1600 560 1600 c 256,23,24
 726 1600 726 1600 843 1483 c 0,25,26
 872 1454 872 1454 894 1422 c 0,27,28
 910 1400 910 1400 910 1372 c 0,29,30
 910 1339 910 1339 886.5 1315.5 c 128,-1,31
 863 1292 863 1292 830 1292 c 0,32,33
 793 1292 793 1292 774 1316 c 0,34,35
 757 1341 757 1341 730 1370 c 0,36,37
 659 1440 659 1440 560 1440 c 256,38,39
 461 1440 461 1440 390.5 1369.5 c 128,-1,40
 320 1299 320 1299 320 1200 c 0,41,42
 320 1155 320 1155 339 1110 c 0,43,44
 404 959 404 959 427 800 c 1,45,-1
 720 800 l 2,46,47
 753 800 753 800 776.5 776.5 c 128,-1,48
 800 753 800 753 800 720 c 256,49,50
 800 687 800 687 776.5 663.5 c 128,-1,51
 753 640 753 640 720 640 c 2,52,-1
 439 640 l 1,53,54
 441 408 441 408 356 160 c 1,55,-1
 750 160 l 1,56,-1
 810 280 l 2,57,58
 831 320 831 320 880 320 c 0,59,60
 913 320 913 320 936.5 296.5 c 128,-1,61
 960 273 960 273 960 240 c 0,62,63
 960 219 960 219 951 202 c 2,64,-1
 874 48 l 2,65,66
 868 35 868 35 857 24 c 0,67,68
 833 0 833 0 800 0 c 2,69,-1
 240 0 l 2,0,1
EndSplineSet
EndChar

StartChar: currency
Encoding: 164 164 101
Width: 960
Flags: W
LayerCount: 2
Back
Fore
SplineSet
480 910 m 256,0,1
 414 910 414 910 367 863 c 128,-1,2
 320 816 320 816 320 750 c 256,3,4
 320 684 320 684 367 637 c 128,-1,5
 414 590 414 590 480 590 c 256,6,7
 546 590 546 590 593 637 c 128,-1,8
 640 684 640 684 640 750 c 256,9,10
 640 816 640 816 593 863 c 128,-1,11
 546 910 546 910 480 910 c 256,0,1
714 1097 m 2,12,13
 737 1120 737 1120 770 1120 c 256,14,15
 803 1120 803 1120 826.5 1096.5 c 128,-1,16
 850 1073 850 1073 850 1040 c 256,17,18
 850 1007 850 1007 826 982 c 2,19,-1
 755 916 l 1,20,21
 800 842 800 842 800 750 c 0,22,23
 800 661 800 661 758 589 c 1,24,-1
 827 517 l 2,25,26
 850 493 850 493 850 460 c 256,27,28
 850 427 850 427 826.5 403.5 c 128,-1,29
 803 380 803 380 770 380 c 0,30,31
 738 380 738 380 716 402 c 1,32,-1
 715 401 l 1,33,-1
 646 475 l 1,34,35
 572 430 572 430 480 430 c 0,36,37
 391 430 391 430 320 472 c 1,38,-1
 243 400 l 2,39,40
 221 380 221 380 190 380 c 0,41,42
 157 380 157 380 133.5 403.5 c 128,-1,43
 110 427 110 427 110 460 c 256,44,45
 110 493 110 493 134 517 c 2,46,-1
 206 584 l 1,47,48
 160 657 160 657 160 750 c 0,49,50
 160 839 160 839 202 911 c 1,51,-1
 134 984 l 2,52,53
 110 1007 110 1007 110 1040 c 256,54,55
 110 1073 110 1073 133.5 1096.5 c 128,-1,56
 157 1120 157 1120 190 1120 c 0,57,58
 222 1120 222 1120 245 1099 c 2,59,-1
 314 1025 l 1,60,61
 388 1070 388 1070 480 1070 c 0,62,63
 569 1070 569 1070 641 1028 c 1,64,-1
 714 1097 l 2,12,13
EndSplineSet
EndChar

StartChar: yen
Encoding: 165 165 102
Width: 1280
Flags: W
LayerCount: 2
Back
Fore
SplineSet
160 880 m 2,0,1
 127 880 127 880 103.5 903.5 c 128,-1,2
 80 927 80 927 80 960 c 256,3,4
 80 993 80 993 103.5 1016.5 c 128,-1,5
 127 1040 127 1040 160 1040 c 2,6,-1
 384 1040 l 1,7,-1
 93 1475 l 2,8,9
 80 1495 80 1495 80 1520 c 0,10,11
 80 1553 80 1553 103.5 1576.5 c 128,-1,12
 127 1600 127 1600 160 1600 c 0,13,14
 201 1600 201 1600 225 1567 c 2,15,-1
 640 945 l 1,16,-1
 1055 1567 l 2,17,18
 1079 1600 1079 1600 1120 1600 c 0,19,20
 1153 1600 1153 1600 1176.5 1576.5 c 128,-1,21
 1200 1553 1200 1553 1200 1520 c 0,22,23
 1200 1495 1200 1495 1187 1475 c 2,24,-1
 896 1040 l 1,25,-1
 1121 1040 l 2,26,27
 1153 1040 1153 1040 1177 1017 c 0,28,29
 1200 993 1200 993 1200 960 c 256,30,31
 1200 927 1200 927 1177 904 c 0,32,33
 1153 880 1153 880 1121 880 c 2,34,-1
 789 880 l 1,35,-1
 720 776 l 1,36,-1
 720 640 l 1,37,-1
 1120 640 l 2,38,39
 1153 640 1153 640 1176.5 616.5 c 128,-1,40
 1200 593 1200 593 1200 560 c 256,41,42
 1200 527 1200 527 1176.5 503.5 c 128,-1,43
 1153 480 1153 480 1120 480 c 2,44,-1
 720 480 l 1,45,-1
 720 80 l 2,46,47
 720 47 720 47 696.5 23.5 c 128,-1,48
 673 0 673 0 640 0 c 256,49,50
 607 0 607 0 583.5 23.5 c 128,-1,51
 560 47 560 47 560 80 c 2,52,-1
 560 480 l 1,53,-1
 160 480 l 2,54,55
 127 480 127 480 103.5 503.5 c 128,-1,56
 80 527 80 527 80 560 c 256,57,58
 80 593 80 593 103.5 616.5 c 128,-1,59
 127 640 127 640 160 640 c 2,60,-1
 560 640 l 1,61,-1
 560 776 l 1,62,-1
 491 880 l 1,63,-1
 160 880 l 2,0,1
EndSplineSet
EndChar

StartChar: brokenbar
Encoding: 166 166 103
Width: 480
Flags: W
LayerCount: 2
Back
Fore
SplineSet
160 1680 m 2,0,1
 160 1713 160 1713 183.5 1736.5 c 128,-1,2
 207 1760 207 1760 240 1760 c 256,3,4
 273 1760 273 1760 296.5 1736.5 c 128,-1,5
 320 1713 320 1713 320 1680 c 2,6,-1
 320 960 l 2,7,8
 320 927 320 927 296.5 903.5 c 128,-1,9
 273 880 273 880 240 880 c 256,10,11
 207 880 207 880 183.5 903.5 c 128,-1,12
 160 927 160 927 160 960 c 2,13,-1
 160 1680 l 2,0,1
320 -400 m 2,14,15
 320 -433 320 -433 296.5 -456.5 c 128,-1,16
 273 -480 273 -480 240 -480 c 256,17,18
 207 -480 207 -480 183.5 -456.5 c 128,-1,19
 160 -433 160 -433 160 -400 c 2,20,-1
 160 320 l 2,21,22
 160 353 160 353 183.5 376.5 c 128,-1,23
 207 400 207 400 240 400 c 256,24,25
 273 400 273 400 296.5 376.5 c 128,-1,26
 320 353 320 353 320 320 c 2,27,-1
 320 -400 l 2,14,15
EndSplineSet
EndChar

StartChar: section
Encoding: 167 167 104
Width: 960
Flags: W
LayerCount: 2
Back
Fore
SplineSet
480 160 m 0,0,1
 314 160 314 160 197 277 c 128,-1,2
 80 394 80 394 80 560 c 256,3,4
 80 726 80 726 197 843 c 0,5,6
 217 863 217 863 239 880 c 1,7,8
 217 897 217 897 197 917 c 0,9,10
 80 1034 80 1034 80 1200 c 256,11,12
 80 1366 80 1366 197 1483 c 128,-1,13
 314 1600 314 1600 480 1600 c 256,14,15
 646 1600 646 1600 763 1483 c 128,-1,16
 880 1366 880 1366 880 1200 c 0,17,18
 880 1167 880 1167 856.5 1143.5 c 128,-1,19
 833 1120 833 1120 800 1120 c 256,20,21
 767 1120 767 1120 743.5 1143.5 c 128,-1,22
 720 1167 720 1167 720 1200 c 0,23,24
 720 1299 720 1299 649.5 1369.5 c 128,-1,25
 579 1440 579 1440 480 1440 c 256,26,27
 381 1440 381 1440 310.5 1369.5 c 128,-1,28
 240 1299 240 1299 240 1200 c 256,29,30
 240 1101 240 1101 310.5 1030.5 c 128,-1,31
 381 960 381 960 480 960 c 0,32,33
 646 960 646 960 763 843 c 128,-1,34
 880 726 880 726 880 560 c 256,35,36
 880 394 880 394 763 277 c 0,37,38
 743 257 743 257 721 240 c 1,39,40
 743 223 743 223 763 203 c 0,41,42
 880 86 880 86 880 -80 c 256,43,44
 880 -246 880 -246 763 -363 c 128,-1,45
 646 -480 646 -480 480 -480 c 256,46,47
 314 -480 314 -480 197 -363 c 128,-1,48
 80 -246 80 -246 80 -80 c 0,49,50
 80 -47 80 -47 103.5 -23.5 c 128,-1,51
 127 0 127 0 160 0 c 256,52,53
 193 0 193 0 216.5 -23.5 c 128,-1,54
 240 -47 240 -47 240 -80 c 0,55,56
 240 -179 240 -179 310.5 -249.5 c 128,-1,57
 381 -320 381 -320 480 -320 c 256,58,59
 579 -320 579 -320 649.5 -249.5 c 128,-1,60
 720 -179 720 -179 720 -80 c 256,61,62
 720 19 720 19 649.5 89.5 c 128,-1,63
 579 160 579 160 480 160 c 0,0,1
480 800 m 256,64,65
 381 800 381 800 310.5 729.5 c 128,-1,66
 240 659 240 659 240 560 c 256,67,68
 240 461 240 461 310.5 390.5 c 128,-1,69
 381 320 381 320 480 320 c 256,70,71
 579 320 579 320 649.5 390.5 c 128,-1,72
 720 461 720 461 720 560 c 256,73,74
 720 659 720 659 649.5 729.5 c 128,-1,75
 579 800 579 800 480 800 c 256,64,65
EndSplineSet
EndChar

StartChar: dieresis
Encoding: 168 168 105
Width: 960
Flags: W
LayerCount: 2
Back
Fore
SplineSet
339 1360 m 256,0,1
 339 1319 339 1319 309.5 1289.5 c 128,-1,2
 280 1260 280 1260 239 1260 c 256,3,4
 198 1260 198 1260 168.5 1289.5 c 128,-1,5
 139 1319 139 1319 139 1360 c 256,6,7
 139 1401 139 1401 168.5 1430.5 c 128,-1,8
 198 1460 198 1460 239 1460 c 256,9,10
 280 1460 280 1460 309.5 1430.5 c 128,-1,11
 339 1401 339 1401 339 1360 c 256,0,1
819 1360 m 256,12,13
 819 1319 819 1319 789.5 1289.5 c 128,-1,14
 760 1260 760 1260 719 1260 c 256,15,16
 678 1260 678 1260 648.5 1289.5 c 128,-1,17
 619 1319 619 1319 619 1360 c 256,18,19
 619 1401 619 1401 648.5 1430.5 c 128,-1,20
 678 1460 678 1460 719 1460 c 256,21,22
 760 1460 760 1460 789.5 1430.5 c 128,-1,23
 819 1401 819 1401 819 1360 c 256,12,13
EndSplineSet
EndChar

StartChar: copyright
Encoding: 169 169 106
Width: 1760
Flags: W
LayerCount: 2
Back
Fore
SplineSet
1190 514 m 0,0,1
 1223 514 1223 514 1246.5 490.5 c 128,-1,2
 1270 467 1270 467 1270 434 c 256,3,4
 1270 401 1270 401 1245 375 c 0,5,6
 1090 240 1090 240 880 240 c 0,7,8
 648 240 648 240 484 404 c 128,-1,9
 320 568 320 568 320 800 c 256,10,11
 320 1032 320 1032 484 1196 c 128,-1,12
 648 1360 648 1360 880 1360 c 0,13,14
 1090 1360 1090 1360 1245 1225 c 0,15,16
 1273 1200 1273 1200 1273 1163 c 0,17,18
 1273 1130 1273 1130 1249.5 1106.5 c 128,-1,19
 1226 1083 1226 1083 1193 1083 c 0,20,21
 1164 1083 1164 1083 1142 1101 c 0,22,23
 1030 1200 1030 1200 880 1200 c 0,24,25
 714 1200 714 1200 597 1083 c 128,-1,26
 480 966 480 966 480 800 c 256,27,28
 480 634 480 634 597 517 c 128,-1,29
 714 400 714 400 880 400 c 0,30,31
 1030 400 1030 400 1141 498 c 0,32,33
 1162 514 1162 514 1190 514 c 0,0,1
1675 798 m 0,34,35
 1675 467 1675 467 1441.5 233.5 c 128,-1,36
 1208 0 1208 0 878 0 c 0,37,38
 547 0 547 0 313.5 233.5 c 128,-1,39
 80 467 80 467 80 798 c 0,40,41
 80 1128 80 1128 313.5 1361.5 c 128,-1,42
 547 1595 547 1595 878 1595 c 0,43,44
 1208 1595 1208 1595 1441.5 1361.5 c 128,-1,45
 1675 1128 1675 1128 1675 798 c 0,34,35
878 1472 m 0,46,47
 598 1472 598 1472 400.5 1274.5 c 128,-1,48
 203 1077 203 1077 203 798 c 0,49,50
 203 518 203 518 400.5 320.5 c 128,-1,51
 598 123 598 123 878 123 c 0,52,53
 1157 123 1157 123 1354.5 320.5 c 128,-1,54
 1552 518 1552 518 1552 798 c 0,55,56
 1552 1077 1552 1077 1354.5 1274.5 c 128,-1,57
 1157 1472 1157 1472 878 1472 c 0,46,47
EndSplineSet
EndChar

StartChar: ordfeminine
Encoding: 170 170 107
Width: 960
Flags: W
LayerCount: 2
Back
Fore
SplineSet
480 1440 m 256,0,1
 381 1440 381 1440 310.5 1369.5 c 128,-1,2
 240 1299 240 1299 240 1200 c 256,3,4
 240 1101 240 1101 310.5 1030.5 c 128,-1,5
 381 960 381 960 480 960 c 256,6,7
 579 960 579 960 649.5 1030.5 c 128,-1,8
 720 1101 720 1101 720 1200 c 256,9,10
 720 1299 720 1299 649.5 1369.5 c 128,-1,11
 579 1440 579 1440 480 1440 c 256,0,1
720 879 m 1,12,13
 617 800 617 800 480 800 c 0,14,15
 314 800 314 800 197 917 c 128,-1,16
 80 1034 80 1034 80 1200 c 256,17,18
 80 1366 80 1366 197 1483 c 128,-1,19
 314 1600 314 1600 480 1600 c 256,20,21
 646 1600 646 1600 763 1483 c 128,-1,22
 880 1366 880 1366 880 1200 c 2,23,-1
 880 880 l 2,24,25
 880 847 880 847 856.5 823.5 c 128,-1,26
 833 800 833 800 800 800 c 256,27,28
 767 800 767 800 744 824 c 0,29,30
 720 847 720 847 720 879 c 1,12,13
EndSplineSet
EndChar

StartChar: guillemotleft
Encoding: 171 171 108
Width: 960
Flags: W
LayerCount: 2
Back
Fore
SplineSet
90 598 m 2,0,-1
 326 1070 l 2,1,2
 332 1084 332 1084 344 1096 c 0,3,4
 367 1119 367 1119 400 1119 c 256,5,6
 433 1119 433 1119 456.5 1095.5 c 128,-1,7
 480 1072 480 1072 480 1039 c 0,8,9
 480 1021 480 1021 473 1005 c 2,10,-1
 250 560 l 1,11,-1
 473 114 l 2,12,13
 480 98 480 98 480 80 c 0,14,15
 480 47 480 47 456.5 23.5 c 128,-1,16
 433 0 433 0 400 0 c 256,17,18
 367 0 367 0 344 24 c 0,19,20
 332 35 332 35 326 49 c 2,21,-1
 92 516 l 2,22,23
 80 538 80 538 80 559 c 0,24,25
 80 579 80 579 90 598 c 2,0,-1
490 598 m 2,26,-1
 726 1070 l 2,27,28
 732 1084 732 1084 744 1096 c 0,29,30
 767 1119 767 1119 800 1119 c 256,31,32
 833 1119 833 1119 856.5 1095.5 c 128,-1,33
 880 1072 880 1072 880 1039 c 0,34,35
 880 1021 880 1021 873 1005 c 2,36,-1
 650 560 l 1,37,-1
 873 114 l 2,38,39
 880 98 880 98 880 80 c 0,40,41
 880 47 880 47 856.5 23.5 c 128,-1,42
 833 0 833 0 800 0 c 256,43,44
 767 0 767 0 744 24 c 0,45,46
 732 35 732 35 726 49 c 2,47,-1
 492 516 l 2,48,49
 480 538 480 538 480 559 c 0,50,51
 480 579 480 579 490 598 c 2,26,-1
EndSplineSet
EndChar

StartChar: logicalnot
Encoding: 172 172 109
Width: 1120
Flags: W
LayerCount: 2
Back
Fore
SplineSet
160 960 m 2,0,1
 127 960 127 960 103.5 983.5 c 128,-1,2
 80 1007 80 1007 80 1040 c 256,3,4
 80 1073 80 1073 103.5 1096.5 c 128,-1,5
 127 1120 127 1120 160 1120 c 2,6,-1
 960 1120 l 2,7,8
 993 1120 993 1120 1016.5 1096.5 c 128,-1,9
 1040 1073 1040 1073 1040 1040 c 2,10,-1
 1040 720 l 2,11,12
 1040 687 1040 687 1016.5 663.5 c 128,-1,13
 993 640 993 640 960 640 c 256,14,15
 927 640 927 640 903.5 663.5 c 128,-1,16
 880 687 880 687 880 720 c 2,17,-1
 880 960 l 1,18,-1
 160 960 l 2,0,1
EndSplineSet
EndChar

StartChar: registered
Encoding: 174 174 110
Width: 1760
Flags: W
LayerCount: 2
Back
Fore
SplineSet
1675 798 m 0,0,1
 1675 467 1675 467 1441.5 233.5 c 128,-1,2
 1208 0 1208 0 878 0 c 0,3,4
 547 0 547 0 313.5 233.5 c 128,-1,5
 80 467 80 467 80 798 c 0,6,7
 80 1128 80 1128 313.5 1361.5 c 128,-1,8
 547 1595 547 1595 878 1595 c 0,9,10
 1208 1595 1208 1595 1441.5 1361.5 c 128,-1,11
 1675 1128 1675 1128 1675 798 c 0,0,1
878 1472 m 0,12,13
 598 1472 598 1472 400.5 1274.5 c 128,-1,14
 203 1077 203 1077 203 798 c 0,15,16
 203 518 203 518 400.5 320.5 c 128,-1,17
 598 123 598 123 878 123 c 0,18,19
 1157 123 1157 123 1354.5 320.5 c 128,-1,20
 1552 518 1552 518 1552 798 c 0,21,22
 1552 1077 1552 1077 1354.5 1274.5 c 128,-1,23
 1157 1472 1157 1472 878 1472 c 0,12,13
665 1217 m 1,24,-1
 665 798 l 1,25,-1
 875 798 l 2,26,27
 962 798 962 798 1023.5 859 c 128,-1,28
 1085 920 1085 920 1085 1008 c 0,29,30
 1085 1095 1085 1095 1023.5 1156 c 128,-1,31
 962 1217 962 1217 875 1217 c 2,32,-1
 665 1217 l 1,24,-1
612 1322 m 2,33,-1
 875 1322 l 2,34,35
 1005 1322 1005 1322 1097.5 1230 c 128,-1,36
 1190 1138 1190 1138 1190 1008 c 0,37,38
 1190 877 1190 877 1097 785 c 0,39,40
 1055 743 1055 743 1005 720 c 1,41,-1
 1233 354 l 2,42,43
 1242 342 1242 342 1242 326 c 0,44,45
 1242 304 1242 304 1226.5 288.5 c 128,-1,46
 1211 273 1211 273 1190 273 c 0,47,48
 1161 273 1161 273 1144 300 c 2,49,-1
 898 694 l 1,50,51
 886 693 886 693 875 693 c 2,52,-1
 665 693 l 1,53,-1
 665 326 l 2,54,55
 665 304 665 304 649.5 288.5 c 128,-1,56
 634 273 634 273 612 273 c 0,57,58
 591 273 591 273 575.5 288.5 c 128,-1,59
 560 304 560 304 560 326 c 2,60,-1
 560 1270 l 2,61,62
 560 1292 560 1292 575.5 1307 c 128,-1,63
 591 1322 591 1322 612 1322 c 2,33,-1
EndSplineSet
EndChar

StartChar: macron
Encoding: 175 175 111
Width: 1120
Flags: W
LayerCount: 2
Back
Fore
SplineSet
160 1760 m 2,0,1
 127 1760 127 1760 103.5 1783.5 c 128,-1,2
 80 1807 80 1807 80 1840 c 256,3,4
 80 1873 80 1873 103.5 1896.5 c 128,-1,5
 127 1920 127 1920 160 1920 c 2,6,-1
 960 1920 l 2,7,8
 993 1920 993 1920 1016.5 1896.5 c 128,-1,9
 1040 1873 1040 1873 1040 1840 c 256,10,11
 1040 1807 1040 1807 1016.5 1783.5 c 128,-1,12
 993 1760 993 1760 960 1760 c 2,13,-1
 160 1760 l 2,0,1
EndSplineSet
EndChar

StartChar: degree
Encoding: 176 176 112
Width: 960
Flags: W
LayerCount: 2
Back
Fore
SplineSet
880 1200 m 256,0,1
 880 1034 880 1034 763 917 c 128,-1,2
 646 800 646 800 480 800 c 256,3,4
 314 800 314 800 197 917 c 128,-1,5
 80 1034 80 1034 80 1200 c 256,6,7
 80 1366 80 1366 197 1483 c 128,-1,8
 314 1600 314 1600 480 1600 c 256,9,10
 646 1600 646 1600 763 1483 c 128,-1,11
 880 1366 880 1366 880 1200 c 256,0,1
480 1440 m 256,12,13
 381 1440 381 1440 310.5 1369.5 c 128,-1,14
 240 1299 240 1299 240 1200 c 256,15,16
 240 1101 240 1101 310.5 1030.5 c 128,-1,17
 381 960 381 960 480 960 c 256,18,19
 579 960 579 960 649.5 1030.5 c 128,-1,20
 720 1101 720 1101 720 1200 c 256,21,22
 720 1299 720 1299 649.5 1369.5 c 128,-1,23
 579 1440 579 1440 480 1440 c 256,12,13
EndSplineSet
EndChar

StartChar: plusminus
Encoding: 177 177 113
Width: 1120
Flags: W
LayerCount: 2
Back
Fore
SplineSet
480 1200 m 2,0,1
 480 1233 480 1233 503.5 1256.5 c 128,-1,2
 527 1280 527 1280 560 1280 c 256,3,4
 593 1280 593 1280 616.5 1256.5 c 128,-1,5
 640 1233 640 1233 640 1200 c 2,6,-1
 640 880 l 1,7,-1
 960 880 l 2,8,9
 993 880 993 880 1016.5 856.5 c 128,-1,10
 1040 833 1040 833 1040 800 c 256,11,12
 1040 767 1040 767 1016.5 743.5 c 128,-1,13
 993 720 993 720 960 720 c 2,14,-1
 640 720 l 1,15,-1
 640 400 l 2,16,17
 640 367 640 367 616.5 343.5 c 128,-1,18
 593 320 593 320 560 320 c 256,19,20
 527 320 527 320 503.5 343.5 c 128,-1,21
 480 367 480 367 480 400 c 2,22,-1
 480 720 l 1,23,-1
 160 720 l 2,24,25
 127 720 127 720 103.5 743.5 c 128,-1,26
 80 767 80 767 80 800 c 256,27,28
 80 833 80 833 103.5 856.5 c 128,-1,29
 127 880 127 880 160 880 c 2,30,-1
 480 880 l 1,31,-1
 480 1200 l 2,0,1
160 0 m 2,32,33
 127 0 127 0 103.5 23.5 c 128,-1,34
 80 47 80 47 80 80 c 256,35,36
 80 113 80 113 103.5 136.5 c 128,-1,37
 127 160 127 160 160 160 c 2,38,-1
 960 160 l 2,39,40
 993 160 993 160 1016.5 136.5 c 128,-1,41
 1040 113 1040 113 1040 80 c 256,42,43
 1040 47 1040 47 1016.5 23.5 c 128,-1,44
 993 0 993 0 960 0 c 2,45,-1
 160 0 l 2,32,33
EndSplineSet
EndChar

StartChar: uni00B2
Encoding: 178 178 114
Width: 640
Flags: W
LayerCount: 2
Back
Fore
SplineSet
516 887 m 2,0,1
 532 887 532 887 543.5 875.5 c 128,-1,2
 555 864 555 864 555 848 c 0,3,4
 555 831 555 831 543.5 819.5 c 128,-1,5
 532 808 532 808 516 808 c 2,6,-1
 120 808 l 2,7,8
 103 808 103 808 91.5 819.5 c 128,-1,9
 80 831 80 831 80 848 c 0,10,11
 80 864 80 864 91 876 c 2,12,-1
 429 1250 l 2,13,14
 476 1297 476 1297 476 1362 c 0,15,16
 476 1428 476 1428 429.5 1474.5 c 128,-1,17
 383 1521 383 1521 318 1521 c 0,18,19
 252 1521 252 1521 205.5 1474.5 c 128,-1,20
 159 1428 159 1428 159 1362 c 0,21,22
 159 1346 159 1346 147.5 1334.5 c 128,-1,23
 136 1323 136 1323 120 1323 c 0,24,25
 103 1323 103 1323 91.5 1334.5 c 128,-1,26
 80 1346 80 1346 80 1362 c 0,27,28
 80 1461 80 1461 149.5 1530.5 c 128,-1,29
 219 1600 219 1600 318 1600 c 0,30,31
 416 1600 416 1600 485.5 1530.5 c 128,-1,32
 555 1461 555 1461 555 1362 c 0,33,34
 555 1264 555 1264 485 1194 c 1,35,-1
 209 887 l 1,36,-1
 516 887 l 2,0,1
EndSplineSet
EndChar

StartChar: uni00B3
Encoding: 179 179 115
Width: 640
Flags: W
LayerCount: 2
Back
Fore
SplineSet
320 1201 m 0,0,1
 303 1201 303 1201 291.5 1212.5 c 128,-1,2
 280 1224 280 1224 280 1241 c 0,3,4
 280 1257 280 1257 291.5 1269 c 128,-1,5
 303 1281 303 1281 320 1281 c 0,6,7
 369 1281 369 1281 404 1316 c 128,-1,8
 439 1351 439 1351 439 1400 c 0,9,10
 439 1450 439 1450 404 1485 c 128,-1,11
 369 1520 369 1520 320 1520 c 0,12,13
 270 1520 270 1520 235 1485 c 128,-1,14
 200 1450 200 1450 200 1400 c 0,15,16
 200 1384 200 1384 188 1372.5 c 128,-1,17
 176 1361 176 1361 160 1361 c 0,18,19
 143 1361 143 1361 131.5 1372.5 c 128,-1,20
 120 1384 120 1384 120 1400 c 0,21,22
 120 1483 120 1483 178.5 1541.5 c 128,-1,23
 237 1600 237 1600 320 1600 c 0,24,25
 402 1600 402 1600 460.5 1541.5 c 128,-1,26
 519 1483 519 1483 519 1400 c 0,27,28
 519 1308 519 1308 446 1245 c 1,29,30
 469 1231 469 1231 489 1211 c 0,31,32
 559 1140 559 1140 559 1041 c 256,33,34
 559 942 559 942 489 872 c 128,-1,35
 419 802 419 802 320 802 c 0,36,37
 220 802 220 802 150 872 c 128,-1,38
 80 942 80 942 80 1041 c 0,39,40
 80 1058 80 1058 91.5 1069.5 c 128,-1,41
 103 1081 103 1081 120 1081 c 0,42,43
 136 1081 136 1081 148 1069.5 c 128,-1,44
 160 1058 160 1058 160 1041 c 0,45,46
 160 975 160 975 206.5 928.5 c 128,-1,47
 253 882 253 882 320 882 c 0,48,49
 386 882 386 882 432.5 928.5 c 128,-1,50
 479 975 479 975 479 1041 c 0,51,52
 479 1108 479 1108 432.5 1154.5 c 128,-1,53
 386 1201 386 1201 320 1201 c 0,0,1
EndSplineSet
EndChar

StartChar: acute
Encoding: 180 180 116
Width: 560
Flags: W
LayerCount: 2
Back
Fore
SplineSet
458 1464 m 2,0,-1
 215 1221 l 2,1,2
 192 1200 192 1200 160 1200 c 0,3,4
 127 1200 127 1200 103.5 1223.5 c 128,-1,5
 80 1247 80 1247 80 1280 c 0,6,7
 80 1311 80 1311 100 1334 c 2,8,-1
 343 1577 l 2,9,10
 367 1600 367 1600 400 1600 c 256,11,12
 433 1600 433 1600 456.5 1576.5 c 128,-1,13
 480 1553 480 1553 480 1520 c 0,14,15
 480 1488 480 1488 458 1464 c 2,0,-1
EndSplineSet
EndChar

StartChar: mu
Encoding: 181 181 117
Width: 1200
Flags: W
LayerCount: 2
Back
Fore
SplineSet
240 520 m 2,0,1
 240 371 240 371 345.5 265.5 c 128,-1,2
 451 160 451 160 600 160 c 256,3,4
 749 160 749 160 854.5 265.5 c 128,-1,5
 960 371 960 371 960 520 c 2,6,-1
 960 1040 l 2,7,8
 960 1073 960 1073 983.5 1096.5 c 128,-1,9
 1007 1120 1007 1120 1040 1120 c 256,10,11
 1073 1120 1073 1120 1096.5 1096.5 c 128,-1,12
 1120 1073 1120 1073 1120 1040 c 2,13,-1
 1120 80 l 2,14,15
 1120 47 1120 47 1096.5 23.5 c 128,-1,16
 1073 0 1073 0 1040 0 c 256,17,18
 1007 0 1007 0 983.5 23.5 c 128,-1,19
 960 47 960 47 960 80 c 2,20,-1
 960 145 l 1,21,22
 810 0 810 0 600 0 c 256,23,24
 390 0 390 0 240 145 c 1,25,-1
 240 -400 l 2,26,27
 240 -433 240 -433 216.5 -456.5 c 128,-1,28
 193 -480 193 -480 160 -480 c 256,29,30
 127 -480 127 -480 103.5 -456.5 c 128,-1,31
 80 -433 80 -433 80 -400 c 2,32,-1
 80 1040 l 2,33,34
 80 1073 80 1073 103.5 1096.5 c 128,-1,35
 127 1120 127 1120 160 1120 c 256,36,37
 193 1120 193 1120 216.5 1096.5 c 128,-1,38
 240 1073 240 1073 240 1040 c 2,39,-1
 240 520 l 2,0,1
EndSplineSet
EndChar

StartChar: paragraph
Encoding: 182 182 118
Width: 1120
Flags: W
LayerCount: 2
Back
Fore
SplineSet
960 80 m 2,0,1
 960 47 960 47 936.5 23.5 c 128,-1,2
 913 0 913 0 880 0 c 256,3,4
 847 0 847 0 823.5 23.5 c 128,-1,5
 800 47 800 47 800 80 c 2,6,-1
 800 1440 l 1,7,-1
 640 1440 l 1,8,-1
 640 80 l 2,9,10
 640 47 640 47 616.5 23.5 c 128,-1,11
 593 0 593 0 560 0 c 256,12,13
 527 0 527 0 503.5 23.5 c 128,-1,14
 480 47 480 47 480 80 c 2,15,-1
 480 800 l 1,16,17
 314 800 314 800 197 917 c 128,-1,18
 80 1034 80 1034 80 1200 c 256,19,20
 80 1366 80 1366 197 1483 c 128,-1,21
 314 1600 314 1600 480 1600 c 2,22,-1
 960 1600 l 2,23,24
 993 1600 993 1600 1016.5 1576.5 c 128,-1,25
 1040 1553 1040 1553 1040 1520 c 256,26,27
 1040 1487 1040 1487 1016.5 1463.5 c 128,-1,28
 993 1440 993 1440 960 1440 c 1,29,-1
 960 80 l 2,0,1
EndSplineSet
EndChar

StartChar: periodcentered
Encoding: 183 183 119
AltUni2: 002219.ffffffff.0
Width: 400
Flags: W
LayerCount: 2
Back
Fore
SplineSet
320 760 m 256,0,1
 320 710 320 710 285 675 c 128,-1,2
 250 640 250 640 200 640 c 256,3,4
 150 640 150 640 115 675 c 128,-1,5
 80 710 80 710 80 760 c 256,6,7
 80 810 80 810 115 845 c 128,-1,8
 150 880 150 880 200 880 c 256,9,10
 250 880 250 880 285 845 c 128,-1,11
 320 810 320 810 320 760 c 256,0,1
EndSplineSet
EndChar

StartChar: cedilla
Encoding: 184 184 120
Width: 640
Flags: W
LayerCount: 2
Back
Fore
SplineSet
304 57 m 0,0,1
 327 80 327 80 360 80 c 256,2,3
 393 80 393 80 416.5 56.5 c 128,-1,4
 440 33 440 33 440 0 c 0,5,6
 440 -10 440 -10 438 -19 c 2,7,-1
 421 -79 l 1,8,9
 458 -94 458 -94 490 -120 c 0,10,11
 560 -181 560 -181 560 -270 c 256,12,13
 560 -359 560 -359 489.5 -419.5 c 128,-1,14
 419 -480 419 -480 320 -480 c 0,15,16
 261 -480 261 -480 206 -451 c 2,17,-1
 115 -397 l 1,18,19
 80 -368 80 -368 80 -330 c 0,20,21
 80 -297 80 -297 103.5 -273.5 c 128,-1,22
 127 -250 127 -250 160 -250 c 0,23,24
 184 -250 184 -250 203 -262 c 2,25,-1
 281 -310 l 2,26,27
 300 -320 300 -320 320 -320 c 0,28,29
 353 -320 353 -320 376.5 -306.5 c 128,-1,30
 400 -293 400 -293 400 -270 c 256,31,32
 400 -247 400 -247 376.5 -233.5 c 128,-1,33
 353 -220 353 -220 320 -220 c 256,34,35
 287 -220 287 -220 263.5 -196.5 c 128,-1,36
 240 -173 240 -173 240 -140 c 0,37,38
 240 -126 240 -126 244 -114 c 2,39,-1
 283 23 l 2,40,41
 289 42 289 42 304 57 c 0,0,1
EndSplineSet
EndChar

StartChar: uni00B9
Encoding: 185 185 121
Width: 480
Flags: W
LayerCount: 2
Back
Fore
SplineSet
319 845 m 2,0,1
 319 828 319 828 307 816.5 c 128,-1,2
 295 805 295 805 279 805 c 256,3,4
 263 805 263 805 251 816.5 c 128,-1,5
 239 828 239 828 239 845 c 2,6,-1
 239 1505 l 1,7,-1
 175 1484 l 2,8,9
 168 1481 168 1481 160 1481 c 0,10,11
 143 1481 143 1481 131.5 1492.5 c 128,-1,12
 120 1504 120 1504 120 1521 c 0,13,14
 120 1537 120 1537 132 1549 c 0,15,16
 138 1555 138 1555 145 1558 c 2,17,-1
 265 1598 l 2,18,19
 271 1600 271 1600 279 1600 c 0,20,21
 295 1600 295 1600 307 1588.5 c 128,-1,22
 319 1577 319 1577 319 1560 c 2,23,-1
 319 845 l 2,0,1
EndSplineSet
EndChar

StartChar: ordmasculine
Encoding: 186 186 122
Width: 640
Flags: W
LayerCount: 2
Back
Fore
SplineSet
80 1203 m 0,0,1
 80 1441 80 1441 178 1542 c 0,2,3
 236 1600 236 1600 319 1600 c 0,4,5
 401 1600 401 1600 459 1542 c 0,6,7
 557 1441 557 1441 557 1203 c 0,8,9
 557 964 557 964 459 863 c 0,10,11
 401 805 401 805 319 805 c 0,12,13
 236 805 236 805 178 863 c 0,14,15
 80 964 80 964 80 1203 c 0,0,1
319 1521 m 0,16,17
 269 1521 269 1521 234 1485 c 0,18,19
 160 1401 160 1401 160 1203 c 0,20,21
 160 1004 160 1004 234 920 c 0,22,23
 269 885 269 885 319 885 c 0,24,25
 368 885 368 885 403 920 c 0,26,27
 478 1004 478 1004 478 1203 c 0,28,29
 478 1401 478 1401 403 1485 c 0,30,31
 368 1521 368 1521 319 1521 c 0,16,17
EndSplineSet
EndChar

StartChar: guillemotright
Encoding: 187 187 123
Width: 960
Flags: W
LayerCount: 2
Back
Fore
SplineSet
880 559 m 0,0,1
 880 538 880 538 868 516 c 2,2,-1
 634 49 l 2,3,4
 628 35 628 35 616 24 c 0,5,6
 593 0 593 0 560 0 c 256,7,8
 527 0 527 0 503.5 23.5 c 128,-1,9
 480 47 480 47 480 80 c 0,10,11
 480 98 480 98 487 114 c 2,12,-1
 710 560 l 1,13,-1
 487 1005 l 2,14,15
 480 1021 480 1021 480 1039 c 0,16,17
 480 1072 480 1072 503.5 1095.5 c 128,-1,18
 527 1119 527 1119 560 1119 c 256,19,20
 593 1119 593 1119 616 1096 c 0,21,22
 628 1084 628 1084 634 1070 c 2,23,-1
 870 598 l 2,24,25
 880 579 880 579 880 559 c 0,0,1
480 559 m 0,26,27
 480 538 480 538 468 516 c 2,28,-1
 234 49 l 2,29,30
 228 35 228 35 216 24 c 0,31,32
 193 0 193 0 160 0 c 256,33,34
 127 0 127 0 103.5 23.5 c 128,-1,35
 80 47 80 47 80 80 c 0,36,37
 80 98 80 98 87 114 c 2,38,-1
 310 560 l 1,39,-1
 87 1005 l 2,40,41
 80 1021 80 1021 80 1039 c 0,42,43
 80 1072 80 1072 103.5 1095.5 c 128,-1,44
 127 1119 127 1119 160 1119 c 256,45,46
 193 1119 193 1119 216 1096 c 0,47,48
 228 1084 228 1084 234 1070 c 2,49,-1
 470 598 l 2,50,51
 480 579 480 579 480 559 c 0,26,27
EndSplineSet
EndChar

StartChar: onequarter
Encoding: 188 188 124
Width: 1440
Flags: W
LayerCount: 2
Back
Fore
SplineSet
1200 1600 m 0,0,1
 1233 1600 1233 1600 1256.5 1576.5 c 128,-1,2
 1280 1553 1280 1553 1280 1520 c 0,3,4
 1280 1496 1280 1496 1268 1477 c 2,5,-1
 310 41 l 2,6,7
 283 0 283 0 240 0 c 0,8,9
 207 0 207 0 183.5 23.5 c 128,-1,10
 160 47 160 47 160 80 c 0,11,12
 160 104 160 104 172 123 c 2,13,-1
 1136 1569 l 2,14,15
 1157 1600 1157 1600 1200 1600 c 0,0,1
320 688 m 2,16,17
 320 668 320 668 306 654 c 128,-1,18
 292 640 292 640 272 640 c 256,19,20
 252 640 252 640 238 654 c 128,-1,21
 224 668 224 668 224 688 c 2,22,-1
 224 1486 l 1,23,-1
 147 1460 l 2,24,25
 138 1457 138 1457 128 1457 c 0,26,27
 108 1457 108 1457 94 1471 c 128,-1,28
 80 1485 80 1485 80 1505 c 256,29,30
 80 1525 80 1525 94 1539 c 0,31,32
 102 1546 102 1546 111 1550 c 2,33,-1
 255 1598 l 2,34,35
 263 1601 263 1601 272 1601 c 0,36,37
 292 1601 292 1601 306 1587 c 128,-1,38
 320 1573 320 1573 320 1553 c 2,39,-1
 320 688 l 2,16,17
1120 336 m 1,40,-1
 1120 758 l 1,41,-1
 828 336 l 1,42,-1
 1120 336 l 1,40,-1
736 240 m 2,43,44
 716 240 716 240 702 254 c 128,-1,45
 688 268 688 268 688 288 c 0,46,47
 688 304 688 304 697 316 c 2,48,-1
 1129 940 l 2,49,50
 1131 943 1131 943 1134 946 c 0,51,52
 1148 960 1148 960 1168 960 c 256,53,54
 1188 960 1188 960 1202 946 c 128,-1,55
 1216 932 1216 932 1216 912 c 2,56,-1
 1216 336 l 1,57,-1
 1312 336 l 2,58,59
 1332 336 1332 336 1346 322 c 128,-1,60
 1360 308 1360 308 1360 288 c 256,61,62
 1360 268 1360 268 1346 254 c 128,-1,63
 1332 240 1332 240 1312 240 c 2,64,-1
 1216 240 l 1,65,-1
 1216 48 l 2,66,67
 1216 28 1216 28 1202 14 c 128,-1,68
 1188 0 1188 0 1168 0 c 256,69,70
 1148 0 1148 0 1134 14 c 128,-1,71
 1120 28 1120 28 1120 48 c 2,72,-1
 1120 240 l 1,73,-1
 736 240 l 2,43,44
EndSplineSet
EndChar

StartChar: onehalf
Encoding: 189 189 125
Width: 1600
Flags: W
LayerCount: 2
Back
Fore
SplineSet
1200 1600 m 0,0,1
 1233 1600 1233 1600 1256.5 1576.5 c 128,-1,2
 1280 1553 1280 1553 1280 1520 c 0,3,4
 1280 1496 1280 1496 1268 1477 c 2,5,-1
 310 41 l 2,6,7
 283 0 283 0 240 0 c 0,8,9
 207 0 207 0 183.5 23.5 c 128,-1,10
 160 47 160 47 160 80 c 0,11,12
 160 104 160 104 172 123 c 2,13,-1
 1136 1569 l 2,14,15
 1157 1600 1157 1600 1200 1600 c 0,0,1
320 688 m 2,16,17
 320 668 320 668 306 654 c 128,-1,18
 292 640 292 640 272 640 c 256,19,20
 252 640 252 640 238 654 c 128,-1,21
 224 668 224 668 224 688 c 2,22,-1
 224 1486 l 1,23,-1
 147 1460 l 2,24,25
 138 1457 138 1457 128 1457 c 0,26,27
 108 1457 108 1457 94 1471 c 128,-1,28
 80 1485 80 1485 80 1505 c 256,29,30
 80 1525 80 1525 94 1539 c 0,31,32
 102 1546 102 1546 111 1550 c 2,33,-1
 255 1598 l 2,34,35
 263 1601 263 1601 272 1601 c 0,36,37
 292 1601 292 1601 306 1587 c 128,-1,38
 320 1573 320 1573 320 1553 c 2,39,-1
 320 688 l 2,16,17
1472 96 m 2,40,41
 1491 96 1491 96 1505.5 82 c 128,-1,42
 1520 68 1520 68 1520 48 c 256,43,44
 1520 28 1520 28 1505.5 14 c 128,-1,45
 1491 0 1491 0 1472 0 c 2,46,-1
 991 0 l 2,47,48
 971 0 971 0 957 14 c 128,-1,49
 943 28 943 28 943 48 c 256,50,51
 943 68 943 68 957 82 c 2,52,-1
 1367 536 l 1,53,54
 1424 593 1424 593 1424 673 c 256,55,56
 1424 753 1424 753 1367.5 809 c 128,-1,57
 1311 865 1311 865 1231 865 c 256,58,59
 1151 865 1151 865 1095 809 c 128,-1,60
 1039 753 1039 753 1039 673 c 0,61,62
 1039 653 1039 653 1025 639 c 128,-1,63
 1011 625 1011 625 991 625 c 256,64,65
 971 625 971 625 957 639 c 128,-1,66
 943 653 943 653 943 673 c 0,67,68
 943 792 943 792 1027.5 876.5 c 128,-1,69
 1112 961 1112 961 1231 961 c 0,70,71
 1351 961 1351 961 1435.5 876.5 c 128,-1,72
 1520 792 1520 792 1520 673 c 0,73,74
 1520 553 1520 553 1435 468 c 1,75,-1
 1100 96 l 1,76,-1
 1472 96 l 2,40,41
EndSplineSet
EndChar

StartChar: threequarters
Encoding: 190 190 126
Width: 1600
Flags: W
LayerCount: 2
Back
Fore
SplineSet
1360 1600 m 0,0,1
 1393 1600 1393 1600 1416.5 1576.5 c 128,-1,2
 1440 1553 1440 1553 1440 1520 c 0,3,4
 1440 1496 1440 1496 1428 1477 c 2,5,-1
 470 41 l 2,6,7
 443 0 443 0 400 0 c 0,8,9
 367 0 367 0 343.5 23.5 c 128,-1,10
 320 47 320 47 320 80 c 0,11,12
 320 104 320 104 332 123 c 2,13,-1
 1296 1569 l 2,14,15
 1317 1600 1317 1600 1360 1600 c 0,0,1
1280 336 m 1,16,-1
 1280 758 l 1,17,-1
 988 336 l 1,18,-1
 1280 336 l 1,16,-1
896 240 m 2,19,20
 876 240 876 240 862 254 c 128,-1,21
 848 268 848 268 848 288 c 0,22,23
 848 304 848 304 857 316 c 2,24,-1
 1289 940 l 2,25,26
 1291 943 1291 943 1294 946 c 0,27,28
 1308 960 1308 960 1328 960 c 256,29,30
 1348 960 1348 960 1362 946 c 128,-1,31
 1376 932 1376 932 1376 912 c 2,32,-1
 1376 336 l 1,33,-1
 1472 336 l 2,34,35
 1492 336 1492 336 1506 322 c 128,-1,36
 1520 308 1520 308 1520 288 c 256,37,38
 1520 268 1520 268 1506 254 c 128,-1,39
 1492 240 1492 240 1472 240 c 2,40,-1
 1376 240 l 1,41,-1
 1376 48 l 2,42,43
 1376 28 1376 28 1362 14 c 128,-1,44
 1348 0 1348 0 1328 0 c 256,45,46
 1308 0 1308 0 1294 14 c 128,-1,47
 1280 28 1280 28 1280 48 c 2,48,-1
 1280 240 l 1,49,-1
 896 240 l 2,19,20
367 1119 m 0,50,51
 347 1119 347 1119 333 1133 c 128,-1,52
 319 1147 319 1147 319 1167 c 0,53,54
 319 1186 319 1186 333 1200 c 128,-1,55
 347 1214 347 1214 367 1214 c 0,56,57
 426 1214 426 1214 468.5 1256.5 c 128,-1,58
 511 1299 511 1299 511 1358 c 256,59,60
 511 1417 511 1417 468.5 1459 c 128,-1,61
 426 1501 426 1501 367 1501 c 256,62,63
 308 1501 308 1501 266 1459 c 128,-1,64
 224 1417 224 1417 224 1358 c 0,65,66
 224 1338 224 1338 209.5 1324 c 128,-1,67
 195 1310 195 1310 176 1310 c 0,68,69
 156 1310 156 1310 142 1324 c 128,-1,70
 128 1338 128 1338 128 1358 c 0,71,72
 128 1457 128 1457 198 1527 c 128,-1,73
 268 1597 268 1597 367 1597 c 256,74,75
 466 1597 466 1597 536 1527 c 128,-1,76
 606 1457 606 1457 606 1358 c 256,77,78
 606 1259 606 1259 536 1189 c 0,79,80
 527 1180 527 1180 518 1172 c 1,81,82
 546 1155 546 1155 570 1131 c 0,83,84
 654 1046 654 1046 654 927 c 256,85,86
 654 808 654 808 570 724 c 128,-1,87
 486 640 486 640 367 640 c 256,88,89
 248 640 248 640 164 724 c 128,-1,90
 80 808 80 808 80 927 c 0,91,92
 80 947 80 947 94 961 c 128,-1,93
 108 975 108 975 128 975 c 256,94,95
 148 975 148 975 162 961 c 128,-1,96
 176 947 176 947 176 927 c 0,97,98
 176 848 176 848 231.5 792 c 128,-1,99
 287 736 287 736 367 736 c 256,100,101
 447 736 447 736 502.5 792 c 128,-1,102
 558 848 558 848 558 927 c 0,103,104
 558 1007 558 1007 502.5 1063 c 128,-1,105
 447 1119 447 1119 367 1119 c 0,50,51
EndSplineSet
EndChar

StartChar: questiondown
Encoding: 191 191 127
Width: 1120
Flags: W
LayerCount: 2
Back
Fore
SplineSet
560 -320 m 256,0,1
 693 -320 693 -320 786.5 -226.5 c 128,-1,2
 880 -133 880 -133 880 0 c 256,3,4
 880 133 880 133 786 227 c 1,5,-1
 621 380 l 1,6,7
 480 521 480 521 480 720 c 0,8,9
 480 753 480 753 503.5 776.5 c 128,-1,10
 527 800 527 800 560 800 c 256,11,12
 593 800 593 800 616.5 776.5 c 128,-1,13
 640 753 640 753 640 720 c 0,14,15
 640 587 640 587 734 493 c 1,16,-1
 899 340 l 1,17,18
 1040 199 1040 199 1040 0 c 256,19,20
 1040 -199 1040 -199 899.5 -339.5 c 128,-1,21
 759 -480 759 -480 560 -480 c 256,22,23
 361 -480 361 -480 220.5 -339.5 c 128,-1,24
 80 -199 80 -199 80 0 c 0,25,26
 80 33 80 33 103.5 56.5 c 128,-1,27
 127 80 127 80 160 80 c 256,28,29
 193 80 193 80 216.5 56.5 c 128,-1,30
 240 33 240 33 240 0 c 0,31,32
 240 -133 240 -133 333.5 -226.5 c 128,-1,33
 427 -320 427 -320 560 -320 c 256,0,1
560 879 m 256,34,35
 510 879 510 879 475 914 c 128,-1,36
 440 949 440 949 440 999 c 256,37,38
 440 1049 440 1049 475 1084 c 128,-1,39
 510 1119 510 1119 560 1119 c 256,40,41
 610 1119 610 1119 645 1084 c 128,-1,42
 680 1049 680 1049 680 999 c 256,43,44
 680 949 680 949 645 914 c 128,-1,45
 610 879 610 879 560 879 c 256,34,35
EndSplineSet
EndChar

StartChar: AE
Encoding: 198 198 134
Width: 1760
Flags: W
LayerCount: 2
Back
Fore
SplineSet
880 1210 m 1,0,-1
 652 800 l 1,1,-1
 880 800 l 1,2,-1
 880 1210 l 1,0,-1
1600 1600 m 2,3,4
 1633 1600 1633 1600 1656.5 1576.5 c 128,-1,5
 1680 1553 1680 1553 1680 1520 c 256,6,7
 1680 1487 1680 1487 1656.5 1463.5 c 128,-1,8
 1633 1440 1633 1440 1600 1440 c 2,9,-1
 1040 1440 l 1,10,-1
 1040 800 l 1,11,-1
 1440 800 l 2,12,13
 1473 800 1473 800 1496.5 776.5 c 128,-1,14
 1520 753 1520 753 1520 720 c 256,15,16
 1520 687 1520 687 1496.5 663.5 c 128,-1,17
 1473 640 1473 640 1440 640 c 2,18,-1
 1040 640 l 1,19,-1
 1040 160 l 1,20,-1
 1600 160 l 2,21,22
 1633 160 1633 160 1656.5 136.5 c 128,-1,23
 1680 113 1680 113 1680 80 c 256,24,25
 1680 47 1680 47 1656.5 23.5 c 128,-1,26
 1633 0 1633 0 1600 0 c 2,27,-1
 960 0 l 2,28,29
 927 0 927 0 903.5 23.5 c 128,-1,30
 880 47 880 47 880 80 c 2,31,-1
 880 640 l 1,32,-1
 563 640 l 1,33,-1
 228 37 l 2,34,35
 203 0 203 0 160 0 c 0,36,37
 127 0 127 0 103.5 23.5 c 128,-1,38
 80 47 80 47 80 80 c 0,39,40
 80 102 80 102 90 119 c 2,41,-1
 892 1563 l 2,42,43
 915 1600 915 1600 960 1600 c 2,44,-1
 1600 1600 l 2,3,4
EndSplineSet
EndChar

StartChar: Eth
Encoding: 208 208 144
Width: 1520
Flags: W
LayerCount: 2
Back
Fore
SplineSet
239 880 m 1,0,-1
 239 1520 l 2,1,2
 239 1553 239 1553 262.5 1576.5 c 128,-1,3
 286 1600 286 1600 319 1600 c 2,4,-1
 639 1600 l 2,5,6
 970 1600 970 1600 1204.5 1365.5 c 128,-1,7
 1439 1131 1439 1131 1439 800 c 256,8,9
 1439 469 1439 469 1204.5 234.5 c 128,-1,10
 970 0 970 0 639 0 c 2,11,-1
 319 0 l 2,12,13
 286 0 286 0 262.5 23.5 c 128,-1,14
 239 47 239 47 239 80 c 2,15,-1
 239 720 l 1,16,-1
 80 720 l 2,17,18
 47 720 47 720 23.5 743.5 c 128,-1,19
 0 767 0 767 0 800 c 256,20,21
 0 833 0 833 23.5 856.5 c 128,-1,22
 47 880 47 880 80 880 c 2,23,-1
 239 880 l 1,0,-1
399 880 m 1,24,-1
 719 880 l 2,25,26
 752 880 752 880 775.5 856.5 c 128,-1,27
 799 833 799 833 799 800 c 256,28,29
 799 767 799 767 775.5 743.5 c 128,-1,30
 752 720 752 720 719 720 c 2,31,-1
 399 720 l 1,32,-1
 399 160 l 1,33,-1
 639 160 l 2,34,35
 904 160 904 160 1091.5 347.5 c 128,-1,36
 1279 535 1279 535 1279 800 c 256,37,38
 1279 1065 1279 1065 1091.5 1252.5 c 128,-1,39
 904 1440 904 1440 639 1440 c 2,40,-1
 399 1440 l 1,41,-1
 399 880 l 1,24,-1
EndSplineSet
EndChar

StartChar: multiply
Encoding: 215 215 151
Width: 960
Flags: W
LayerCount: 2
Back
Fore
SplineSet
366 720 m 1,0,-1
 102 984 l 2,1,2
 80 1008 80 1008 80 1040 c 0,3,4
 80 1073 80 1073 103.5 1096.5 c 128,-1,5
 127 1120 127 1120 160 1120 c 256,6,7
 193 1120 193 1120 218 1096 c 2,8,-1
 480 834 l 1,9,-1
 742 1096 l 2,10,11
 767 1120 767 1120 800 1120 c 256,12,13
 833 1120 833 1120 856.5 1096.5 c 128,-1,14
 880 1073 880 1073 880 1040 c 0,15,16
 880 1008 880 1008 858 984 c 2,17,-1
 594 720 l 1,18,-1
 858 456 l 2,19,20
 880 432 880 432 880 400 c 0,21,22
 880 367 880 367 856.5 343.5 c 128,-1,23
 833 320 833 320 800 320 c 0,24,25
 768 320 768 320 745 341 c 2,26,-1
 480 606 l 1,27,-1
 215 341 l 2,28,29
 192 320 192 320 160 320 c 0,30,31
 127 320 127 320 103.5 343.5 c 128,-1,32
 80 367 80 367 80 400 c 0,33,34
 80 432 80 432 102 456 c 2,35,-1
 366 720 l 1,0,-1
EndSplineSet
EndChar

StartChar: Oslash
Encoding: 216 216 152
Width: 1760
Flags: W
LayerCount: 2
Back
Fore
SplineSet
1500 1306 m 1,0,1
 1680 1090 1680 1090 1680 800 c 0,2,3
 1680 469 1680 469 1445.5 234.5 c 128,-1,4
 1211 0 1211 0 880 0 c 0,5,6
 590 0 590 0 374 180 c 1,7,-1
 217 23 l 2,8,9
 193 0 193 0 160 0 c 256,10,11
 127 0 127 0 103.5 23.5 c 128,-1,12
 80 47 80 47 80 80 c 0,13,14
 80 112 80 112 101 135 c 2,15,-1
 260 294 l 1,16,17
 80 510 80 510 80 800 c 0,18,19
 80 1131 80 1131 314.5 1365.5 c 128,-1,20
 549 1600 549 1600 880 1600 c 0,21,22
 1170 1600 1170 1600 1386 1420 c 1,23,-1
 1543 1577 l 2,24,25
 1567 1600 1567 1600 1600 1600 c 256,26,27
 1633 1600 1633 1600 1656.5 1576.5 c 128,-1,28
 1680 1553 1680 1553 1680 1520 c 0,29,30
 1680 1491 1680 1491 1662 1469 c 2,31,-1
 1500 1306 l 1,0,1
374 408 m 1,32,-1
 1272 1306 l 1,33,34
 1104 1440 1104 1440 880 1440 c 0,35,36
 615 1440 615 1440 427.5 1252.5 c 128,-1,37
 240 1065 240 1065 240 800 c 0,38,39
 240 576 240 576 374 408 c 1,32,-1
1386 1193 m 1,40,-1
 488 294 l 1,41,42
 656 160 656 160 880 160 c 0,43,44
 1145 160 1145 160 1332.5 347.5 c 128,-1,45
 1520 535 1520 535 1520 800 c 0,46,47
 1520 1024 1520 1024 1386 1193 c 1,40,-1
EndSplineSet
EndChar

StartChar: Thorn
Encoding: 222 222 158
Width: 1280
Flags: W
LayerCount: 2
Back
Fore
SplineSet
80 1520 m 2,0,1
 80 1553 80 1553 103.5 1576.5 c 128,-1,2
 127 1600 127 1600 160 1600 c 256,3,4
 193 1600 193 1600 216.5 1576.5 c 128,-1,5
 240 1553 240 1553 240 1520 c 2,6,-1
 240 1280 l 1,7,-1
 720 1280 l 2,8,9
 919 1280 919 1280 1059.5 1139.5 c 128,-1,10
 1200 999 1200 999 1200 800 c 256,11,12
 1200 601 1200 601 1059.5 460.5 c 128,-1,13
 919 320 919 320 720 320 c 2,14,-1
 240 320 l 1,15,-1
 240 80 l 2,16,17
 240 47 240 47 216.5 23.5 c 128,-1,18
 193 0 193 0 160 0 c 256,19,20
 127 0 127 0 103.5 23.5 c 128,-1,21
 80 47 80 47 80 80 c 2,22,-1
 80 1520 l 2,0,1
720 480 m 2,23,24
 853 480 853 480 946.5 573.5 c 128,-1,25
 1040 667 1040 667 1040 800 c 256,26,27
 1040 933 1040 933 946.5 1026.5 c 128,-1,28
 853 1120 853 1120 720 1120 c 2,29,-1
 240 1120 l 1,30,-1
 240 480 l 1,31,-1
 720 480 l 2,23,24
EndSplineSet
EndChar

StartChar: germandbls
Encoding: 223 223 159
Width: 1120
Flags: W
LayerCount: 2
Back
Fore
SplineSet
240 80 m 2,0,1
 240 47 240 47 216.5 23.5 c 128,-1,2
 193 0 193 0 160 0 c 256,3,4
 127 0 127 0 103.5 23.5 c 128,-1,5
 80 47 80 47 80 80 c 2,6,-1
 80 1200 l 2,7,8
 80 1366 80 1366 197 1483 c 256,9,10
 314 1600 314 1600 480 1600 c 256,11,12
 646 1600 646 1600 763 1483 c 128,-1,13
 880 1366 880 1366 880 1200 c 0,14,15
 880 1053 880 1053 788 945 c 0,16,17
 763 911 763 911 763 867 c 0,18,19
 763 790 763 790 819 759 c 0,20,21
 875 731 875 731 923 683 c 0,22,23
 1040 566 1040 566 1040 400 c 256,24,25
 1040 234 1040 234 923 117 c 128,-1,26
 806 0 806 0 640 0 c 256,27,28
 474 0 474 0 357 117 c 0,29,30
 331 143 331 143 331 176 c 256,31,32
 331 209 331 209 354.5 232.5 c 128,-1,33
 378 256 378 256 411 256 c 256,34,35
 444 256 444 256 471 231 c 0,36,37
 541 160 541 160 640 160 c 256,38,39
 739 160 739 160 809.5 230.5 c 128,-1,40
 880 301 880 301 880 400 c 256,41,42
 880 499 880 499 810 570 c 0,43,44
 781 598 781 598 747.5 617 c 128,-1,45
 714 636 714 636 684 667 c 0,46,47
 600 750 600 750 600 868 c 0,48,49
 600 975 600 975 672 1056 c 1,50,51
 720 1118 720 1118 720 1200 c 0,52,53
 720 1299 720 1299 649.5 1369.5 c 128,-1,54
 579 1440 579 1440 480 1440 c 256,55,56
 381 1440 381 1440 311 1370 c 0,57,58
 240 1299 240 1299 240 1200 c 2,59,-1
 240 80 l 2,0,1
EndSplineSet
EndChar

StartChar: ae
Encoding: 230 230 166
Width: 2240
Flags: W
LayerCount: 2
Back
Fore
SplineSet
640 960 m 256,0,1
 474 960 474 960 357 843 c 128,-1,2
 240 726 240 726 240 560 c 256,3,4
 240 394 240 394 357 277 c 128,-1,5
 474 160 474 160 640 160 c 256,6,7
 806 160 806 160 923 277 c 128,-1,8
 1040 394 1040 394 1040 560 c 256,9,10
 1040 726 1040 726 923 843 c 128,-1,11
 806 960 806 960 640 960 c 256,0,1
1993 640 m 1,12,13
 1971 755 1971 755 1883 843 c 0,14,15
 1766 960 1766 960 1600 960 c 256,16,17
 1434 960 1434 960 1317 843 c 0,18,19
 1229 755 1229 755 1207 640 c 1,20,-1
 1993 640 l 1,12,13
1200 168 m 1,21,-1
 1200 80 l 2,22,23
 1200 47 1200 47 1176.5 23.5 c 128,-1,24
 1153 0 1153 0 1120 0 c 256,25,26
 1087 0 1087 0 1063.5 23.5 c 128,-1,27
 1040 47 1040 47 1040 80 c 2,28,-1
 1040 168 l 1,29,30
 872 0 872 0 640 0 c 256,31,32
 408 0 408 0 244 164 c 128,-1,33
 80 328 80 328 80 560 c 256,34,35
 80 792 80 792 244 956 c 128,-1,36
 408 1120 408 1120 640 1120 c 256,37,38
 872 1120 872 1120 1036 956 c 0,39,40
 1085 907 1085 907 1120 851 c 1,41,42
 1155 907 1155 907 1204 956 c 0,43,44
 1368 1120 1368 1120 1600 1120 c 256,45,46
 1832 1120 1832 1120 1996 956 c 128,-1,47
 2160 792 2160 792 2160 560 c 0,48,49
 2160 527 2160 527 2136.5 503.5 c 128,-1,50
 2113 480 2113 480 2080 480 c 2,51,-1
 1207 480 l 1,52,53
 1229 365 1229 365 1317 277 c 0,54,55
 1434 160 1434 160 1600 160 c 0,56,57
 1750 160 1750 160 1858 255 c 0,58,59
 1880 272 1880 272 1908 272 c 0,60,61
 1941 272 1941 272 1964.5 248.5 c 128,-1,62
 1988 225 1988 225 1988 192 c 256,63,64
 1988 159 1988 159 1965 135 c 0,65,66
 1810 0 1810 0 1600 0 c 0,67,68
 1368 0 1368 0 1200 168 c 1,21,-1
EndSplineSet
EndChar

StartChar: eth
Encoding: 240 240 176
Width: 1280
Flags: W
LayerCount: 2
Back
Fore
SplineSet
640 960 m 256,0,1
 474 960 474 960 357 843 c 128,-1,2
 240 726 240 726 240 560 c 256,3,4
 240 394 240 394 357 277 c 128,-1,5
 474 160 474 160 640 160 c 256,6,7
 806 160 806 160 923 277 c 128,-1,8
 1040 394 1040 394 1040 560 c 256,9,10
 1040 726 1040 726 923 843 c 128,-1,11
 806 960 806 960 640 960 c 256,0,1
606 1418 m 1,12,-1
 572 1476 l 2,13,14
 560 1498 560 1498 560 1520 c 0,15,16
 560 1553 560 1553 583.5 1576.5 c 128,-1,17
 607 1600 607 1600 640 1600 c 0,18,19
 686 1600 686 1600 708 1563 c 2,20,-1
 745 1500 l 1,21,-1
 881 1579 l 2,22,23
 909 1596 909 1596 941.5 1587.5 c 128,-1,24
 974 1579 974 1579 990 1551 c 0,25,26
 1007 1522 1007 1522 998.5 1490 c 128,-1,27
 990 1458 990 1458 962 1441 c 2,28,-1
 825 1361 l 1,29,-1
 1133 829 l 2,30,31
 1200 708 1200 708 1200 560 c 0,32,33
 1200 328 1200 328 1036 164 c 128,-1,34
 872 0 872 0 640 0 c 256,35,36
 408 0 408 0 244 164 c 128,-1,37
 80 328 80 328 80 560 c 256,38,39
 80 792 80 792 244 956 c 128,-1,40
 408 1120 408 1120 640 1120 c 0,41,42
 719 1120 719 1120 790 1101 c 1,43,-1
 686 1280 l 1,44,-1
 547 1199 l 2,45,46
 519 1182 519 1182 486.5 1190.5 c 128,-1,47
 454 1199 454 1199 438 1227 c 0,48,49
 421 1256 421 1256 429.5 1288 c 128,-1,50
 438 1320 438 1320 466 1337 c 2,51,-1
 606 1418 l 1,12,-1
EndSplineSet
EndChar

StartChar: divide
Encoding: 247 247 183
Width: 960
Flags: W
LayerCount: 2
Back
Fore
SplineSet
580 1020 m 256,0,1
 580 979 580 979 550.5 949.5 c 128,-1,2
 521 920 521 920 480 920 c 256,3,4
 439 920 439 920 409.5 949.5 c 128,-1,5
 380 979 380 979 380 1020 c 256,6,7
 380 1061 380 1061 409.5 1090.5 c 128,-1,8
 439 1120 439 1120 480 1120 c 256,9,10
 521 1120 521 1120 550.5 1090.5 c 128,-1,11
 580 1061 580 1061 580 1020 c 256,0,1
160 640 m 2,12,13
 127 640 127 640 103.5 663.5 c 128,-1,14
 80 687 80 687 80 720 c 256,15,16
 80 753 80 753 103.5 776.5 c 128,-1,17
 127 800 127 800 160 800 c 2,18,-1
 800 800 l 2,19,20
 833 800 833 800 856.5 776.5 c 128,-1,21
 880 753 880 753 880 720 c 256,22,23
 880 687 880 687 856.5 663.5 c 128,-1,24
 833 640 833 640 800 640 c 2,25,-1
 160 640 l 2,12,13
580 420 m 256,26,27
 580 379 580 379 550.5 349.5 c 128,-1,28
 521 320 521 320 480 320 c 256,29,30
 439 320 439 320 409.5 349.5 c 128,-1,31
 380 379 380 379 380 420 c 256,32,33
 380 461 380 461 409.5 490.5 c 128,-1,34
 439 520 439 520 480 520 c 256,35,36
 521 520 521 520 550.5 490.5 c 128,-1,37
 580 461 580 461 580 420 c 256,26,27
EndSplineSet
EndChar

StartChar: oslash
Encoding: 248 248 184
Width: 1280
Flags: W
LayerCount: 2
Back
Fore
SplineSet
861 894 m 1,0,1
 764 960 764 960 640 960 c 0,2,3
 474 960 474 960 357 843 c 128,-1,4
 240 726 240 726 240 560 c 0,5,6
 240 436 240 436 305 339 c 1,7,-1
 861 894 l 1,0,1
975 781 m 1,8,-1
 419 225 l 1,9,10
 516 160 516 160 640 160 c 0,11,12
 806 160 806 160 923 277 c 128,-1,13
 1040 394 1040 394 1040 560 c 0,14,15
 1040 684 1040 684 975 781 c 1,8,-1
976 1009 m 1,16,-1
 1061 1094 l 2,17,18
 1087 1120 1087 1120 1120 1120 c 256,19,20
 1153 1120 1153 1120 1176.5 1096.5 c 128,-1,21
 1200 1073 1200 1073 1200 1040 c 0,22,23
 1200 1008 1200 1008 1178 984 c 2,24,-1
 1089 895 l 1,25,26
 1200 751 1200 751 1200 560 c 0,27,28
 1200 328 1200 328 1036 164 c 128,-1,29
 872 0 872 0 640 0 c 0,30,31
 449 0 449 0 305 111 c 1,32,-1
 217 23 l 2,33,34
 193 0 193 0 160 0 c 256,35,36
 127 0 127 0 103.5 23.5 c 128,-1,37
 80 47 80 47 80 80 c 0,38,39
 80 112 80 112 102 136 c 2,40,-1
 191 225 l 1,41,42
 80 369 80 369 80 560 c 0,43,44
 80 792 80 792 244 956 c 128,-1,45
 408 1120 408 1120 640 1120 c 0,46,47
 831 1120 831 1120 976 1009 c 1,16,-1
EndSplineSet
EndChar

StartChar: thorn
Encoding: 254 254 190
Width: 1280
Flags: W
LayerCount: 2
Back
Fore
SplineSet
240 562 m 256,0,1
 240 396 240 396 357 279 c 128,-1,2
 474 162 474 162 640 162 c 256,3,4
 806 162 806 162 923 279 c 128,-1,5
 1040 396 1040 396 1040 562 c 256,6,7
 1040 728 1040 728 923 845 c 128,-1,8
 806 962 806 962 640 962 c 256,9,10
 474 962 474 962 357 845 c 128,-1,11
 240 728 240 728 240 562 c 256,0,1
240 954 m 1,12,13
 408 1122 408 1122 640 1122 c 256,14,15
 872 1122 872 1122 1036 958 c 128,-1,16
 1200 794 1200 794 1200 562 c 256,17,18
 1200 330 1200 330 1036 166 c 128,-1,19
 872 2 872 2 640 2 c 256,20,21
 408 2 408 2 240 170 c 1,22,-1
 240 -400 l 2,23,24
 240 -433 240 -433 216.5 -456.5 c 128,-1,25
 193 -480 193 -480 160 -480 c 256,26,27
 127 -480 127 -480 103.5 -456.5 c 128,-1,28
 80 -433 80 -433 80 -400 c 2,29,-1
 80 1522 l 2,30,31
 80 1555 80 1555 103.5 1578.5 c 128,-1,32
 127 1602 127 1602 160 1602 c 256,33,34
 193 1602 193 1602 216.5 1578.5 c 128,-1,35
 240 1555 240 1555 240 1522 c 2,36,-1
 240 954 l 1,12,13
EndSplineSet
EndChar

StartChar: dotlessi
Encoding: 305 305 192
Width: 480
Flags: W
LayerCount: 2
Back
Fore
SplineSet
160 1040 m 2,0,1
 160 1073 160 1073 183.5 1096.5 c 128,-1,2
 207 1120 207 1120 240 1120 c 256,3,4
 273 1120 273 1120 296.5 1096.5 c 128,-1,5
 320 1073 320 1073 320 1040 c 2,6,-1
 320 80 l 2,7,8
 320 47 320 47 296.5 23.5 c 128,-1,9
 273 0 273 0 240 0 c 256,10,11
 207 0 207 0 183.5 23.5 c 128,-1,12
 160 47 160 47 160 80 c 2,13,-1
 160 1040 l 2,0,1
EndSplineSet
EndChar

StartChar: circumflex
Encoding: 710 710 193
Width: 800
Flags: W
LayerCount: 2
Back
Fore
SplineSet
441 1549 m 2,0,-1
 680 1390 l 2,1,2
 720 1360 720 1360 720 1320 c 0,3,4
 720 1287 720 1287 696.5 1263.5 c 128,-1,5
 673 1240 673 1240 640 1240 c 0,6,7
 611 1240 611 1240 590 1257 c 2,8,-1
 400 1383 l 1,9,-1
 210 1257 l 2,10,11
 189 1240 189 1240 160 1240 c 0,12,13
 127 1240 127 1240 103.5 1263.5 c 128,-1,14
 80 1287 80 1287 80 1320 c 0,15,16
 80 1360 80 1360 120 1390 c 2,17,-1
 359 1549 l 2,18,19
 377 1560 377 1560 400 1560 c 256,20,21
 423 1560 423 1560 441 1549 c 2,0,-1
EndSplineSet
EndChar

StartChar: caron
Encoding: 711 711 194
Width: 800
Flags: W
LayerCount: 2
Back
Fore
SplineSet
400 1240 m 256,0,1
 377 1240 377 1240 359 1251 c 2,2,-1
 120 1410 l 2,3,4
 80 1440 80 1440 80 1480 c 0,5,6
 80 1513 80 1513 103.5 1536.5 c 128,-1,7
 127 1560 127 1560 160 1560 c 0,8,9
 189 1560 189 1560 210 1543 c 2,10,-1
 400 1417 l 1,11,-1
 590 1543 l 2,12,13
 611 1560 611 1560 640 1560 c 0,14,15
 673 1560 673 1560 696.5 1536.5 c 128,-1,16
 720 1513 720 1513 720 1480 c 0,17,18
 720 1440 720 1440 680 1410 c 2,19,-1
 441 1251 l 2,20,21
 423 1240 423 1240 400 1240 c 256,0,1
EndSplineSet
EndChar

StartChar: uni02C9
Encoding: 713 713 195
Width: 800
Flags: W
LayerCount: 2
Back
Fore
SplineSet
160 1280 m 2,0,1
 127 1280 127 1280 103.5 1303.5 c 128,-1,2
 80 1327 80 1327 80 1360 c 256,3,4
 80 1393 80 1393 103.5 1416.5 c 128,-1,5
 127 1440 127 1440 160 1440 c 2,6,-1
 640 1440 l 2,7,8
 673 1440 673 1440 696.5 1416.5 c 128,-1,9
 720 1393 720 1393 720 1360 c 256,10,11
 720 1327 720 1327 696.5 1303.5 c 128,-1,12
 673 1280 673 1280 640 1280 c 2,13,-1
 160 1280 l 2,0,1
EndSplineSet
EndChar

StartChar: breve
Encoding: 728 728 196
Width: 800
Flags: W
LayerCount: 2
Back
Fore
SplineSet
80 1480 m 0,0,1
 80 1513 80 1513 103.5 1536.5 c 128,-1,2
 127 1560 127 1560 160 1560 c 256,3,4
 193 1560 193 1560 216.5 1536.5 c 128,-1,5
 240 1513 240 1513 240 1480 c 256,6,7
 240 1447 240 1447 287 1423.5 c 128,-1,8
 334 1400 334 1400 400 1400 c 256,9,10
 466 1400 466 1400 513.5 1423.5 c 128,-1,11
 561 1447 561 1447 561 1480 c 256,12,13
 561 1513 561 1513 584.5 1536.5 c 128,-1,14
 608 1560 608 1560 641 1560 c 256,15,16
 674 1560 674 1560 697.5 1536.5 c 128,-1,17
 721 1513 721 1513 721 1480 c 0,18,19
 716 1375 716 1375 627 1311 c 0,20,21
 533 1240 533 1240 400 1240 c 256,22,23
 267 1240 267 1240 173.5 1310.5 c 128,-1,24
 80 1381 80 1381 80 1480 c 0,0,1
EndSplineSet
EndChar

StartChar: dotaccent
Encoding: 729 729 197
Width: 400
Flags: W
LayerCount: 2
Back
Fore
SplineSet
320 1361 m 256,0,1
 320 1311 320 1311 285 1276 c 128,-1,2
 250 1241 250 1241 200 1241 c 256,3,4
 150 1241 150 1241 115 1276 c 128,-1,5
 80 1311 80 1311 80 1361 c 256,6,7
 80 1411 80 1411 115 1446 c 128,-1,8
 150 1481 150 1481 200 1481 c 256,9,10
 250 1481 250 1481 285 1446 c 128,-1,11
 320 1411 320 1411 320 1361 c 256,0,1
EndSplineSet
EndChar

StartChar: ring
Encoding: 730 730 198
Width: 560
Flags: W
LayerCount: 2
Back
Fore
SplineSet
483 1399 m 0,0,1
 483 1315 483 1315 424 1256 c 128,-1,2
 365 1197 365 1197 282 1197 c 0,3,4
 198 1197 198 1197 139 1256 c 128,-1,5
 80 1315 80 1315 80 1399 c 0,6,7
 80 1482 80 1482 139 1541 c 128,-1,8
 198 1600 198 1600 282 1600 c 0,9,10
 365 1600 365 1600 424 1541 c 128,-1,11
 483 1482 483 1482 483 1399 c 0,0,1
282 1499 m 0,12,13
 240 1499 240 1499 210.5 1469.5 c 128,-1,14
 181 1440 181 1440 181 1399 c 0,15,16
 181 1357 181 1357 210.5 1327.5 c 128,-1,17
 240 1298 240 1298 282 1298 c 0,18,19
 323 1298 323 1298 352.5 1327.5 c 128,-1,20
 382 1357 382 1357 382 1399 c 0,21,22
 382 1440 382 1440 352.5 1469.5 c 128,-1,23
 323 1499 323 1499 282 1499 c 0,12,13
EndSplineSet
EndChar

StartChar: ogonek
Encoding: 731 731 199
Width: 640
Flags: W
LayerCount: 2
Back
Fore
SplineSet
250 36 m 0,0,1
 270 76 270 76 320 77 c 0,2,3
 353 77 353 77 377 54 c 0,4,5
 399 31 399 31 400 0 c 0,6,7
 400 -13 400 -13 398 -23 c 0,8,9
 383 -96 383 -96 275 -174 c 0,10,11
 240 -202 240 -202 240 -240 c 0,12,13
 240 -273 240 -273 263.5 -296.5 c 128,-1,14
 287 -320 287 -320 320 -320 c 0,15,16
 344 -320 344 -320 363 -307 c 2,17,-1
 432 -256 l 2,18,19
 453 -240 453 -240 480 -240 c 0,20,21
 513 -240 513 -240 536.5 -263.5 c 128,-1,22
 560 -287 560 -287 560 -320 c 0,23,24
 560 -360 560 -360 532 -382 c 2,25,-1
 452 -438 l 2,26,27
 391 -480 391 -480 320 -480 c 0,28,29
 221 -480 221 -480 150.5 -409.5 c 128,-1,30
 80 -339 80 -339 80 -240 c 0,31,32
 80 -124 80 -124 182 -44 c 0,33,34
 235 0 235 0 250 36 c 0,0,1
EndSplineSet
EndChar

StartChar: tilde
Encoding: 732 732 200
Width: 960
Flags: W
LayerCount: 2
Back
Fore
SplineSet
532 1321 m 0,0,1
 442 1241 442 1241 320 1241 c 0,2,3
 187 1241 187 1241 93 1335 c 0,4,5
 71 1359 71 1359 71 1391 c 0,6,7
 71 1424 71 1424 94.5 1447.5 c 128,-1,8
 118 1471 118 1471 151 1471 c 0,9,10
 183 1471 183 1471 207 1449 c 0,11,12
 254 1401 254 1401 320 1401 c 0,13,14
 376 1401 376 1401 420 1436 c 0,15,16
 509 1516 509 1516 632 1516 c 0,17,18
 765 1516 765 1516 859 1422 c 0,19,20
 881 1398 881 1398 881 1366 c 0,21,22
 881 1333 881 1333 857.5 1309.5 c 128,-1,23
 834 1286 834 1286 801 1286 c 0,24,25
 769 1286 769 1286 745 1308 c 0,26,27
 698 1356 698 1356 632 1356 c 0,28,29
 575 1356 575 1356 532 1321 c 0,0,1
EndSplineSet
EndChar

StartChar: hungarumlaut
Encoding: 733 733 201
Width: 720
Flags: W
LayerCount: 2
Back
Fore
SplineSet
196 1219 m 2,0,1
 179 1183 179 1183 140 1181 c 0,2,3
 103 1181 103 1181 85 1217 c 0,4,5
 80 1229 80 1229 80 1241 c 0,6,7
 80 1252 80 1252 84 1263 c 2,8,-1
 175 1550 l 2,9,10
 187 1580 187 1580 218 1594 c 0,11,12
 234 1600 234 1600 249 1600 c 256,13,14
 264 1600 264 1600 279 1595 c 0,15,16
 310 1583 310 1583 323 1552.5 c 128,-1,17
 336 1522 336 1522 324 1491 c 2,18,-1
 196 1219 l 2,0,1
506 1219 m 2,19,20
 489 1183 489 1183 450 1181 c 0,21,22
 413 1181 413 1181 395 1217 c 0,23,24
 390 1229 390 1229 390 1241 c 0,25,26
 390 1252 390 1252 394 1263 c 2,27,-1
 485 1550 l 2,28,29
 497 1580 497 1580 528 1594 c 0,30,31
 544 1600 544 1600 559 1600 c 256,32,33
 574 1600 574 1600 589 1595 c 0,34,35
 620 1583 620 1583 633 1552.5 c 128,-1,36
 646 1522 646 1522 634 1491 c 2,37,-1
 506 1219 l 2,19,20
EndSplineSet
EndChar

StartChar: commaaccent
Encoding: 65539 -1 202
Width: 640
Flags: W
LayerCount: 2
Back
Fore
SplineSet
492 -85 m 1,0,1
 561 -141 561 -141 561 -230 c 256,2,3
 561 -319 561 -319 490.5 -379.5 c 128,-1,4
 420 -440 420 -440 321 -440 c 0,5,6
 262 -440 262 -440 207 -411 c 2,7,-1
 116 -357 l 1,8,9
 81 -328 81 -328 81 -290 c 0,10,11
 81 -257 81 -257 104.5 -233.5 c 128,-1,12
 128 -210 128 -210 161 -210 c 0,13,14
 185 -210 185 -210 204 -222 c 2,15,-1
 282 -270 l 2,16,17
 301 -280 301 -280 321 -280 c 0,18,19
 354 -280 354 -280 377.5 -266.5 c 128,-1,20
 401 -253 401 -253 401 -230 c 256,21,22
 401 -207 401 -207 377.5 -193.5 c 128,-1,23
 354 -180 354 -180 321 -180 c 256,24,25
 288 -180 288 -180 264.5 -156.5 c 128,-1,26
 241 -133 241 -133 241 -100 c 0,27,28
 241 -80 241 -80 260 -61 c 0,29,30
 289 -36 289 -36 356 -36 c 0,31,32
 430 -40 430 -40 492 -85 c 1,0,1
EndSplineSet
EndChar

StartChar: endash
Encoding: 8211 8211 203
Width: 800
Flags: W
LayerCount: 2
Back
Fore
SplineSet
0 480 m 2,0,1
 -33 480 -33 480 -56.5 503.5 c 128,-1,2
 -80 527 -80 527 -80 560 c 256,3,4
 -80 593 -80 593 -56.5 616.5 c 128,-1,5
 -33 640 -33 640 0 640 c 2,6,-1
 800 640 l 2,7,8
 833 640 833 640 856.5 616.5 c 128,-1,9
 880 593 880 593 880 560 c 256,10,11
 880 527 880 527 856.5 503.5 c 128,-1,12
 833 480 833 480 800 480 c 2,13,-1
 0 480 l 2,0,1
EndSplineSet
EndChar

StartChar: emdash
Encoding: 8212 8212 204
Width: 1920
Flags: W
LayerCount: 2
Back
Fore
SplineSet
0 480 m 2,0,1
 -33 480 -33 480 -56.5 503.5 c 128,-1,2
 -80 527 -80 527 -80 560 c 256,3,4
 -80 593 -80 593 -56.5 616.5 c 128,-1,5
 -33 640 -33 640 0 640 c 2,6,-1
 1920 640 l 2,7,8
 1953 640 1953 640 1976.5 616.5 c 128,-1,9
 2000 593 2000 593 2000 560 c 256,10,11
 2000 527 2000 527 1976.5 503.5 c 128,-1,12
 1953 480 1953 480 1920 480 c 2,13,-1
 0 480 l 2,0,1
EndSplineSet
EndChar

StartChar: quoteleft
Encoding: 8216 8216 205
Width: 480
Flags: W
LayerCount: 2
Back
Fore
SplineSet
373 1040 m 0,0,1
 373 999 373 999 343.5 969.5 c 128,-1,2
 314 940 314 940 273 940 c 0,3,4
 211 940 211 940 183 998 c 1,5,6
 120 1110 120 1110 120 1225 c 0,7,8
 120 1400 120 1400 272 1583 c 0,9,10
 289 1600 289 1600 314 1600 c 0,11,12
 338 1600 338 1600 355.5 1582.5 c 128,-1,13
 373 1565 373 1565 373 1541 c 0,14,15
 373 1527 373 1527 368 1515 c 0,16,17
 270 1278 270 1278 365 1080 c 0,18,19
 373 1062 373 1062 373 1040 c 0,0,1
EndSplineSet
EndChar

StartChar: quoteright
Encoding: 8217 8217 206
Width: 480
Flags: W
LayerCount: 2
Back
Fore
SplineSet
120 1500 m 0,0,1
 120 1541 120 1541 149.5 1570.5 c 128,-1,2
 179 1600 179 1600 220 1600 c 0,3,4
 282 1600 282 1600 310 1542 c 1,5,6
 373 1430 373 1430 373 1315 c 0,7,8
 373 1140 373 1140 221 957 c 0,9,10
 204 940 204 940 179 940 c 0,11,12
 155 940 155 940 137.5 957.5 c 128,-1,13
 120 975 120 975 120 999 c 0,14,15
 120 1013 120 1013 125 1025 c 0,16,17
 223 1262 223 1262 128 1460 c 0,18,19
 120 1478 120 1478 120 1500 c 0,0,1
EndSplineSet
EndChar

StartChar: quotesinglbase
Encoding: 8218 8218 207
Width: 480
Flags: W
LayerCount: 2
Back
Fore
SplineSet
120 219 m 0,0,1
 120 260 120 260 149.5 289.5 c 128,-1,2
 179 319 179 319 220 319 c 0,3,4
 282 319 282 319 310 261 c 1,5,6
 373 149 373 149 373 34 c 0,7,8
 373 -141 373 -141 221 -324 c 0,9,10
 204 -341 204 -341 179 -341 c 0,11,12
 155 -341 155 -341 137.5 -323.5 c 128,-1,13
 120 -306 120 -306 120 -282 c 0,14,15
 120 -268 120 -268 125 -256 c 0,16,17
 223 -19 223 -19 128 179 c 0,18,19
 120 197 120 197 120 219 c 0,0,1
EndSplineSet
EndChar

StartChar: quotedblleft
Encoding: 8220 8220 208
Width: 760
Flags: W
LayerCount: 2
Back
Fore
SplineSet
333 1042 m 0,0,1
 333 1001 333 1001 303.5 971.5 c 128,-1,2
 274 942 274 942 233 942 c 0,3,4
 171 942 171 942 143 1000 c 1,5,6
 80 1112 80 1112 80 1227 c 0,7,8
 80 1402 80 1402 232 1585 c 0,9,10
 249 1602 249 1602 274 1602 c 0,11,12
 298 1602 298 1602 315.5 1584.5 c 128,-1,13
 333 1567 333 1567 333 1543 c 0,14,15
 333 1529 333 1529 328 1517 c 0,16,17
 230 1280 230 1280 325 1082 c 0,18,19
 333 1064 333 1064 333 1042 c 0,0,1
680 1042 m 0,20,21
 680 1001 680 1001 650.5 971.5 c 128,-1,22
 621 942 621 942 580 942 c 0,23,24
 518 942 518 942 490 1000 c 1,25,26
 427 1112 427 1112 427 1227 c 0,27,28
 427 1402 427 1402 579 1585 c 0,29,30
 596 1602 596 1602 621 1602 c 0,31,32
 645 1602 645 1602 662.5 1584.5 c 128,-1,33
 680 1567 680 1567 680 1543 c 0,34,35
 680 1529 680 1529 675 1517 c 0,36,37
 577 1280 577 1280 672 1082 c 0,38,39
 680 1064 680 1064 680 1042 c 0,20,21
EndSplineSet
EndChar

StartChar: quotedblright
Encoding: 8221 8221 209
Width: 760
Flags: W
LayerCount: 2
Back
Fore
SplineSet
427 1502 m 0,0,1
 427 1543 427 1543 456.5 1572.5 c 128,-1,2
 486 1602 486 1602 527 1602 c 0,3,4
 589 1602 589 1602 617 1544 c 1,5,6
 680 1432 680 1432 680 1317 c 0,7,8
 680 1142 680 1142 528 959 c 0,9,10
 511 942 511 942 486 942 c 0,11,12
 462 942 462 942 444.5 959.5 c 128,-1,13
 427 977 427 977 427 1001 c 0,14,15
 427 1015 427 1015 432 1027 c 0,16,17
 530 1264 530 1264 435 1462 c 0,18,19
 427 1480 427 1480 427 1502 c 0,0,1
80 1502 m 0,20,21
 80 1543 80 1543 109.5 1572.5 c 128,-1,22
 139 1602 139 1602 180 1602 c 0,23,24
 242 1602 242 1602 270 1544 c 1,25,26
 333 1432 333 1432 333 1317 c 0,27,28
 333 1142 333 1142 181 959 c 0,29,30
 164 942 164 942 139 942 c 0,31,32
 115 942 115 942 97.5 959.5 c 128,-1,33
 80 977 80 977 80 1001 c 0,34,35
 80 1015 80 1015 85 1027 c 0,36,37
 183 1264 183 1264 88 1462 c 0,38,39
 80 1480 80 1480 80 1502 c 0,20,21
EndSplineSet
EndChar

StartChar: quotedblbase
Encoding: 8222 8222 210
Width: 760
Flags: W
LayerCount: 2
Back
Fore
SplineSet
427 220 m 0,0,1
 427 261 427 261 456.5 290.5 c 128,-1,2
 486 320 486 320 527 320 c 0,3,4
 589 320 589 320 617 262 c 1,5,6
 680 150 680 150 680 35 c 0,7,8
 680 -140 680 -140 528 -323 c 0,9,10
 511 -340 511 -340 486 -340 c 0,11,12
 462 -340 462 -340 444.5 -322.5 c 128,-1,13
 427 -305 427 -305 427 -281 c 0,14,15
 427 -267 427 -267 432 -255 c 0,16,17
 530 -18 530 -18 435 180 c 0,18,19
 427 198 427 198 427 220 c 0,0,1
80 220 m 0,20,21
 80 261 80 261 109.5 290.5 c 128,-1,22
 139 320 139 320 180 320 c 0,23,24
 242 320 242 320 270 262 c 1,25,26
 333 150 333 150 333 35 c 0,27,28
 333 -140 333 -140 181 -323 c 0,29,30
 164 -340 164 -340 139 -340 c 0,31,32
 115 -340 115 -340 97.5 -322.5 c 128,-1,33
 80 -305 80 -305 80 -281 c 0,34,35
 80 -267 80 -267 85 -255 c 0,36,37
 183 -18 183 -18 88 180 c 0,38,39
 80 198 80 198 80 220 c 0,20,21
EndSplineSet
EndChar

StartChar: dagger
Encoding: 8224 8224 211
Width: 1120
Flags: W
LayerCount: 2
Back
Fore
SplineSet
160 960 m 2,0,1
 127 960 127 960 103.5 983.5 c 128,-1,2
 80 1007 80 1007 80 1040 c 256,3,4
 80 1073 80 1073 103.5 1096.5 c 128,-1,5
 127 1120 127 1120 160 1120 c 2,6,-1
 480 1120 l 1,7,-1
 480 1520 l 2,8,9
 480 1553 480 1553 503.5 1576.5 c 128,-1,10
 527 1600 527 1600 560 1600 c 256,11,12
 593 1600 593 1600 616.5 1576.5 c 128,-1,13
 640 1553 640 1553 640 1520 c 2,14,-1
 640 1120 l 1,15,-1
 960 1120 l 2,16,17
 993 1120 993 1120 1016.5 1096.5 c 128,-1,18
 1040 1073 1040 1073 1040 1040 c 256,19,20
 1040 1007 1040 1007 1016.5 983.5 c 128,-1,21
 993 960 993 960 960 960 c 2,22,-1
 640 960 l 1,23,-1
 640 -400 l 2,24,25
 640 -432 640 -432 617 -455 c 0,26,27
 593 -479 593 -479 560 -479 c 256,28,29
 527 -479 527 -479 504 -455 c 0,30,31
 480 -432 480 -432 480 -400 c 2,32,-1
 480 960 l 1,33,-1
 160 960 l 2,0,1
EndSplineSet
EndChar

StartChar: daggerdbl
Encoding: 8225 8225 212
Width: 1120
Flags: W
LayerCount: 2
Back
Fore
SplineSet
480 160 m 1,0,-1
 480 960 l 1,1,-1
 160 960 l 2,2,3
 127 960 127 960 103.5 983.5 c 128,-1,4
 80 1007 80 1007 80 1040 c 256,5,6
 80 1073 80 1073 103.5 1096.5 c 128,-1,7
 127 1120 127 1120 160 1120 c 2,8,-1
 480 1120 l 1,9,-1
 480 1520 l 2,10,11
 480 1553 480 1553 503.5 1576.5 c 128,-1,12
 527 1600 527 1600 560 1600 c 256,13,14
 593 1600 593 1600 616.5 1576.5 c 128,-1,15
 640 1553 640 1553 640 1520 c 2,16,-1
 640 1120 l 1,17,-1
 960 1120 l 2,18,19
 993 1120 993 1120 1016.5 1096.5 c 128,-1,20
 1040 1073 1040 1073 1040 1040 c 256,21,22
 1040 1007 1040 1007 1016.5 983.5 c 128,-1,23
 993 960 993 960 960 960 c 2,24,-1
 640 960 l 1,25,-1
 640 160 l 1,26,-1
 960 160 l 2,27,28
 993 160 993 160 1016.5 136.5 c 128,-1,29
 1040 113 1040 113 1040 80 c 256,30,31
 1040 47 1040 47 1016.5 23.5 c 128,-1,32
 993 0 993 0 960 0 c 2,33,-1
 640 0 l 1,34,-1
 640 -400 l 2,35,36
 640 -432 640 -432 617 -455 c 0,37,38
 593 -479 593 -479 560 -479 c 256,39,40
 527 -479 527 -479 504 -455 c 0,41,42
 480 -432 480 -432 480 -400 c 2,43,-1
 480 0 l 1,44,-1
 160 0 l 2,45,46
 127 0 127 0 103.5 23.5 c 128,-1,47
 80 47 80 47 80 80 c 256,48,49
 80 113 80 113 103.5 136.5 c 128,-1,50
 127 160 127 160 160 160 c 2,51,-1
 480 160 l 1,0,-1
EndSplineSet
EndChar

StartChar: bullet
Encoding: 8226 8226 213
Width: 800
Flags: W
LayerCount: 2
Back
Fore
SplineSet
640 800 m 256,0,1
 640 701 640 701 569.5 630.5 c 128,-1,2
 499 560 499 560 400 560 c 256,3,4
 301 560 301 560 230.5 630.5 c 128,-1,5
 160 701 160 701 160 800 c 256,6,7
 160 899 160 899 230.5 969.5 c 128,-1,8
 301 1040 301 1040 400 1040 c 256,9,10
 499 1040 499 1040 569.5 969.5 c 128,-1,11
 640 899 640 899 640 800 c 256,0,1
EndSplineSet
EndChar

StartChar: ellipsis
Encoding: 8230 8230 214
Width: 1440
Flags: W
LayerCount: 2
Back
Fore
SplineSet
320 120 m 256,0,1
 320 70 320 70 285 35 c 128,-1,2
 250 0 250 0 200 0 c 256,3,4
 150 0 150 0 115 35 c 128,-1,5
 80 70 80 70 80 120 c 256,6,7
 80 170 80 170 115 205 c 128,-1,8
 150 240 150 240 200 240 c 256,9,10
 250 240 250 240 285 205 c 128,-1,11
 320 170 320 170 320 120 c 256,0,1
1280 120 m 256,12,13
 1280 70 1280 70 1245 35 c 128,-1,14
 1210 0 1210 0 1160 0 c 256,15,16
 1110 0 1110 0 1075 35 c 128,-1,17
 1040 70 1040 70 1040 120 c 256,18,19
 1040 170 1040 170 1075 205 c 128,-1,20
 1110 240 1110 240 1160 240 c 256,21,22
 1210 240 1210 240 1245 205 c 128,-1,23
 1280 170 1280 170 1280 120 c 256,12,13
800 120 m 256,24,25
 800 70 800 70 765 35 c 128,-1,26
 730 0 730 0 680 0 c 256,27,28
 630 0 630 0 595 35 c 128,-1,29
 560 70 560 70 560 120 c 256,30,31
 560 170 560 170 595 205 c 128,-1,32
 630 240 630 240 680 240 c 256,33,34
 730 240 730 240 765 205 c 128,-1,35
 800 170 800 170 800 120 c 256,24,25
EndSplineSet
EndChar

StartChar: guilsinglleft
Encoding: 8249 8249 215
Width: 560
Flags: W
LayerCount: 2
Back
Fore
SplineSet
90 598 m 2,0,-1
 326 1070 l 2,1,2
 332 1084 332 1084 344 1096 c 0,3,4
 367 1119 367 1119 400 1119 c 256,5,6
 433 1119 433 1119 456.5 1095.5 c 128,-1,7
 480 1072 480 1072 480 1039 c 0,8,9
 480 1021 480 1021 473 1005 c 2,10,-1
 250 560 l 1,11,-1
 473 114 l 2,12,13
 480 98 480 98 480 80 c 0,14,15
 480 47 480 47 456.5 23.5 c 128,-1,16
 433 0 433 0 400 0 c 256,17,18
 367 0 367 0 344 24 c 0,19,20
 332 35 332 35 326 49 c 2,21,-1
 92 516 l 2,22,23
 80 538 80 538 80 559 c 0,24,25
 80 579 80 579 90 598 c 2,0,-1
EndSplineSet
EndChar

StartChar: guilsinglright
Encoding: 8250 8250 216
Width: 560
Flags: W
LayerCount: 2
Back
Fore
SplineSet
480 559 m 0,0,1
 480 538 480 538 468 516 c 2,2,-1
 234 49 l 2,3,4
 228 35 228 35 216 24 c 0,5,6
 193 0 193 0 160 0 c 256,7,8
 127 0 127 0 103.5 23.5 c 128,-1,9
 80 47 80 47 80 80 c 0,10,11
 80 98 80 98 87 114 c 2,12,-1
 310 560 l 1,13,-1
 87 1005 l 2,14,15
 80 1021 80 1021 80 1039 c 0,16,17
 80 1072 80 1072 103.5 1095.5 c 128,-1,18
 127 1119 127 1119 160 1119 c 256,19,20
 193 1119 193 1119 216 1096 c 0,21,22
 228 1084 228 1084 234 1070 c 2,23,-1
 470 598 l 2,24,25
 480 579 480 579 480 559 c 0,0,1
EndSplineSet
EndChar

StartChar: fraction
Encoding: 8260 8260 217
AltUni2: 002215.ffffffff.0
Width: 640
Flags: W
LayerCount: 2
Back
Fore
SplineSet
960 1600 m 0,0,1
 993 1600 993 1600 1016.5 1576.5 c 128,-1,2
 1040 1553 1040 1553 1040 1520 c 0,3,4
 1040 1492 1040 1492 1024 1471 c 2,5,-1
 -258 29 l 2,6,7
 -284 0 -284 0 -320 0 c 0,8,9
 -353 0 -353 0 -376.5 23.5 c 128,-1,10
 -400 47 -400 47 -400 80 c 0,11,12
 -400 109 -400 109 -382 132 c 2,13,-1
 898 1571 l 2,14,15
 925 1600 925 1600 960 1600 c 0,0,1
EndSplineSet
EndChar

StartChar: franc
Encoding: 8355 8355 218
Width: 1520
Flags: W
LayerCount: 2
Back
Fore
SplineSet
320 480 m 1,0,-1
 320 1520 l 2,1,2
 320 1553 320 1553 343.5 1576.5 c 128,-1,3
 367 1600 367 1600 400 1600 c 2,4,-1
 1360 1600 l 2,5,6
 1393 1600 1393 1600 1416.5 1576.5 c 128,-1,7
 1440 1553 1440 1553 1440 1520 c 256,8,9
 1440 1487 1440 1487 1416.5 1463.5 c 128,-1,10
 1393 1440 1393 1440 1360 1440 c 2,11,-1
 480 1440 l 1,12,-1
 480 880 l 1,13,-1
 1120 880 l 2,14,15
 1153 880 1153 880 1176.5 856.5 c 128,-1,16
 1200 833 1200 833 1200 800 c 256,17,18
 1200 767 1200 767 1176.5 743.5 c 128,-1,19
 1153 720 1153 720 1120 720 c 2,20,-1
 480 720 l 1,21,-1
 480 480 l 1,22,-1
 640 480 l 2,23,24
 673 480 673 480 696.5 456.5 c 128,-1,25
 720 433 720 433 720 400 c 256,26,27
 720 367 720 367 696.5 343.5 c 128,-1,28
 673 320 673 320 640 320 c 2,29,-1
 480 320 l 1,30,-1
 480 80 l 2,31,32
 480 47 480 47 456.5 23.5 c 128,-1,33
 433 0 433 0 400 0 c 256,34,35
 367 0 367 0 343.5 23.5 c 128,-1,36
 320 47 320 47 320 80 c 2,37,-1
 320 320 l 1,38,-1
 160 320 l 2,39,40
 127 320 127 320 103.5 343.5 c 128,-1,41
 80 367 80 367 80 400 c 256,42,43
 80 433 80 433 103.5 456.5 c 128,-1,44
 127 480 127 480 160 480 c 2,45,-1
 320 480 l 1,0,-1
EndSplineSet
EndChar

StartChar: lira
Encoding: 8356 8356 219
Width: 1040
Flags: W
LayerCount: 2
Back
Fore
SplineSet
230 930 m 1,0,1
 213 998 213 998 190 1050 c 1,2,-1
 191 1050 l 1,3,4
 160 1125 160 1125 160 1200 c 0,5,6
 160 1366 160 1366 277 1483 c 128,-1,7
 394 1600 394 1600 560 1600 c 256,8,9
 726 1600 726 1600 843 1483 c 0,10,11
 872 1454 872 1454 894 1422 c 0,12,13
 910 1400 910 1400 910 1372 c 0,14,15
 910 1339 910 1339 886.5 1315.5 c 128,-1,16
 863 1292 863 1292 830 1292 c 256,17,18
 797 1292 797 1292 774 1316 c 1,19,20
 747 1352 747 1352 730 1370 c 0,21,22
 659 1440 659 1440 560 1440 c 256,23,24
 461 1440 461 1440 390.5 1369.5 c 128,-1,25
 320 1299 320 1299 320 1200 c 0,26,27
 320 1155 320 1155 339 1110 c 0,28,29
 373 1032 373 1032 395 930 c 1,30,-1
 720 930 l 2,31,32
 753 930 753 930 776.5 906.5 c 128,-1,33
 800 883 800 883 800 850 c 256,34,35
 800 817 800 817 776.5 793.5 c 128,-1,36
 753 770 753 770 720 770 c 2,37,-1
 422 770 l 1,38,39
 425 745 425 745 427 720 c 128,-1,40
 429 695 429 695 430 670 c 1,41,-1
 720 670 l 2,42,43
 753 670 753 670 776.5 646.5 c 128,-1,44
 800 623 800 623 800 590 c 256,45,46
 800 557 800 557 776.5 533.5 c 128,-1,47
 753 510 753 510 720 510 c 2,48,-1
 429 510 l 1,49,50
 418 321 418 321 356 160 c 1,51,-1
 750 160 l 1,52,-1
 810 280 l 2,53,54
 833 320 833 320 880 320 c 0,55,56
 913 320 913 320 936.5 296.5 c 128,-1,57
 960 273 960 273 960 240 c 0,58,59
 960 219 960 219 951 202 c 2,60,-1
 874 48 l 2,61,62
 868 35 868 35 857 24 c 0,63,64
 833 0 833 0 800 0 c 2,65,-1
 240 0 l 2,66,67
 207 0 207 0 183.5 23.5 c 128,-1,68
 160 47 160 47 160 80 c 0,69,70
 160 97 160 97 166 112 c 0,71,72
 252 297 252 297 267 510 c 1,73,-1
 160 510 l 2,74,75
 127 510 127 510 103.5 533.5 c 128,-1,76
 80 557 80 557 80 590 c 256,77,78
 80 623 80 623 103.5 646.5 c 128,-1,79
 127 670 127 670 160 670 c 2,80,-1
 268 670 l 1,81,82
 267 695 267 695 264.5 720.5 c 128,-1,83
 262 746 262 746 259 770 c 1,84,-1
 160 770 l 2,85,86
 127 770 127 770 103.5 793.5 c 128,-1,87
 80 817 80 817 80 850 c 256,88,89
 80 883 80 883 103.5 906.5 c 128,-1,90
 127 930 127 930 160 930 c 2,91,-1
 230 930 l 1,0,1
EndSplineSet
EndChar

StartChar: peseta
Encoding: 8359 8359 220
Width: 2000
Flags: W
LayerCount: 2
Back
Fore
SplineSet
224 1440 m 1,0,-1
 224 720 l 1,1,-1
 440 720 l 2,2,3
 574 720 574 720 669 825.5 c 128,-1,4
 764 931 764 931 764 1080 c 256,5,6
 764 1229 764 1229 669 1334.5 c 128,-1,7
 574 1440 574 1440 440 1440 c 2,8,-1
 224 1440 l 1,0,-1
1205 856 m 0,9,10
 1181 827 1181 827 1181 787 c 0,11,12
 1184 740 1184 740 1230 723 c 2,13,-1
 1722 560 l 2,14,15
 1813 526 1813 526 1849 489 c 0,16,17
 1920 419 1920 419 1920 320 c 256,18,19
 1920 221 1920 221 1846 147 c 0,20,21
 1702 0 1702 0 1470 0 c 2,22,-1
 1200 0 l 2,23,24
 800 0 800 0 800 400 c 2,25,-1
 800 747 l 1,26,27
 644 560 644 560 440 560 c 2,28,-1
 224 560 l 1,29,-1
 224 80 l 2,30,31
 224 47 224 47 203 23.5 c 128,-1,32
 182 0 182 0 152 0 c 256,33,34
 122 0 122 0 101 23.5 c 128,-1,35
 80 47 80 47 80 80 c 2,36,-1
 80 1520 l 2,37,38
 80 1553 80 1553 101 1576.5 c 128,-1,39
 122 1600 122 1600 152 1600 c 2,40,-1
 440 1600 l 2,41,42
 644 1600 644 1600 800 1413 c 1,43,-1
 800 1520 l 2,44,45
 800 1553 800 1553 823.5 1576.5 c 128,-1,46
 847 1600 847 1600 880 1600 c 256,47,48
 913 1600 913 1600 936.5 1576.5 c 128,-1,49
 960 1553 960 1553 960 1520 c 2,50,-1
 960 1120 l 1,51,-1
 1480 1120 l 1,52,53
 1706 1116 1706 1116 1866 956 c 0,54,55
 1884 938 1884 938 1900 919 c 0,56,57
 1915 898 1915 898 1915 872 c 0,58,59
 1915 839 1915 839 1891.5 815.5 c 128,-1,60
 1868 792 1868 792 1835 792 c 256,61,62
 1802 792 1802 792 1782 813 c 128,-1,63
 1762 834 1762 834 1753 843 c 0,64,65
 1636 960 1636 960 1470 960 c 256,66,67
 1304 960 1304 960 1205 856 c 0,9,10
1200 160 m 2,68,-1
 1470 160 l 2,69,70
 1636 160 1636 160 1735 264 c 0,71,72
 1759 293 1759 293 1759 333 c 0,73,74
 1756 380 1756 380 1710 397 c 2,75,-1
 1218 560 l 2,76,77
 1127 594 1127 594 1091 631 c 0,78,79
 1020 701 1020 701 1020 800 c 0,80,81
 1020 890 1020 890 1082 960 c 1,82,-1
 960 960 l 1,83,-1
 960 400 l 2,84,85
 960 160 960 160 1200 160 c 2,68,-1
EndSplineSet
EndChar

StartChar: Euro
Encoding: 8364 8364 221
Width: 1480
Flags: W
LayerCount: 2
Back
Fore
SplineSet
1200 1040 m 2,0,1
 1233 1040 1233 1040 1256.5 1016.5 c 128,-1,2
 1280 993 1280 993 1280 960 c 256,3,4
 1280 927 1280 927 1256.5 903.5 c 128,-1,5
 1233 880 1233 880 1200 880 c 2,6,-1
 244 880 l 1,7,8
 240 841 240 841 240 800 c 256,9,10
 240 759 240 759 244 720 c 1,11,-1
 1200 720 l 2,12,13
 1233 720 1233 720 1256.5 696.5 c 128,-1,14
 1280 673 1280 673 1280 640 c 256,15,16
 1280 607 1280 607 1256.5 583.5 c 128,-1,17
 1233 560 1233 560 1200 560 c 2,18,-1
 285 560 l 1,19,20
 331 444 331 444 428 348 c 0,21,22
 615 160 615 160 880 160 c 0,23,24
 1109 160 1109 160 1280 300 c 0,25,26
 1300 314 1300 314 1326 314 c 0,27,28
 1359 314 1359 314 1382.5 290.5 c 128,-1,29
 1406 267 1406 267 1406 234 c 256,30,31
 1406 201 1406 201 1383 178 c 0,32,33
 1160 0 1160 0 880 0 c 0,34,35
 549 0 549 0 314.5 234.5 c 128,-1,36
 80 469 80 469 80 800 c 256,37,38
 80 1131 80 1131 314.5 1365.5 c 128,-1,39
 549 1600 549 1600 880 1600 c 0,40,41
 1166 1600 1166 1600 1389 1417 c 0,42,43
 1412 1393 1412 1393 1412 1360 c 256,44,45
 1412 1327 1412 1327 1388.5 1303.5 c 128,-1,46
 1365 1280 1365 1280 1332 1280 c 256,47,48
 1299 1280 1299 1280 1275 1304 c 0,49,50
 1106 1440 1106 1440 880 1440 c 0,51,52
 615 1440 615 1440 428 1253 c 0,53,54
 331 1156 331 1156 285 1040 c 1,55,-1
 1200 1040 l 2,0,1
EndSplineSet
EndChar

StartChar: afii61352
Encoding: 8470 8470 222
Width: 2400
Flags: W
LayerCount: 2
Back
Fore
SplineSet
240 80 m 2,0,1
 240 47 240 47 216.5 23.5 c 128,-1,2
 193 0 193 0 160 0 c 256,3,4
 127 0 127 0 103.5 23.5 c 128,-1,5
 80 47 80 47 80 80 c 2,6,-1
 80 1520 l 2,7,8
 80 1553 80 1553 103.5 1576.5 c 128,-1,9
 127 1600 127 1600 160 1600 c 0,10,11
 196 1600 196 1600 222 1571 c 2,12,-1
 1200 313 l 1,13,-1
 1200 1520 l 2,14,15
 1200 1553 1200 1553 1223.5 1576.5 c 128,-1,16
 1247 1600 1247 1600 1280 1600 c 256,17,18
 1313 1600 1313 1600 1336.5 1576.5 c 128,-1,19
 1360 1553 1360 1553 1360 1520 c 2,20,-1
 1360 80 l 2,21,22
 1360 47 1360 47 1336.5 23.5 c 128,-1,23
 1313 0 1313 0 1280 0 c 0,24,25
 1245 0 1245 0 1220 26 c 2,26,-1
 240 1286 l 1,27,-1
 240 80 l 2,0,1
2320 1200 m 256,28,29
 2320 1034 2320 1034 2203 917 c 128,-1,30
 2086 800 2086 800 1920 800 c 256,31,32
 1754 800 1754 800 1637 917 c 128,-1,33
 1520 1034 1520 1034 1520 1200 c 256,34,35
 1520 1366 1520 1366 1637 1483 c 128,-1,36
 1754 1600 1754 1600 1920 1600 c 256,37,38
 2086 1600 2086 1600 2203 1483 c 128,-1,39
 2320 1366 2320 1366 2320 1200 c 256,28,29
1920 1440 m 256,40,41
 1821 1440 1821 1440 1750.5 1369.5 c 128,-1,42
 1680 1299 1680 1299 1680 1200 c 256,43,44
 1680 1101 1680 1101 1750.5 1030.5 c 128,-1,45
 1821 960 1821 960 1920 960 c 256,46,47
 2019 960 2019 960 2089.5 1030.5 c 128,-1,48
 2160 1101 2160 1101 2160 1200 c 256,49,50
 2160 1299 2160 1299 2089.5 1369.5 c 128,-1,51
 2019 1440 2019 1440 1920 1440 c 256,40,41
1600 560 m 2,52,53
 1567 560 1567 560 1543.5 583.5 c 128,-1,54
 1520 607 1520 607 1520 640 c 256,55,56
 1520 673 1520 673 1543.5 696.5 c 128,-1,57
 1567 720 1567 720 1600 720 c 2,58,-1
 2240 720 l 2,59,60
 2273 720 2273 720 2296.5 696.5 c 128,-1,61
 2320 673 2320 673 2320 640 c 256,62,63
 2320 607 2320 607 2296.5 583.5 c 128,-1,64
 2273 560 2273 560 2240 560 c 2,65,-1
 1600 560 l 2,52,53
EndSplineSet
EndChar

StartChar: partialdiff
Encoding: 8706 8706 224
Width: 1280
Flags: W
LayerCount: 2
Back
Fore
SplineSet
640 960 m 256,0,1
 474 960 474 960 357 843 c 128,-1,2
 240 726 240 726 240 560 c 256,3,4
 240 394 240 394 357 277 c 128,-1,5
 474 160 474 160 640 160 c 256,6,7
 806 160 806 160 923 277 c 128,-1,8
 1040 394 1040 394 1040 560 c 256,9,10
 1040 726 1040 726 923 843 c 128,-1,11
 806 960 806 960 640 960 c 256,0,1
1200 560 m 2,12,13
 1200 328 1200 328 1036 164 c 128,-1,14
 872 0 872 0 640 0 c 256,15,16
 408 0 408 0 244 164 c 128,-1,17
 80 328 80 328 80 560 c 256,18,19
 80 792 80 792 244 956 c 128,-1,20
 408 1120 408 1120 640 1120 c 256,21,22
 872 1120 872 1120 1035 957 c 1,23,24
 1012 1140 1012 1140 876 1276 c 0,25,26
 712 1440 712 1440 480 1440 c 0,27,28
 385 1440 385 1440 300 1413 c 0,29,30
 286 1407 286 1407 270 1407 c 0,31,32
 237 1407 237 1407 213.5 1430.5 c 128,-1,33
 190 1454 190 1454 190 1487 c 256,34,35
 190 1520 190 1520 214 1544 c 0,36,37
 231 1561 231 1561 255 1567 c 0,38,39
 360 1600 360 1600 480 1600 c 0,40,41
 778 1600 778 1600 989 1389 c 128,-1,42
 1200 1178 1200 1178 1200 880 c 2,43,-1
 1200 560 l 2,12,13
EndSplineSet
EndChar

StartChar: Delta
Encoding: 8710 8710 225
Width: 1440
Flags: W
LayerCount: 2
Back
Fore
SplineSet
160 0 m 2,0,1
 127 0 127 0 103.5 23.5 c 128,-1,2
 80 47 80 47 80 80 c 0,3,4
 80 102 80 102 90 125 c 2,5,-1
 647 1550 l 2,6,7
 653 1565 653 1565 664 1576 c 0,8,9
 687 1600 687 1600 720 1600 c 256,10,11
 753 1600 753 1600 777 1576 c 0,12,13
 787 1565 787 1565 793 1550 c 2,14,-1
 1350 125 l 2,15,16
 1360 102 1360 102 1360 80 c 0,17,18
 1360 47 1360 47 1336.5 23.5 c 128,-1,19
 1313 0 1313 0 1280 0 c 2,20,-1
 160 0 l 2,0,1
1163 160 m 1,21,-1
 720 1299 l 1,22,-1
 277 160 l 1,23,-1
 1163 160 l 1,21,-1
EndSplineSet
EndChar

StartChar: product
Encoding: 8719 8719 226
Width: 1440
Flags: W
LayerCount: 2
Back
Fore
SplineSet
160 1600 m 2,0,-1
 1280 1600 l 2,1,2
 1313 1600 1313 1600 1336.5 1576.5 c 128,-1,3
 1360 1553 1360 1553 1360 1520 c 2,4,-1
 1360 -400 l 2,5,6
 1360 -433 1360 -433 1336.5 -456.5 c 128,-1,7
 1313 -480 1313 -480 1280 -480 c 256,8,9
 1247 -480 1247 -480 1223.5 -456.5 c 128,-1,10
 1200 -433 1200 -433 1200 -400 c 2,11,-1
 1200 1440 l 1,12,-1
 240 1440 l 1,13,-1
 240 -400 l 2,14,15
 240 -433 240 -433 216.5 -456.5 c 128,-1,16
 193 -480 193 -480 160 -480 c 256,17,18
 127 -480 127 -480 103.5 -456.5 c 128,-1,19
 80 -433 80 -433 80 -400 c 2,20,-1
 80 1520 l 2,21,22
 80 1553 80 1553 103.5 1576.5 c 128,-1,23
 127 1600 127 1600 160 1600 c 2,0,-1
EndSplineSet
EndChar

StartChar: summation
Encoding: 8721 8721 227
Width: 1440
Flags: W
LayerCount: 2
Back
Fore
SplineSet
1280 -320 m 2,0,1
 1313 -320 1313 -320 1336.5 -343.5 c 128,-1,2
 1360 -367 1360 -367 1360 -400 c 256,3,4
 1360 -433 1360 -433 1336.5 -456.5 c 128,-1,5
 1313 -480 1313 -480 1280 -480 c 2,6,-1
 173 -480 l 2,7,8
 127 -480 127 -480 103.5 -456.5 c 128,-1,9
 80 -433 80 -433 80 -400 c 0,10,11
 80 -372 80 -372 97 -350 c 2,12,-1
 856 560 l 1,13,-1
 97 1470 l 2,14,15
 80 1492 80 1492 80 1520 c 0,16,17
 80 1553 80 1553 103.5 1576.5 c 128,-1,18
 127 1600 127 1600 160 1600 c 2,19,-1
 1280 1600 l 2,20,21
 1313 1600 1313 1600 1336.5 1576.5 c 128,-1,22
 1360 1553 1360 1553 1360 1520 c 256,23,24
 1360 1487 1360 1487 1336.5 1463.5 c 128,-1,25
 1313 1440 1313 1440 1280 1440 c 2,26,-1
 330 1440 l 1,27,-1
 1022 611 l 2,28,29
 1040 589 1040 589 1040 560 c 256,30,31
 1040 531 1040 531 1022 509 c 2,32,-1
 331 -320 l 1,33,-1
 1280 -320 l 2,0,1
EndSplineSet
EndChar

StartChar: minus
Encoding: 8722 8722 228
Width: 1120
Flags: W
LayerCount: 2
Back
Fore
SplineSet
160 640 m 2,0,1
 127 640 127 640 103.5 663.5 c 128,-1,2
 80 687 80 687 80 720 c 256,3,4
 80 753 80 753 103.5 776.5 c 128,-1,5
 127 800 127 800 160 800 c 2,6,-1
 960 800 l 2,7,8
 993 800 993 800 1016.5 776.5 c 128,-1,9
 1040 753 1040 753 1040 720 c 256,10,11
 1040 687 1040 687 1016.5 663.5 c 128,-1,12
 993 640 993 640 960 640 c 2,13,-1
 160 640 l 2,0,1
EndSplineSet
EndChar

StartChar: radical
Encoding: 8730 8730 229
Width: 1600
Flags: W
LayerCount: 2
Back
Fore
SplineSet
1280 1760 m 2,0,-1
 1440 1760 l 2,1,2
 1473 1760 1473 1760 1496.5 1736.5 c 128,-1,3
 1520 1713 1520 1713 1520 1680 c 256,4,5
 1520 1647 1520 1647 1496.5 1623.5 c 128,-1,6
 1473 1600 1473 1600 1440 1600 c 2,7,-1
 1330 1600 l 1,8,-1
 552 45 l 2,9,10
 546 33 546 33 537 24 c 0,11,12
 513 0 513 0 480 0 c 256,13,14
 447 0 447 0 424 24 c 0,15,16
 415 32 415 32 410 41 c 2,17,-1
 90 681 l 2,18,19
 80 698 80 698 80 720 c 0,20,21
 80 753 80 753 103.5 776.5 c 128,-1,22
 127 800 127 800 160 800 c 256,23,24
 193 800 193 800 217 777 c 0,25,26
 228 765 228 765 234 752 c 2,27,-1
 480 260 l 1,28,-1
 1206 1711 l 2,29,30
 1213 1725 1213 1725 1224 1737 c 0,31,32
 1247 1760 1247 1760 1280 1760 c 2,0,-1
EndSplineSet
EndChar

StartChar: infinity
Encoding: 8734 8734 230
Width: 1600
Flags: W
LayerCount: 2
Back
Fore
SplineSet
480 960 m 256,0,1
 381 960 381 960 310.5 889.5 c 128,-1,2
 240 819 240 819 240 720 c 256,3,4
 240 621 240 621 310.5 550.5 c 128,-1,5
 381 480 381 480 480 480 c 256,6,7
 579 480 579 480 649.5 550.5 c 128,-1,8
 720 621 720 621 720 720 c 256,9,10
 720 819 720 819 649.5 889.5 c 128,-1,11
 579 960 579 960 480 960 c 256,0,1
1120 960 m 256,12,13
 1021 960 1021 960 950.5 889.5 c 128,-1,14
 880 819 880 819 880 720 c 256,15,16
 880 621 880 621 950.5 550.5 c 128,-1,17
 1021 480 1021 480 1120 480 c 256,18,19
 1219 480 1219 480 1289.5 550.5 c 128,-1,20
 1360 621 1360 621 1360 720 c 256,21,22
 1360 819 1360 819 1289.5 889.5 c 128,-1,23
 1219 960 1219 960 1120 960 c 256,12,13
800 479 m 1,24,25
 783 457 783 457 763 437 c 0,26,27
 646 320 646 320 480 320 c 256,28,29
 314 320 314 320 197 437 c 128,-1,30
 80 554 80 554 80 720 c 256,31,32
 80 886 80 886 197 1003 c 128,-1,33
 314 1120 314 1120 480 1120 c 256,34,35
 646 1120 646 1120 763 1003 c 0,36,37
 783 983 783 983 800 961 c 1,38,39
 817 983 817 983 837 1003 c 0,40,41
 954 1120 954 1120 1120 1120 c 256,42,43
 1286 1120 1286 1120 1403 1003 c 128,-1,44
 1520 886 1520 886 1520 720 c 256,45,46
 1520 554 1520 554 1403 437 c 128,-1,47
 1286 320 1286 320 1120 320 c 256,48,49
 954 320 954 320 837 437 c 0,50,51
 817 457 817 457 800 479 c 1,24,25
EndSplineSet
EndChar

StartChar: integral
Encoding: 8747 8747 231
Width: 1120
Flags: W
LayerCount: 2
Back
Fore
SplineSet
956 1531 m 256,0,1
 923 1531 923 1531 900 1555 c 0,2,3
 883 1571 883 1571 876 1605 c 0,4,5
 873 1624 873 1624 861 1639 c 0,6,7
 840 1665 840 1665 807 1669 c 256,8,9
 774 1673 774 1673 748 1652 c 128,-1,10
 722 1631 722 1631 718 1599 c 2,11,-1
 559 -6 l 2,12,13
 548 -105 548 -105 470 -166 c 0,14,15
 403 -219 403 -219 322 -219 c 0,16,17
 208 -219 208 -219 133 -127 c 0,18,19
 90 -73 90 -73 82 -9 c 1,20,21
 82 33 82 33 105.5 56.5 c 128,-1,22
 129 80 129 80 162 80 c 256,23,24
 195 80 195 80 219 57 c 0,25,26
 238 37 238 37 241 12 c 0,27,28
 244 -10 244 -10 258 -28 c 0,29,30
 279 -54 279 -54 312 -58 c 0,31,32
 344 -62 344 -62 370.5 -41 c 128,-1,33
 397 -20 397 -20 400 12 c 2,34,-1
 559 1617 l 2,35,36
 571 1716 571 1716 650 1778 c 0,37,38
 716 1830 716 1830 797 1830 c 0,39,40
 920 1825 920 1825 986 1738 c 0,41,42
 1029 1684 1029 1684 1036 1620 c 1,43,44
 1036 1578 1036 1578 1012.5 1554.5 c 128,-1,45
 989 1531 989 1531 956 1531 c 256,0,1
EndSplineSet
EndChar

StartChar: uniF001
Encoding: 61441 61441 235
AltUni2: 00fb01.ffffffff.0
Width: 1120
Flags: W
LayerCount: 2
Back
Fore
SplineSet
880 1040 m 2,0,1
 880 1073 880 1073 903.5 1096.5 c 128,-1,2
 927 1120 927 1120 960 1120 c 256,3,4
 993 1120 993 1120 1016.5 1096.5 c 128,-1,5
 1040 1073 1040 1073 1040 1040 c 2,6,-1
 1040 80 l 2,7,8
 1040 47 1040 47 1016.5 23.5 c 128,-1,9
 993 0 993 0 960 0 c 256,10,11
 927 0 927 0 903.5 23.5 c 128,-1,12
 880 47 880 47 880 80 c 2,13,-1
 880 1040 l 2,0,1
680 1440 m 0,14,15
 400 1440 400 1440 400 1120 c 2,16,-1
 400 1060 l 1,17,-1
 641 1060 l 2,18,19
 674 1060 674 1060 697.5 1036.5 c 128,-1,20
 721 1013 721 1013 721 980 c 256,21,22
 721 947 721 947 697.5 923.5 c 128,-1,23
 674 900 674 900 641 900 c 2,24,-1
 400 900 l 1,25,-1
 400 80 l 2,26,27
 400 47 400 47 376.5 23.5 c 128,-1,28
 353 0 353 0 320 0 c 256,29,30
 287 0 287 0 263.5 23.5 c 128,-1,31
 240 47 240 47 240 80 c 2,32,-1
 240 900 l 1,33,-1
 160 900 l 2,34,35
 127 900 127 900 103.5 923.5 c 128,-1,36
 80 947 80 947 80 980 c 256,37,38
 80 1013 80 1013 103.5 1036.5 c 128,-1,39
 127 1060 127 1060 160 1060 c 2,40,-1
 240 1060 l 1,41,-1
 240 1120 l 2,42,43
 240 1600 240 1600 680 1600 c 0,44,45
 1060 1600 1060 1600 1060 1360 c 0,46,47
 1060 1319 1060 1319 1030.5 1289.5 c 128,-1,48
 1001 1260 1001 1260 960 1260 c 256,49,50
 919 1260 919 1260 889.5 1289.5 c 128,-1,51
 860 1319 860 1319 860 1360 c 0,52,53
 860 1440 860 1440 680 1440 c 0,14,15
EndSplineSet
EndChar

StartChar: uniF002
Encoding: 61442 61442 236
AltUni2: 00fb02.ffffffff.0
Width: 1200
Flags: W
LayerCount: 2
Back
Fore
SplineSet
800 1360 m 2,0,1
 800 1440 800 1440 720 1440 c 0,2,3
 400 1440 400 1440 400 1120 c 2,4,-1
 400 1060 l 1,5,-1
 641 1060 l 2,6,7
 674 1060 674 1060 697.5 1036.5 c 128,-1,8
 721 1013 721 1013 721 980 c 256,9,10
 721 947 721 947 697.5 923.5 c 128,-1,11
 674 900 674 900 641 900 c 2,12,-1
 400 900 l 1,13,-1
 400 80 l 2,14,15
 400 47 400 47 376.5 23.5 c 128,-1,16
 353 0 353 0 320 0 c 256,17,18
 287 0 287 0 263.5 23.5 c 128,-1,19
 240 47 240 47 240 80 c 2,20,-1
 240 900 l 1,21,-1
 160 900 l 2,22,23
 127 900 127 900 103.5 923.5 c 128,-1,24
 80 947 80 947 80 980 c 256,25,26
 80 1013 80 1013 103.5 1036.5 c 128,-1,27
 127 1060 127 1060 160 1060 c 2,28,-1
 240 1060 l 1,29,-1
 240 1120 l 2,30,31
 240 1600 240 1600 720 1600 c 0,32,33
 960 1600 960 1600 960 1360 c 2,34,-1
 960 160 l 1,35,-1
 1040 160 l 2,36,37
 1073 160 1073 160 1096.5 136.5 c 128,-1,38
 1120 113 1120 113 1120 80 c 256,39,40
 1120 47 1120 47 1096.5 23.5 c 128,-1,41
 1073 0 1073 0 1040 0 c 2,42,-1
 880 0 l 2,43,44
 847 0 847 0 823.5 23.5 c 128,-1,45
 800 47 800 47 800 80 c 2,46,-1
 800 1360 l 2,0,1
EndSplineSet
EndChar

StartChar: dcroat
Encoding: 273 273 254
Width: 1440
Flags: W
LayerCount: 2
Back
Fore
SplineSet
1040 560 m 256,0,1
 1040 726 1040 726 923 843 c 128,-1,2
 806 960 806 960 640 960 c 256,3,4
 474 960 474 960 357 843 c 128,-1,5
 240 726 240 726 240 560 c 256,6,7
 240 394 240 394 357 277 c 128,-1,8
 474 160 474 160 640 160 c 256,9,10
 806 160 806 160 923 277 c 128,-1,11
 1040 394 1040 394 1040 560 c 256,0,1
1040 1440 m 1,12,-1
 1040 1522 l 2,13,14
 1040 1555 1040 1555 1063.5 1578.5 c 128,-1,15
 1087 1602 1087 1602 1120 1602 c 256,16,17
 1153 1602 1153 1602 1176.5 1578.5 c 128,-1,18
 1200 1555 1200 1555 1200 1522 c 2,19,-1
 1200 1440 l 1,20,-1
 1280 1440 l 2,21,22
 1313 1440 1313 1440 1336.5 1416.5 c 128,-1,23
 1360 1393 1360 1393 1360 1360 c 256,24,25
 1360 1327 1360 1327 1336.5 1303.5 c 128,-1,26
 1313 1280 1313 1280 1280 1280 c 2,27,-1
 1200 1280 l 1,28,-1
 1200 560 l 2,29,30
 1200 328 1200 328 1036 164 c 128,-1,31
 872 0 872 0 640 0 c 256,32,33
 408 0 408 0 244 164 c 128,-1,34
 80 328 80 328 80 560 c 256,35,36
 80 792 80 792 244 956 c 128,-1,37
 408 1120 408 1120 640 1120 c 256,38,39
 872 1120 872 1120 1036 956 c 0,40,41
 1038 954 1038 954 1040 952 c 2,42,-1
 1040 1280 l 1,43,-1
 720 1280 l 2,44,45
 687 1280 687 1280 663.5 1303.5 c 128,-1,46
 640 1327 640 1327 640 1360 c 256,47,48
 640 1393 640 1393 663.5 1416.5 c 128,-1,49
 687 1440 687 1440 720 1440 c 2,50,-1
 1040 1440 l 1,12,-1
EndSplineSet
EndChar

StartChar: Hbar
Encoding: 294 294 275
Width: 1600
Flags: W
LayerCount: 2
Back
Fore
SplineSet
240 1320 m 1,0,-1
 240 1520 l 2,1,2
 240 1553 240 1553 263.5 1576.5 c 128,-1,3
 287 1600 287 1600 320 1600 c 256,4,5
 353 1600 353 1600 376.5 1576.5 c 128,-1,6
 400 1553 400 1553 400 1520 c 2,7,-1
 400 1320 l 1,8,-1
 1200 1320 l 1,9,-1
 1200 1520 l 2,10,11
 1200 1553 1200 1553 1223.5 1576.5 c 128,-1,12
 1247 1600 1247 1600 1280 1600 c 256,13,14
 1313 1600 1313 1600 1336.5 1576.5 c 128,-1,15
 1360 1553 1360 1553 1360 1520 c 2,16,-1
 1360 1320 l 1,17,-1
 1440 1320 l 2,18,19
 1473 1320 1473 1320 1496.5 1296.5 c 128,-1,20
 1520 1273 1520 1273 1520 1240 c 256,21,22
 1520 1207 1520 1207 1496.5 1183.5 c 128,-1,23
 1473 1160 1473 1160 1440 1160 c 2,24,-1
 1360 1160 l 1,25,-1
 1360 80 l 2,26,27
 1360 47 1360 47 1336.5 23.5 c 128,-1,28
 1313 0 1313 0 1280 0 c 256,29,30
 1247 0 1247 0 1223.5 23.5 c 128,-1,31
 1200 47 1200 47 1200 80 c 2,32,-1
 1200 720 l 1,33,-1
 400 720 l 1,34,-1
 400 80 l 2,35,36
 400 47 400 47 376.5 23.5 c 128,-1,37
 353 0 353 0 320 0 c 256,38,39
 287 0 287 0 263.5 23.5 c 128,-1,40
 240 47 240 47 240 80 c 2,41,-1
 240 1160 l 1,42,-1
 160 1160 l 2,43,44
 127 1160 127 1160 103.5 1183.5 c 128,-1,45
 80 1207 80 1207 80 1240 c 256,46,47
 80 1273 80 1273 103.5 1296.5 c 128,-1,48
 127 1320 127 1320 160 1320 c 2,49,-1
 240 1320 l 1,0,-1
400 1160 m 1,50,-1
 400 880 l 1,51,-1
 1200 880 l 1,52,-1
 1200 1160 l 1,53,-1
 400 1160 l 1,50,-1
EndSplineSet
EndChar

StartChar: hbar
Encoding: 295 295 276
Width: 1320
Flags: W
LayerCount: 2
Back
Fore
SplineSet
200 1440 m 1,0,-1
 200 1520 l 2,1,2
 200 1553 200 1553 223.5 1576.5 c 128,-1,3
 247 1600 247 1600 280 1600 c 256,4,5
 313 1600 313 1600 336.5 1576.5 c 128,-1,6
 360 1553 360 1553 360 1520 c 2,7,-1
 360 1440 l 1,8,-1
 680 1440 l 2,9,10
 713 1440 713 1440 736.5 1416.5 c 128,-1,11
 760 1393 760 1393 760 1360 c 256,12,13
 760 1327 760 1327 736.5 1303.5 c 128,-1,14
 713 1280 713 1280 680 1280 c 2,15,-1
 360 1280 l 1,16,-1
 360 975 l 1,17,18
 510 1120 510 1120 720 1120 c 0,19,20
 935 1120 935 1120 1087.5 967.5 c 128,-1,21
 1240 815 1240 815 1240 600 c 2,22,-1
 1240 80 l 2,23,24
 1240 47 1240 47 1216.5 23.5 c 128,-1,25
 1193 0 1193 0 1160 0 c 256,26,27
 1127 0 1127 0 1103.5 23.5 c 128,-1,28
 1080 47 1080 47 1080 80 c 2,29,-1
 1080 600 l 2,30,31
 1080 749 1080 749 974.5 854.5 c 128,-1,32
 869 960 869 960 720 960 c 256,33,34
 571 960 571 960 465.5 854.5 c 128,-1,35
 360 749 360 749 360 600 c 2,36,-1
 360 80 l 2,37,38
 360 47 360 47 336.5 23.5 c 128,-1,39
 313 0 313 0 280 0 c 256,40,41
 247 0 247 0 223.5 23.5 c 128,-1,42
 200 47 200 47 200 80 c 2,43,-1
 200 1280 l 1,44,-1
 120 1280 l 2,45,46
 87 1280 87 1280 63.5 1303.5 c 128,-1,47
 40 1327 40 1327 40 1360 c 256,48,49
 40 1393 40 1393 63.5 1416.5 c 128,-1,50
 87 1440 87 1440 120 1440 c 2,51,-1
 200 1440 l 1,0,-1
EndSplineSet
EndChar

StartChar: jcircumflex
Encoding: 309 309 289
Width: 760
Flags: W
LayerCount: 2
Back
Fore
SplineSet
400 0 m 2,0,-1
 400 1040 l 2,1,2
 400 1073 400 1073 423.5 1096.5 c 128,-1,3
 447 1120 447 1120 480 1120 c 256,4,5
 513 1120 513 1120 536.5 1096.5 c 128,-1,6
 560 1073 560 1073 560 1040 c 2,7,-1
 560 0 l 2,8,9
 560 -199 560 -199 419.5 -339.5 c 128,-1,10
 279 -480 279 -480 80 -480 c 0,11,12
 47 -480 47 -480 23.5 -456.5 c 128,-1,13
 0 -433 0 -433 0 -400 c 256,14,15
 0 -367 0 -367 23.5 -343.5 c 128,-1,16
 47 -320 47 -320 80 -320 c 0,17,18
 213 -320 213 -320 306.5 -226.5 c 128,-1,19
 400 -133 400 -133 400 0 c 2,0,-1
522 1539 m 2,20,-1
 761 1380 l 2,21,22
 769 1375 769 1375 778 1367 c 0,23,24
 801 1343 801 1343 801 1310 c 256,25,26
 801 1277 801 1277 777.5 1253.5 c 128,-1,27
 754 1230 754 1230 721 1230 c 0,28,29
 692 1230 692 1230 671 1247 c 2,30,-1
 481 1373 l 1,31,-1
 291 1247 l 2,32,33
 270 1230 270 1230 241 1230 c 0,34,35
 208 1230 208 1230 184.5 1253.5 c 128,-1,36
 161 1277 161 1277 161 1310 c 256,37,38
 161 1343 161 1343 185 1367 c 0,39,40
 193 1375 193 1375 201 1380 c 2,41,-1
 440 1539 l 2,42,43
 458 1550 458 1550 481 1550 c 256,44,45
 504 1550 504 1550 522 1539 c 2,20,-1
EndSplineSet
EndChar

StartChar: kgreenlandic
Encoding: 312 312 292
Width: 1120
Flags: W
LayerCount: 2
Back
Fore
SplineSet
240 668 m 1,0,-1
 917 1108 l 2,1,2
 936 1120 936 1120 960 1120 c 0,3,4
 993 1120 993 1120 1016.5 1096.5 c 128,-1,5
 1040 1073 1040 1073 1040 1040 c 256,6,7
 1040 1007 1040 1007 1017 984 c 0,8,9
 1011 978 1011 978 1006 974 c 2,10,-1
 542 672 l 1,11,-1
 1018 136 l 2,12,13
 1040 112 1040 112 1040 80 c 0,14,15
 1040 47 1040 47 1016.5 23.5 c 128,-1,16
 993 0 993 0 960 0 c 256,17,18
 927 0 927 0 902 24 c 2,19,-1
 405 584 l 1,20,-1
 240 477 l 1,21,-1
 240 80 l 2,22,23
 240 47 240 47 216.5 23.5 c 128,-1,24
 193 0 193 0 160 0 c 256,25,26
 127 0 127 0 103.5 23.5 c 128,-1,27
 80 47 80 47 80 80 c 2,28,-1
 80 1039 l 2,29,30
 80 1072 80 1072 103.5 1095.5 c 128,-1,31
 127 1119 127 1119 160 1119 c 256,32,33
 193 1119 193 1119 216.5 1095.5 c 128,-1,34
 240 1072 240 1072 240 1039 c 2,35,-1
 240 668 l 1,0,-1
EndSplineSet
EndChar

StartChar: Lslash
Encoding: 321 321 301
Width: 1360
Flags: W
LayerCount: 2
Back
Fore
SplineSet
240 836 m 1,0,-1
 240 1520 l 2,1,2
 240 1553 240 1553 263.5 1576.5 c 128,-1,3
 287 1600 287 1600 320 1600 c 256,4,5
 353 1600 353 1600 376.5 1576.5 c 128,-1,6
 400 1553 400 1553 400 1520 c 2,7,-1
 400 994 l 1,8,-1
 504 1097 l 2,9,10
 527 1121 527 1121 560.5 1120.5 c 128,-1,11
 594 1120 594 1120 617 1097 c 0,12,13
 640 1073 640 1073 640 1040 c 128,-1,14
 640 1007 640 1007 617 984 c 2,15,-1
 400 769 l 1,16,-1
 400 160 l 1,17,-1
 1200 160 l 2,18,19
 1233 160 1233 160 1256.5 136.5 c 128,-1,20
 1280 113 1280 113 1280 80 c 256,21,22
 1280 47 1280 47 1256.5 23.5 c 128,-1,23
 1233 0 1233 0 1200 0 c 2,24,-1
 320 0 l 2,25,26
 287 0 287 0 263.5 23.5 c 128,-1,27
 240 47 240 47 240 80 c 2,28,-1
 240 611 l 1,29,-1
 161 533 l 2,30,31
 138 509 138 509 104.5 509.5 c 128,-1,32
 71 510 71 510 48 533 c 0,33,34
 25 557 25 557 25 590 c 256,35,36
 25 623 25 623 48 646 c 2,37,-1
 240 836 l 1,0,-1
EndSplineSet
EndChar

StartChar: lslash
Encoding: 322 322 302
Width: 720
Flags: W
LayerCount: 2
Back
Fore
SplineSet
240 836 m 1,0,-1
 240 1520 l 2,1,2
 240 1553 240 1553 263.5 1576.5 c 128,-1,3
 287 1600 287 1600 320 1600 c 256,4,5
 353 1600 353 1600 376.5 1576.5 c 128,-1,6
 400 1553 400 1553 400 1520 c 2,7,-1
 400 994 l 1,8,-1
 504 1097 l 2,9,10
 527 1121 527 1121 560.5 1120.5 c 128,-1,11
 594 1120 594 1120 617 1097 c 0,12,13
 640 1073 640 1073 640 1040 c 256,14,15
 640 1007 640 1007 617 984 c 2,16,-1
 400 769 l 1,17,-1
 400 160 l 1,18,-1
 480 160 l 2,19,20
 513 160 513 160 536.5 136.5 c 128,-1,21
 560 113 560 113 560 80 c 256,22,23
 560 47 560 47 536.5 23.5 c 128,-1,24
 513 0 513 0 480 0 c 2,25,-1
 320 0 l 2,26,27
 287 0 287 0 263.5 23.5 c 128,-1,28
 240 47 240 47 240 80 c 2,29,-1
 240 611 l 1,30,-1
 161 533 l 2,31,32
 138 509 138 509 104.5 509.5 c 128,-1,33
 71 510 71 510 48 533 c 0,34,35
 25 557 25 557 25 590 c 256,36,37
 25 623 25 623 48 646 c 2,38,-1
 240 836 l 1,0,-1
EndSplineSet
EndChar

StartChar: Eng
Encoding: 330 330 310
Width: 1440
Flags: W
LayerCount: 2
Back
Fore
SplineSet
240 80 m 2,0,1
 240 47 240 47 216.5 23.5 c 128,-1,2
 193 0 193 0 160 0 c 256,3,4
 127 0 127 0 103.5 23.5 c 128,-1,5
 80 47 80 47 80 80 c 2,6,-1
 80 1520 l 2,7,8
 80 1553 80 1553 103.5 1576.5 c 128,-1,9
 127 1600 127 1600 160 1600 c 256,10,11
 193 1600 193 1600 216.5 1576.5 c 128,-1,12
 240 1553 240 1553 240 1520 c 2,13,-1
 240 1383 l 1,14,15
 253 1398 253 1398 268 1413 c 0,16,17
 455 1600 455 1600 720 1600 c 256,18,19
 985 1600 985 1600 1172.5 1412.5 c 128,-1,20
 1360 1225 1360 1225 1360 960 c 2,21,-1
 1360 480 l 2,22,23
 1360 281 1360 281 1219.5 140.5 c 128,-1,24
 1079 0 1079 0 880 0 c 256,25,26
 681 0 681 0 541 142 c 0,27,28
 517 165 517 165 517 198 c 256,29,30
 517 231 517 231 540.5 254.5 c 128,-1,31
 564 278 564 278 597 278 c 256,32,33
 630 278 630 278 654 255 c 0,34,35
 747 160 747 160 880 160 c 256,36,37
 1013 160 1013 160 1106.5 253.5 c 128,-1,38
 1200 347 1200 347 1200 480 c 2,39,-1
 1200 960 l 2,40,41
 1200 1159 1200 1159 1059.5 1299.5 c 128,-1,42
 919 1440 919 1440 720 1440 c 256,43,44
 521 1440 521 1440 380.5 1299.5 c 128,-1,45
 240 1159 240 1159 240 960 c 2,46,-1
 240 80 l 2,0,1
EndSplineSet
EndChar

StartChar: eng
Encoding: 331 331 311
Width: 1200
Flags: W
LayerCount: 2
Back
Fore
SplineSet
960 -160 m 2,0,-1
 960 600 l 2,1,2
 960 749 960 749 854.5 854.5 c 128,-1,3
 749 960 749 960 600 960 c 256,4,5
 451 960 451 960 345.5 854.5 c 128,-1,6
 240 749 240 749 240 600 c 2,7,-1
 240 80 l 2,8,9
 240 47 240 47 216.5 23.5 c 128,-1,10
 193 0 193 0 160 0 c 256,11,12
 127 0 127 0 103.5 23.5 c 128,-1,13
 80 47 80 47 80 80 c 2,14,-1
 80 1040 l 2,15,16
 80 1073 80 1073 103.5 1096.5 c 128,-1,17
 127 1120 127 1120 160 1120 c 256,18,19
 193 1120 193 1120 216.5 1096.5 c 128,-1,20
 240 1073 240 1073 240 1040 c 2,21,-1
 240 975 l 1,22,23
 390 1120 390 1120 600 1120 c 0,24,25
 815 1120 815 1120 967.5 967.5 c 128,-1,26
 1120 815 1120 815 1120 600 c 2,27,-1
 1120 -160 l 2,28,29
 1120 -293 1120 -293 1026.5 -386.5 c 128,-1,30
 933 -480 933 -480 800 -480 c 0,31,32
 721 -480 721 -480 656 -446 c 0,33,34
 619 -423 619 -423 618 -378 c 0,35,36
 618 -345 618 -345 641.5 -321.5 c 128,-1,37
 665 -298 665 -298 698 -298 c 0,38,39
 714 -298 714 -298 728 -304 c 0,40,41
 761 -320 761 -320 800 -320 c 0,42,43
 866 -320 866 -320 913 -273 c 128,-1,44
 960 -226 960 -226 960 -160 c 2,0,-1
EndSplineSet
EndChar

StartChar: OE
Encoding: 338 338 318
Width: 2160
Flags: W
LayerCount: 2
Back
Fore
SplineSet
880 1440 m 2,0,1
 615 1440 615 1440 427.5 1252.5 c 128,-1,2
 240 1065 240 1065 240 800 c 256,3,4
 240 535 240 535 427.5 347.5 c 128,-1,5
 615 160 615 160 880 160 c 2,6,-1
 960 160 l 1,7,-1
 960 1440 l 1,8,-1
 880 1440 l 2,0,1
880 0 m 2,9,10
 549 0 549 0 314.5 234.5 c 128,-1,11
 80 469 80 469 80 800 c 256,12,13
 80 1131 80 1131 314.5 1365.5 c 128,-1,14
 549 1600 549 1600 880 1600 c 2,15,-1
 2001 1600 l 2,16,17
 2034 1600 2034 1600 2057.5 1576.5 c 128,-1,18
 2081 1553 2081 1553 2081 1520 c 256,19,20
 2081 1487 2081 1487 2057.5 1463.5 c 128,-1,21
 2034 1440 2034 1440 2001 1440 c 2,22,-1
 1120 1440 l 1,23,-1
 1120 880 l 1,24,-1
 1761 880 l 2,25,26
 1794 880 1794 880 1817.5 856.5 c 128,-1,27
 1841 833 1841 833 1841 800 c 0,28,29
 1841 766 1841 766 1817.5 742.5 c 128,-1,30
 1794 719 1794 719 1761 719 c 2,31,-1
 1120 719 l 1,32,-1
 1120 160 l 1,33,-1
 2000 160 l 2,34,35
 2033 160 2033 160 2056.5 136.5 c 128,-1,36
 2080 113 2080 113 2080 80 c 256,37,38
 2080 47 2080 47 2056.5 23.5 c 128,-1,39
 2033 0 2033 0 2000 0 c 2,40,-1
 880 0 l 2,9,10
EndSplineSet
EndChar

StartChar: oe
Encoding: 339 339 319
Width: 2240
Flags: W
LayerCount: 2
Back
Fore
SplineSet
640 960 m 256,0,1
 474 960 474 960 357 843 c 128,-1,2
 240 726 240 726 240 560 c 256,3,4
 240 394 240 394 357 277 c 128,-1,5
 474 160 474 160 640 160 c 256,6,7
 806 160 806 160 923 277 c 128,-1,8
 1040 394 1040 394 1040 560 c 256,9,10
 1040 726 1040 726 923 843 c 128,-1,11
 806 960 806 960 640 960 c 256,0,1
1993 640 m 1,12,13
 1971 755 1971 755 1883 843 c 0,14,15
 1766 960 1766 960 1600 960 c 256,16,17
 1434 960 1434 960 1317 843 c 0,18,19
 1229 755 1229 755 1207 640 c 1,20,-1
 1993 640 l 1,12,13
1120 269 m 1,21,22
 1085 213 1085 213 1036 164 c 0,23,24
 872 0 872 0 640 0 c 256,25,26
 408 0 408 0 244 164 c 128,-1,27
 80 328 80 328 80 560 c 256,28,29
 80 792 80 792 244 956 c 128,-1,30
 408 1120 408 1120 640 1120 c 256,31,32
 872 1120 872 1120 1036 956 c 0,33,34
 1085 907 1085 907 1120 851 c 1,35,36
 1155 907 1155 907 1204 956 c 0,37,38
 1368 1120 1368 1120 1600 1120 c 256,39,40
 1832 1120 1832 1120 1996 956 c 128,-1,41
 2160 792 2160 792 2160 560 c 0,42,43
 2160 527 2160 527 2136.5 503.5 c 128,-1,44
 2113 480 2113 480 2080 480 c 2,45,-1
 1207 480 l 1,46,47
 1229 365 1229 365 1317 277 c 0,48,49
 1434 160 1434 160 1600 160 c 0,50,51
 1750 160 1750 160 1858 255 c 0,52,53
 1880 272 1880 272 1908 272 c 0,54,55
 1941 272 1941 272 1964.5 248.5 c 128,-1,56
 1988 225 1988 225 1988 192 c 256,57,58
 1988 159 1988 159 1965 135 c 0,59,60
 1810 0 1810 0 1600 0 c 0,61,62
 1368 0 1368 0 1204 164 c 0,63,64
 1155 213 1155 213 1120 269 c 1,21,22
EndSplineSet
EndChar

StartChar: Tbar
Encoding: 358 358 338
Width: 1360
Flags: W
LayerCount: 2
Back
Fore
SplineSet
600 800 m 1,0,-1
 600 1440 l 1,1,-1
 160 1440 l 2,2,3
 127 1440 127 1440 103.5 1463.5 c 128,-1,4
 80 1487 80 1487 80 1520 c 256,5,6
 80 1553 80 1553 103.5 1576.5 c 128,-1,7
 127 1600 127 1600 160 1600 c 2,8,-1
 1200 1600 l 2,9,10
 1233 1600 1233 1600 1256.5 1576.5 c 128,-1,11
 1280 1553 1280 1553 1280 1520 c 256,12,13
 1280 1487 1280 1487 1256.5 1463.5 c 128,-1,14
 1233 1440 1233 1440 1200 1440 c 2,15,-1
 760 1440 l 1,16,-1
 760 800 l 1,17,-1
 1080 800 l 2,18,19
 1113 800 1113 800 1136.5 776.5 c 128,-1,20
 1160 753 1160 753 1160 720 c 256,21,22
 1160 687 1160 687 1136.5 663.5 c 128,-1,23
 1113 640 1113 640 1080 640 c 2,24,-1
 760 640 l 1,25,-1
 760 80 l 2,26,27
 760 47 760 47 736.5 23.5 c 128,-1,28
 713 0 713 0 680 0 c 256,29,30
 647 0 647 0 623.5 23.5 c 128,-1,31
 600 47 600 47 600 80 c 2,32,-1
 600 640 l 1,33,-1
 280 640 l 2,34,35
 247 640 247 640 223.5 663.5 c 128,-1,36
 200 687 200 687 200 720 c 256,37,38
 200 753 200 753 223.5 776.5 c 128,-1,39
 247 800 247 800 280 800 c 2,40,-1
 600 800 l 1,0,-1
EndSplineSet
EndChar

StartChar: tbar
Encoding: 359 359 339
Width: 800
Flags: W
LayerCount: 2
Back
Fore
SplineSet
400 560 m 1,0,-1
 400 400 l 2,1,2
 400 160 400 160 640 160 c 0,3,4
 673 160 673 160 696.5 136.5 c 128,-1,5
 720 113 720 113 720 80 c 256,6,7
 720 47 720 47 696.5 23.5 c 128,-1,8
 673 0 673 0 640 0 c 0,9,10
 240 0 240 0 240 400 c 2,11,-1
 240 560 l 1,12,-1
 159 560 l 2,13,14
 126 560 126 560 102.5 583.5 c 128,-1,15
 79 607 79 607 79 640 c 256,16,17
 79 673 79 673 102.5 696.5 c 128,-1,18
 126 720 126 720 159 720 c 2,19,-1
 240 720 l 1,20,-1
 240 960 l 1,21,-1
 160 960 l 2,22,23
 127 960 127 960 103.5 983.5 c 128,-1,24
 80 1007 80 1007 80 1040 c 256,25,26
 80 1073 80 1073 103.5 1096.5 c 128,-1,27
 127 1120 127 1120 160 1120 c 2,28,-1
 240 1120 l 1,29,-1
 240 1520 l 2,30,31
 240 1553 240 1553 263.5 1576.5 c 128,-1,32
 287 1600 287 1600 320 1600 c 256,33,34
 353 1600 353 1600 376.5 1576.5 c 128,-1,35
 400 1553 400 1553 400 1520 c 2,36,-1
 400 1120 l 1,37,-1
 561 1120 l 2,38,39
 594 1120 594 1120 617.5 1096.5 c 128,-1,40
 641 1073 641 1073 641 1040 c 256,41,42
 641 1007 641 1007 617.5 983.5 c 128,-1,43
 594 960 594 960 561 960 c 2,44,-1
 400 960 l 1,45,-1
 400 720 l 1,46,-1
 560 720 l 2,47,48
 593 720 593 720 616.5 696.5 c 128,-1,49
 640 673 640 673 640 640 c 256,50,51
 640 607 640 607 616.5 583.5 c 128,-1,52
 593 560 593 560 560 560 c 2,53,-1
 400 560 l 1,0,-1
EndSplineSet
EndChar

StartChar: longs
Encoding: 383 383 363
Width: 640
Flags: W
LayerCount: 2
Back
Fore
SplineSet
560 1600 m 0,0,1
 593 1600 593 1600 616.5 1576.5 c 128,-1,2
 640 1553 640 1553 640 1520 c 256,3,4
 640 1487 640 1487 616.5 1463.5 c 128,-1,5
 593 1440 593 1440 560 1440 c 0,6,7
 240 1440 240 1440 240 1120 c 2,8,-1
 240 80 l 2,9,10
 240 47 240 47 216.5 23.5 c 128,-1,11
 193 0 193 0 160 0 c 256,12,13
 127 0 127 0 103.5 23.5 c 128,-1,14
 80 47 80 47 80 80 c 2,15,-1
 80 1120 l 2,16,17
 80 1600 80 1600 560 1600 c 0,0,1
EndSplineSet
EndChar

StartChar: florin
Encoding: 402 402 364
Width: 960
Flags: W
LayerCount: 2
Back
Fore
SplineSet
401 0 m 1,0,-1
 400 900 l 1,1,-1
 320 900 l 2,2,3
 287 900 287 900 263.5 923.5 c 128,-1,4
 240 947 240 947 240 980 c 256,5,6
 240 1013 240 1013 263.5 1036.5 c 128,-1,7
 287 1060 287 1060 320 1060 c 2,8,-1
 400 1060 l 1,9,-1
 400 1120 l 2,10,11
 400 1600 400 1600 880 1600 c 0,12,13
 913 1600 913 1600 936.5 1576.5 c 128,-1,14
 960 1553 960 1553 960 1520 c 256,15,16
 960 1487 960 1487 936.5 1463.5 c 128,-1,17
 913 1440 913 1440 880 1440 c 0,18,19
 560 1440 560 1440 560 1120 c 2,20,-1
 560 1060 l 1,21,-1
 801 1060 l 2,22,23
 834 1060 834 1060 857.5 1036.5 c 128,-1,24
 881 1013 881 1013 881 980 c 256,25,26
 881 947 881 947 857.5 923.5 c 128,-1,27
 834 900 834 900 801 900 c 2,28,-1
 560 900 l 1,29,-1
 561 0 l 1,30,-1
 560 0 l 1,31,32
 560 -480 560 -480 80 -480 c 0,33,34
 47 -480 47 -480 23.5 -456.5 c 128,-1,35
 0 -433 0 -433 0 -400 c 256,36,37
 0 -367 0 -367 23.5 -343.5 c 128,-1,38
 47 -320 47 -320 80 -320 c 0,39,40
 400 -320 400 -320 400 0 c 1,41,-1
 401 0 l 1,0,-1
EndSplineSet
EndChar

StartChar: Aringacute
Encoding: 506 506 365
Width: 1440
Flags: W
LayerCount: 2
Back
Fore
SplineSet
945 720 m 1,0,-1
 720 1299 l 1,1,-1
 495 720 l 1,2,-1
 945 720 l 1,0,-1
719 1802 m 0,3,4
 677 1802 677 1802 647.5 1772.5 c 128,-1,5
 618 1743 618 1743 618 1702 c 0,6,7
 618 1660 618 1660 647.5 1630.5 c 128,-1,8
 677 1601 677 1601 719 1601 c 0,9,10
 760 1601 760 1601 789.5 1630.5 c 128,-1,11
 819 1660 819 1660 819 1702 c 0,12,13
 819 1743 819 1743 789.5 1772.5 c 128,-1,14
 760 1802 760 1802 719 1802 c 0,3,4
807 1520 m 1,15,-1
 1353 114 l 2,16,17
 1360 99 1360 99 1360 80 c 0,18,19
 1360 47 1360 47 1336.5 23.5 c 128,-1,20
 1313 0 1313 0 1280 0 c 256,21,22
 1247 0 1247 0 1224 24 c 0,23,24
 1212 35 1212 35 1206 49 c 2,25,-1
 1007 560 l 1,26,-1
 433 560 l 1,27,-1
 234 49 l 2,28,29
 228 35 228 35 217 24 c 0,30,31
 193 0 193 0 160 0 c 256,32,33
 127 0 127 0 103.5 23.5 c 128,-1,34
 80 47 80 47 80 80 c 0,35,36
 80 99 80 99 87 114 c 2,37,-1
 633 1518 l 1,38,39
 602 1533 602 1533 576 1559 c 0,40,41
 517 1618 517 1618 517 1702 c 0,42,43
 517 1789 517 1789 590 1857 c 1,44,45
 560 1887 560 1887 560 1920 c 0,46,47
 560 1951 560 1951 580 1974 c 2,48,-1
 663 2057 l 2,49,50
 687 2080 687 2080 720 2080 c 256,51,52
 753 2080 753 2080 776.5 2056.5 c 128,-1,53
 800 2033 800 2033 800 2000 c 0,54,55
 800 1968 800 1968 778 1944 c 2,56,-1
 736 1902 l 1,57,58
 808 1897 808 1897 861 1844 c 0,59,60
 920 1785 920 1785 920 1702 c 0,61,62
 920 1618 920 1618 861 1559 c 0,63,64
 836 1534 836 1534 807 1520 c 1,15,-1
EndSplineSet
EndChar

StartChar: dieresistonos
Encoding: 901 901 372
Width: 960
Flags: W
LayerCount: 2
Back
Fore
SplineSet
679 1464 m 2,0,-1
 436 1221 l 2,1,2
 413 1200 413 1200 381 1200 c 0,3,4
 348 1200 348 1200 324.5 1223.5 c 128,-1,5
 301 1247 301 1247 301 1280 c 0,6,7
 301 1311 301 1311 321 1334 c 2,8,-1
 564 1577 l 2,9,10
 588 1600 588 1600 621 1600 c 256,11,12
 654 1600 654 1600 677.5 1576.5 c 128,-1,13
 701 1553 701 1553 701 1520 c 0,14,15
 701 1488 701 1488 679 1464 c 2,0,-1
260 1360 m 256,16,17
 260 1319 260 1319 230.5 1289.5 c 128,-1,18
 201 1260 201 1260 160 1260 c 256,19,20
 119 1260 119 1260 89.5 1289.5 c 128,-1,21
 60 1319 60 1319 60 1360 c 256,22,23
 60 1401 60 1401 89.5 1430.5 c 128,-1,24
 119 1460 119 1460 160 1460 c 256,25,26
 201 1460 201 1460 230.5 1430.5 c 128,-1,27
 260 1401 260 1401 260 1360 c 256,16,17
900 1360 m 256,28,29
 900 1319 900 1319 870.5 1289.5 c 128,-1,30
 841 1260 841 1260 800 1260 c 256,31,32
 759 1260 759 1260 729.5 1289.5 c 128,-1,33
 700 1319 700 1319 700 1360 c 256,34,35
 700 1401 700 1401 729.5 1430.5 c 128,-1,36
 759 1460 759 1460 800 1460 c 256,37,38
 841 1460 841 1460 870.5 1430.5 c 128,-1,39
 900 1401 900 1401 900 1360 c 256,28,29
EndSplineSet
EndChar

StartChar: Alphatonos
Encoding: 902 902 373
Width: 1440
Flags: W
LayerCount: 2
Back
Fore
SplineSet
538 1464 m 2,0,-1
 295 1221 l 2,1,2
 272 1200 272 1200 240 1200 c 0,3,4
 207 1200 207 1200 183.5 1223.5 c 128,-1,5
 160 1247 160 1247 160 1280 c 0,6,7
 160 1311 160 1311 180 1334 c 2,8,-1
 423 1577 l 2,9,10
 447 1600 447 1600 480 1600 c 256,11,12
 513 1600 513 1600 536.5 1576.5 c 128,-1,13
 560 1553 560 1553 560 1520 c 0,14,15
 560 1488 560 1488 538 1464 c 2,0,-1
433 560 m 1,16,-1
 234 49 l 2,17,18
 228 35 228 35 217 23 c 0,19,20
 193 0 193 0 160 0 c 256,21,22
 127 0 127 0 103.5 23.5 c 128,-1,23
 80 47 80 47 80 80 c 0,24,25
 80 99 80 99 87 114 c 2,26,-1
 643 1544 l 2,27,28
 649 1562 649 1562 664 1577 c 0,29,30
 687 1600 687 1600 720 1600 c 256,31,32
 753 1600 753 1600 777 1577 c 0,33,34
 791 1562 791 1562 797 1544 c 2,35,-1
 1353 114 l 2,36,37
 1360 99 1360 99 1360 80 c 0,38,39
 1360 47 1360 47 1336.5 23.5 c 128,-1,40
 1313 0 1313 0 1280 0 c 256,41,42
 1247 0 1247 0 1224 23 c 0,43,44
 1212 35 1212 35 1206 49 c 2,45,-1
 1007 560 l 1,46,-1
 433 560 l 1,16,-1
945 720 m 1,47,-1
 720 1299 l 1,48,-1
 495 720 l 1,49,-1
 945 720 l 1,47,-1
EndSplineSet
EndChar

StartChar: Epsilontonos
Encoding: 904 904 375
Width: 1640
Flags: W
LayerCount: 2
Back
Fore
SplineSet
338 1464 m 2,0,-1
 95 1221 l 2,1,2
 72 1200 72 1200 40 1200 c 0,3,4
 7 1200 7 1200 -16.5 1223.5 c 128,-1,5
 -40 1247 -40 1247 -40 1280 c 0,6,7
 -40 1311 -40 1311 -20 1334 c 2,8,-1
 223 1577 l 2,9,10
 247 1600 247 1600 280 1600 c 256,11,12
 313 1600 313 1600 336.5 1576.5 c 128,-1,13
 360 1553 360 1553 360 1520 c 0,14,15
 360 1488 360 1488 338 1464 c 2,0,-1
518 1600 m 2,16,-1
 1478 1600 l 2,17,18
 1511 1600 1511 1600 1534.5 1576.5 c 128,-1,19
 1558 1553 1558 1553 1558 1520 c 256,20,21
 1558 1487 1558 1487 1534.5 1463.5 c 128,-1,22
 1511 1440 1511 1440 1478 1440 c 2,23,-1
 598 1440 l 1,24,-1
 598 880 l 1,25,-1
 1238 880 l 2,26,27
 1271 880 1271 880 1294.5 856.5 c 128,-1,28
 1318 833 1318 833 1318 800 c 256,29,30
 1318 767 1318 767 1294.5 743.5 c 128,-1,31
 1271 720 1271 720 1238 720 c 2,32,-1
 598 720 l 1,33,-1
 598 160 l 1,34,-1
 1478 160 l 2,35,36
 1511 160 1511 160 1534.5 136.5 c 128,-1,37
 1558 113 1558 113 1558 80 c 256,38,39
 1558 47 1558 47 1534.5 23.5 c 128,-1,40
 1511 0 1511 0 1478 0 c 2,41,-1
 518 0 l 2,42,43
 485 0 485 0 461.5 23.5 c 128,-1,44
 438 47 438 47 438 80 c 2,45,-1
 438 1520 l 2,46,47
 438 1553 438 1553 461.5 1576.5 c 128,-1,48
 485 1600 485 1600 518 1600 c 2,16,-1
EndSplineSet
EndChar

StartChar: Etatonos
Encoding: 905 905 376
Width: 1640
Flags: W
LayerCount: 2
Back
Fore
SplineSet
338 1464 m 2,0,-1
 95 1221 l 2,1,2
 72 1200 72 1200 40 1200 c 0,3,4
 7 1200 7 1200 -16.5 1223.5 c 128,-1,5
 -40 1247 -40 1247 -40 1280 c 0,6,7
 -40 1311 -40 1311 -20 1334 c 2,8,-1
 223 1577 l 2,9,10
 247 1600 247 1600 280 1600 c 256,11,12
 313 1600 313 1600 336.5 1576.5 c 128,-1,13
 360 1553 360 1553 360 1520 c 0,14,15
 360 1488 360 1488 338 1464 c 2,0,-1
440 1520 m 2,16,17
 440 1553 440 1553 463.5 1576.5 c 128,-1,18
 487 1600 487 1600 520 1600 c 256,19,20
 553 1600 553 1600 576.5 1576.5 c 128,-1,21
 600 1553 600 1553 600 1520 c 2,22,-1
 600 880 l 1,23,-1
 1400 880 l 1,24,-1
 1400 1520 l 2,25,26
 1400 1553 1400 1553 1423.5 1576.5 c 128,-1,27
 1447 1600 1447 1600 1480 1600 c 256,28,29
 1513 1600 1513 1600 1536.5 1576.5 c 128,-1,30
 1560 1553 1560 1553 1560 1520 c 2,31,-1
 1560 80 l 2,32,33
 1560 47 1560 47 1536.5 23.5 c 128,-1,34
 1513 0 1513 0 1480 0 c 256,35,36
 1447 0 1447 0 1423.5 23.5 c 128,-1,37
 1400 47 1400 47 1400 80 c 2,38,-1
 1400 720 l 1,39,-1
 600 720 l 1,40,-1
 600 80 l 2,41,42
 600 47 600 47 576.5 23.5 c 128,-1,43
 553 0 553 0 520 0 c 256,44,45
 487 0 487 0 463.5 23.5 c 128,-1,46
 440 47 440 47 440 80 c 2,47,-1
 440 1520 l 2,16,17
EndSplineSet
EndChar

StartChar: Iotatonos
Encoding: 906 906 377
Width: 760
Flags: W
LayerCount: 2
Back
Fore
SplineSet
338 1464 m 2,0,-1
 95 1221 l 2,1,2
 72 1200 72 1200 40 1200 c 0,3,4
 7 1200 7 1200 -16.5 1223.5 c 128,-1,5
 -40 1247 -40 1247 -40 1280 c 0,6,7
 -40 1311 -40 1311 -20 1334 c 2,8,-1
 223 1577 l 2,9,10
 247 1600 247 1600 280 1600 c 256,11,12
 313 1600 313 1600 336.5 1576.5 c 128,-1,13
 360 1553 360 1553 360 1520 c 0,14,15
 360 1488 360 1488 338 1464 c 2,0,-1
441 1520 m 2,16,17
 441 1553 441 1553 464.5 1576.5 c 128,-1,18
 488 1600 488 1600 521 1600 c 256,19,20
 554 1600 554 1600 577.5 1576.5 c 128,-1,21
 601 1553 601 1553 601 1520 c 2,22,-1
 601 80 l 2,23,24
 601 47 601 47 577.5 23.5 c 128,-1,25
 554 0 554 0 521 0 c 256,26,27
 488 0 488 0 464.5 23.5 c 128,-1,28
 441 47 441 47 441 80 c 2,29,-1
 441 1520 l 2,16,17
EndSplineSet
EndChar

